<svg xmlns="http://www.w3.org/2000/svg" xmlns:xlink="http://www.w3.org/1999/xlink" width="64" zoomAndPan="magnify" viewBox="0 0 48 48" height="64" preserveAspectRatio="xMidYMid meet" version="1.0"><defs><clipPath id="1e4b308712"><path d="M 3 3.105469 L 45 3.105469 L 45 44 L 3 44 Z M 3 3.105469 " clip-rule="nonzero"/></clipPath><clipPath id="b677113550"><path d="M 40 5 L 45.839844 5 L 45.839844 10 L 40 10 Z M 40 5 " clip-rule="nonzero"/></clipPath></defs><g clip-path="url(#1e4b308712)"><path fill="#e3e3e3" d="M 5.03125 15.558594 C 2.863281 20.238281 2.492188 25.738281 4.003906 30.667969 C 4.375 31.878906 4.855469 33.054688 5.5625 34.109375 C 6.195312 35.050781 7.011719 35.867188 7.816406 36.671875 C 8.707031 37.550781 9.609375 38.417969 10.511719 39.273438 C 11.441406 40.152344 12.394531 41.019531 13.507812 41.636719 C 15.082031 42.53125 16.886719 42.875 18.671875 43.160156 C 23.632812 43.953125 28.929688 44.238281 33.5 42.121094 C 36.941406 40.523438 39.699219 37.636719 41.519531 34.308594 C 43.339844 30.976562 44.265625 27.210938 44.625 23.433594 C 44.75 22.109375 44.8125 20.773438 44.664062 19.449219 C 44.265625 15.941406 42.398438 12.722656 39.984375 10.136719 C 38.164062 8.191406 36.011719 6.519531 33.5625 5.503906 C 31.953125 4.835938 30.230469 4.453125 28.511719 4.15625 C 23.957031 3.375 18.582031 3.113281 14.460938 5.566406 C 10.414062 7.96875 7.023438 11.238281 5.03125 15.558594 Z M 5.03125 15.558594 " fill-opacity="1" fill-rule="nonzero"/></g><path fill="#cfcaca" d="M 7.234375 16.511719 C 5.328125 20.648438 4.992188 25.503906 6.328125 29.863281 C 6.652344 30.925781 7.085938 31.980469 7.703125 32.90625 C 8.261719 33.738281 8.976562 34.46875 9.695312 35.175781 C 10.476562 35.953125 11.28125 36.722656 12.085938 37.476562 C 12.902344 38.246094 13.757812 39.011719 14.734375 39.570312 C 16.121094 40.351562 17.71875 40.671875 19.300781 40.917969 C 23.683594 41.625 28.363281 41.875 32.398438 40.003906 C 35.441406 38.589844 37.867188 36.039062 39.476562 33.09375 C 41.085938 30.144531 41.902344 26.828125 42.226562 23.484375 C 42.335938 22.308594 42.398438 21.132812 42.261719 19.957031 C 41.914062 16.859375 40.257812 14.023438 38.128906 11.734375 C 36.53125 10.011719 34.625 8.539062 32.445312 7.632812 C 31.023438 7.039062 29.5 6.707031 27.976562 6.445312 C 23.957031 5.753906 19.214844 5.527344 15.5625 7.683594 C 12 9.800781 8.992188 12.6875 7.234375 16.511719 Z M 7.234375 16.511719 " fill-opacity="1" fill-rule="nonzero"/><path fill="#873b1d" d="M 41.273438 23.472656 C 40.960938 26.640625 40.195312 29.789062 38.671875 32.585938 C 37.148438 35.382812 34.847656 37.800781 31.964844 39.136719 C 28.140625 40.90625 23.707031 40.671875 19.550781 40.015625 C 18.050781 39.78125 16.542969 39.472656 15.21875 38.738281 C 14.289062 38.21875 13.484375 37.488281 12.703125 36.757812 C 11.9375 36.039062 11.183594 35.308594 10.4375 34.578125 C 9.757812 33.910156 9.089844 33.230469 8.558594 32.4375 C 7.964844 31.558594 7.554688 30.566406 7.246094 29.550781 C 5.984375 25.417969 6.292969 20.820312 8.101562 16.898438 C 8.667969 15.671875 9.375 14.53125 10.191406 13.503906 C 11.777344 11.496094 13.769531 9.851562 16.007812 8.527344 C 16.714844 8.105469 17.457031 7.78125 18.238281 7.535156 C 21.269531 6.570312 24.746094 6.816406 27.78125 7.335938 C 29.226562 7.585938 30.664062 7.90625 32.011719 8.464844 C 34.066406 9.320312 35.875 10.71875 37.398438 12.351562 C 39.414062 14.519531 40.988281 17.207031 41.308594 20.140625 C 41.433594 21.242188 41.382812 22.371094 41.273438 23.472656 Z M 41.273438 23.472656 " fill-opacity="1" fill-rule="nonzero"/><path fill="#cfcaca" d="M 6.070312 15.746094 C 6.179688 15.570312 6.316406 15.386719 6.527344 15.359375 C 6.625 15.792969 6.378906 16.214844 6.167969 16.613281 C 5.847656 17.21875 5.625 17.875 5.402344 18.53125 C 5.300781 18.804688 5.066406 20.054688 4.746094 20.078125 C 4.175781 20.117188 4.472656 19.25 4.535156 19.027344 C 4.894531 17.886719 5.414062 16.75 6.070312 15.746094 Z M 6.070312 15.746094 " fill-opacity="1" fill-rule="nonzero"/><path fill="#cfcaca" d="M 13.222656 7.917969 C 14.945312 6.890625 16.925781 6.285156 18.535156 5.097656 C 17.570312 4.886719 16.601562 5.378906 15.75 5.863281 C 15.425781 6.035156 15.105469 6.222656 14.796875 6.421875 C 13.878906 7.003906 12.863281 7.757812 12.246094 8.664062 C 12.542969 8.363281 12.878906 8.128906 13.222656 7.917969 Z M 13.222656 7.917969 " fill-opacity="1" fill-rule="nonzero"/><path fill="#cfcaca" d="M 39.328125 11.597656 C 40.53125 13.207031 41.332031 15.113281 42.683594 16.597656 C 42.792969 15.621094 42.199219 14.703125 41.632812 13.898438 C 41.421875 13.601562 41.210938 13.304688 40.988281 13.007812 C 40.320312 12.152344 39.464844 11.226562 38.5 10.707031 C 38.808594 10.953125 39.082031 11.261719 39.328125 11.597656 Z M 39.328125 11.597656 " fill-opacity="1" fill-rule="nonzero"/><path fill="#cfcaca" d="M 26.023438 42.554688 C 24.015625 42.453125 22.035156 41.886719 20.03125 41.984375 C 20.726562 42.691406 21.800781 42.800781 22.78125 42.875 C 23.152344 42.902344 23.511719 42.925781 23.882812 42.9375 C 24.96875 42.960938 26.21875 42.886719 27.246094 42.46875 C 26.839844 42.554688 26.429688 42.578125 26.023438 42.554688 Z M 26.023438 42.554688 " fill-opacity="1" fill-rule="nonzero"/><path fill="#62240d" d="M 31.40625 32.089844 C 31.207031 32.523438 30.875 32.871094 30.503906 33.179688 C 29.773438 33.785156 28.917969 34.269531 28.015625 34.59375 C 27.285156 34.851562 26.503906 35 25.835938 35.398438 C 25.230469 35.757812 24.746094 36.300781 24.128906 36.621094 C 23.25 37.082031 22.210938 37.070312 21.234375 36.933594 C 19.90625 36.757812 18.621094 36.414062 17.394531 35.890625 C 16.664062 35.582031 15.945312 35.210938 15.414062 34.628906 C 14.5625 33.699219 14.289062 32.386719 13.953125 31.160156 C 13.371094 28.96875 12.492188 26.828125 11.207031 24.957031 C 10.675781 24.191406 10.066406 23.449219 9.757812 22.566406 C 9.101562 20.625 10.054688 18.542969 10.15625 16.5 C 10.203125 15.496094 10.054688 14.46875 10.15625 13.492188 C 11.738281 11.484375 13.730469 9.839844 15.972656 8.511719 C 16.675781 8.09375 17.421875 7.769531 18.199219 7.523438 C 17.890625 8.5625 16.75 9.292969 16.15625 10.257812 C 15.441406 11.398438 14.980469 12.648438 14.574219 13.9375 C 14.113281 15.496094 13.832031 17.132812 13.953125 18.753906 C 14.078125 20.375 14.621094 22 15.675781 23.238281 C 16.988281 24.773438 18.980469 25.589844 20.972656 25.9375 C 22.964844 26.28125 24.996094 26.207031 27.023438 26.28125 C 27.816406 26.308594 28.648438 26.371094 29.339844 26.765625 C 30.28125 27.3125 30.777344 28.375 31.160156 29.402344 C 31.507812 30.246094 31.789062 31.234375 31.40625 32.089844 Z M 31.40625 32.089844 " fill-opacity="1" fill-rule="nonzero"/><path fill="#62240d" d="M 21.46875 16.316406 C 21.542969 16.871094 21.703125 17.40625 21.886719 17.925781 C 22.023438 18.285156 22.171875 18.644531 22.433594 18.925781 C 22.71875 19.25 23.101562 19.449219 23.511719 19.597656 C 25.03125 20.152344 26.726562 19.929688 28.3125 20.253906 C 29.414062 20.476562 30.453125 20.945312 31.519531 21.292969 C 32.632812 21.640625 33.796875 21.851562 34.972656 21.898438 C 35.167969 21.910156 35.367188 21.910156 35.566406 21.863281 C 35.851562 21.777344 36.097656 21.566406 36.246094 21.316406 C 36.617188 20.710938 36.542969 19.917969 36.222656 19.285156 C 35.898438 18.65625 35.378906 18.160156 34.847656 17.6875 C 33.375 16.390625 31.789062 15.210938 30.21875 14.035156 C 28.027344 12.402344 25.824219 10.765625 23.632812 9.132812 C 23.410156 8.972656 23.078125 8.664062 22.78125 8.648438 C 22.261719 8.613281 22.394531 8.738281 22.382812 9.230469 C 22.371094 10.035156 22.246094 10.828125 22.074219 11.621094 C 21.753906 13.144531 21.257812 14.703125 21.46875 16.316406 Z M 21.46875 16.316406 " fill-opacity="1" fill-rule="nonzero"/><g clip-path="url(#b677113550)"><path fill="#7e6232" d="M 42.558594 5.144531 C 43.191406 5.230469 43.796875 5.503906 44.28125 5.925781 C 44.652344 6.246094 44.960938 6.644531 45.246094 7.039062 C 45.34375 7.164062 45.429688 7.300781 45.503906 7.449219 C 45.578125 7.597656 45.617188 7.769531 45.640625 7.929688 C 45.753906 8.425781 45.839844 8.996094 45.53125 9.394531 C 45.34375 9.628906 45.035156 9.75 44.738281 9.703125 C 44.550781 9.675781 44.378906 9.589844 44.207031 9.492188 C 43.882812 9.320312 43.574219 9.144531 43.265625 8.972656 C 42.78125 8.6875 42.285156 8.378906 41.890625 7.980469 C 41.332031 7.4375 40.960938 6.707031 40.828125 5.949219 C 40.800781 5.839844 40.726562 5.605469 40.789062 5.480469 C 40.863281 5.34375 41.125 5.292969 41.257812 5.246094 C 41.691406 5.121094 42.125 5.082031 42.558594 5.144531 Z M 42.558594 5.144531 " fill-opacity="1" fill-rule="nonzero"/></g><path fill="#a08147" d="M 38.140625 6.496094 C 39.105469 6 40.082031 5.417969 41.160156 5.394531 C 41.308594 6.273438 42.039062 6.941406 42.769531 7.449219 C 43.5 7.957031 44.316406 8.425781 44.800781 9.183594 C 44.886719 9.304688 44.949219 9.46875 44.910156 9.617188 C 44.875 9.726562 44.773438 9.8125 44.675781 9.886719 C 42.90625 11.199219 40.863281 12.117188 38.859375 13.019531 C 38.585938 13.144531 38.289062 13.269531 37.992188 13.257812 C 37.371094 13.230469 36.941406 12.648438 36.53125 12.179688 C 35.703125 11.238281 34.589844 10.59375 33.796875 9.617188 C 33.488281 9.230469 32.980469 8.601562 33.5625 8.265625 C 34.167969 7.90625 35.09375 7.808594 35.777344 7.558594 C 36.570312 7.238281 37.359375 6.890625 38.140625 6.496094 Z M 38.140625 6.496094 " fill-opacity="1" fill-rule="nonzero"/><path fill="#ae5626" d="M 40.652344 16.167969 C 40.554688 16.808594 40.332031 17.492188 39.8125 17.886719 C 39.292969 18.296875 38.597656 18.34375 38.003906 18.617188 C 37.507812 18.839844 37.089844 19.210938 36.816406 19.683594 C 36.421875 20.351562 36.222656 21.269531 35.492188 21.527344 C 35.132812 21.652344 34.738281 21.578125 34.378906 21.476562 C 33.363281 21.195312 32.398438 20.699219 31.554688 20.054688 C 31.234375 19.820312 30.9375 19.546875 30.664062 19.261719 C 30.441406 19.027344 30.207031 18.777344 29.910156 18.65625 C 29.476562 18.480469 28.96875 18.628906 28.574219 18.878906 C 28.4375 18.964844 28.300781 19.0625 28.140625 19.101562 C 27.953125 19.136719 27.753906 19.074219 27.570312 19 C 27.039062 18.777344 26.542969 18.496094 26.097656 18.136719 C 25.738281 17.851562 25.355469 17.492188 24.882812 17.480469 C 24.511719 17.464844 24.164062 17.675781 23.820312 17.8125 C 23.375 17.988281 22.890625 18.023438 22.421875 17.9375 C 22.792969 16.796875 22.125 15.570312 22.285156 14.382812 C 22.382812 13.664062 22.765625 13.035156 22.976562 12.339844 C 23.015625 12.214844 23.039062 12.09375 23.0625 11.96875 C 23.210938 11.101562 22.929688 10.246094 22.59375 9.453125 C 22.210938 8.539062 22.707031 8.453125 23.546875 8.265625 C 23.757812 8.214844 23.96875 8.167969 24.179688 8.128906 C 25.714844 7.820312 27.285156 7.683594 28.855469 7.722656 C 29.316406 7.734375 29.785156 7.757812 30.253906 7.734375 C 30.6875 7.707031 31.121094 7.660156 31.53125 7.511719 C 31.964844 7.347656 32.359375 7.101562 32.78125 6.917969 C 33.414062 6.644531 34.082031 6.519531 34.75 6.410156 C 34.847656 6.394531 34.972656 6.371094 35.046875 6.433594 C 35.121094 6.484375 35.144531 6.582031 35.167969 6.667969 C 35.46875 8.019531 35.207031 9.542969 35.988281 10.679688 C 37.039062 12.214844 39.527344 12.316406 40.40625 13.960938 C 40.765625 14.644531 40.777344 15.421875 40.652344 16.167969 Z M 40.652344 16.167969 " fill-opacity="1" fill-rule="nonzero"/><path fill="#db7533" d="M 32.832031 9.703125 C 32.59375 10.097656 32.074219 10.222656 31.617188 10.257812 C 30.441406 10.371094 29.265625 10.234375 28.089844 10.234375 C 27.296875 10.234375 26.457031 10.496094 25.675781 10.445312 C 24.511719 10.371094 24.03125 9.195312 24.179688 8.117188 C 25.714844 7.808594 27.285156 7.671875 28.855469 7.707031 C 29.316406 7.722656 29.785156 7.746094 30.253906 7.722656 C 30.304688 7.734375 30.367188 7.746094 30.429688 7.757812 C 31.035156 7.871094 31.679688 7.871094 32.222656 8.167969 C 32.742188 8.464844 33.140625 9.183594 32.832031 9.703125 Z M 32.832031 9.703125 " fill-opacity="1" fill-rule="nonzero"/><path fill="#e68f3c" d="M 32 19.199219 C 31.9375 19.523438 31.777344 19.808594 31.554688 20.042969 C 31.234375 19.808594 30.9375 19.535156 30.664062 19.25 C 30.441406 19.015625 30.207031 18.765625 29.910156 18.644531 C 29.476562 18.46875 28.96875 18.617188 28.574219 18.867188 C 28.4375 18.953125 28.300781 19.050781 28.140625 19.089844 C 27.953125 19.125 27.753906 19.0625 27.570312 18.988281 C 27.039062 18.765625 26.542969 18.480469 26.097656 18.121094 C 25.738281 17.835938 25.355469 17.480469 24.882812 17.464844 C 24.511719 17.453125 24.164062 17.664062 23.820312 17.800781 C 23.375 17.972656 22.890625 18.011719 22.421875 17.925781 C 22.792969 16.785156 22.125 15.558594 22.285156 14.371094 C 22.382812 13.652344 22.765625 13.019531 22.976562 12.328125 C 23.003906 12.339844 23.027344 12.351562 23.0625 12.378906 C 23.84375 12.847656 24.117188 13.417969 25.167969 13.503906 C 26.070312 13.578125 26.964844 13.355469 27.855469 13.257812 C 28.472656 13.183594 29.363281 13.09375 29.945312 13.390625 C 30.578125 13.714844 30.566406 14.332031 30.675781 14.953125 C 30.8125 15.71875 31.046875 16.449219 31.40625 17.15625 C 31.714844 17.800781 32.136719 18.496094 32 19.199219 Z M 32 19.199219 " fill-opacity="1" fill-rule="nonzero"/><path fill="#753818" d="M 36.246094 14.605469 C 36.890625 14.121094 37.644531 13.800781 38.386719 13.492188 C 38.609375 13.390625 38.859375 13.292969 39.105469 13.34375 C 39.402344 13.675781 39.21875 14.222656 38.894531 14.53125 C 38.574219 14.839844 38.140625 15.003906 37.792969 15.273438 C 37.238281 15.734375 36.964844 16.4375 36.617188 17.070312 C 36.257812 17.738281 35.777344 18.34375 35.21875 18.867188 C 35.109375 18.964844 34.984375 19.074219 34.847656 19.113281 C 34.699219 19.152344 34.527344 19.113281 34.453125 18.976562 C 34.402344 18.890625 34.414062 18.792969 34.414062 18.691406 C 34.550781 17.046875 34.847656 15.644531 36.246094 14.605469 Z M 36.246094 14.605469 " fill-opacity="1" fill-rule="nonzero"/><path fill="#753818" d="M 34.886719 14.109375 C 34.886719 14.074219 34.871094 14.023438 34.871094 13.988281 C 34.796875 13.949219 34.699219 13.9375 34.613281 13.9375 C 34.574219 13.9375 34.539062 13.9375 34.5 13.960938 C 34.476562 13.988281 34.453125 14.023438 34.464844 14.0625 C 34.476562 14.085938 34.488281 14.097656 34.515625 14.109375 C 34.5625 14.148438 34.613281 14.199219 34.6875 14.210938 C 34.75 14.222656 34.824219 14.199219 34.847656 14.136719 " fill-opacity="1" fill-rule="nonzero"/><path fill="#753818" d="M 34.277344 14.792969 C 34.179688 14.792969 34.09375 14.792969 33.992188 14.792969 C 33.90625 14.964844 33.859375 15.152344 33.84375 15.335938 C 33.84375 15.410156 33.84375 15.496094 33.882812 15.570312 C 33.917969 15.644531 34.007812 15.683594 34.082031 15.660156 C 34.128906 15.644531 34.15625 15.609375 34.191406 15.570312 C 34.277344 15.472656 34.378906 15.359375 34.414062 15.226562 C 34.453125 15.089844 34.414062 14.929688 34.289062 14.855469 " fill-opacity="1" fill-rule="nonzero"/><path fill="#753818" d="M 34.453125 14.730469 C 34.476562 14.730469 34.488281 14.730469 34.515625 14.730469 C 34.539062 14.691406 34.550781 14.65625 34.550781 14.605469 C 34.550781 14.59375 34.550781 14.570312 34.539062 14.554688 C 34.527344 14.542969 34.515625 14.53125 34.488281 14.53125 C 34.476562 14.53125 34.476562 14.542969 34.464844 14.554688 C 34.441406 14.582031 34.414062 14.605469 34.414062 14.628906 C 34.414062 14.65625 34.414062 14.703125 34.441406 14.71875 " fill-opacity="1" fill-rule="nonzero"/><path fill="#753818" d="M 34.140625 14.40625 C 34.140625 14.359375 34.15625 14.320312 34.15625 14.273438 C 34.082031 14.222656 33.992188 14.183594 33.894531 14.171875 C 33.859375 14.171875 33.820312 14.160156 33.785156 14.183594 C 33.746094 14.199219 33.722656 14.234375 33.734375 14.273438 C 33.734375 14.296875 33.757812 14.308594 33.769531 14.332031 C 33.820312 14.382812 33.871094 14.433594 33.933594 14.457031 C 33.992188 14.480469 34.082031 14.46875 34.117188 14.40625 " fill-opacity="1" fill-rule="nonzero"/><path fill="#db7533" d="M 35.304688 14.046875 C 35.304688 14.085938 35.292969 14.136719 35.292969 14.171875 C 35.367188 14.222656 35.441406 14.257812 35.527344 14.273438 C 35.566406 14.285156 35.601562 14.285156 35.640625 14.273438 C 35.675781 14.257812 35.703125 14.222656 35.703125 14.183594 C 35.703125 14.160156 35.691406 14.148438 35.664062 14.121094 C 35.628906 14.074219 35.578125 14.023438 35.515625 14 C 35.453125 13.972656 35.378906 13.972656 35.34375 14.035156 " fill-opacity="1" fill-rule="nonzero"/><path fill="#db7533" d="M 36.046875 13.503906 C 36.136719 13.527344 36.234375 13.539062 36.320312 13.566406 C 36.445312 13.417969 36.53125 13.242188 36.582031 13.070312 C 36.605469 12.996094 36.617188 12.910156 36.59375 12.835938 C 36.570312 12.761719 36.496094 12.699219 36.421875 12.699219 C 36.371094 12.699219 36.332031 12.734375 36.296875 12.761719 C 36.183594 12.847656 36.0625 12.933594 36 13.058594 C 35.9375 13.183594 35.9375 13.355469 36.046875 13.441406 " fill-opacity="1" fill-rule="nonzero"/><path fill="#db7533" d="M 35.875 13.527344 C 35.851562 13.527344 35.839844 13.515625 35.8125 13.515625 C 35.789062 13.554688 35.765625 13.589844 35.75 13.628906 C 35.75 13.640625 35.738281 13.664062 35.75 13.675781 C 35.75 13.691406 35.777344 13.714844 35.789062 13.714844 C 35.800781 13.714844 35.8125 13.703125 35.8125 13.703125 C 35.839844 13.691406 35.863281 13.664062 35.886719 13.640625 C 35.898438 13.617188 35.898438 13.578125 35.875 13.554688 " fill-opacity="1" fill-rule="nonzero"/><path fill="#db7533" d="M 36.097656 13.925781 C 36.085938 13.972656 36.074219 14.011719 36.0625 14.0625 C 36.121094 14.121094 36.210938 14.171875 36.296875 14.210938 C 36.332031 14.222656 36.371094 14.234375 36.40625 14.222656 C 36.445312 14.210938 36.480469 14.183594 36.480469 14.148438 C 36.480469 14.121094 36.46875 14.097656 36.457031 14.085938 C 36.421875 14.023438 36.382812 13.960938 36.332031 13.925781 C 36.285156 13.886719 36.195312 13.875 36.148438 13.925781 " fill-opacity="1" fill-rule="nonzero"/><path fill="#753818" d="M 29.042969 12.203125 C 29.078125 12.152344 29.117188 12.105469 29.167969 12.054688 C 29.117188 11.929688 29.042969 11.832031 28.945312 11.746094 C 28.90625 11.707031 28.855469 11.671875 28.808594 11.671875 C 28.757812 11.660156 28.695312 11.683594 28.671875 11.734375 C 28.660156 11.757812 28.660156 11.796875 28.671875 11.832031 C 28.683594 11.929688 28.695312 12.03125 28.757812 12.105469 C 28.808594 12.179688 28.917969 12.242188 29.003906 12.203125 " fill-opacity="1" fill-rule="nonzero"/><path fill="#753818" d="M 27.695312 12.328125 C 27.59375 12.226562 27.496094 12.140625 27.382812 12.042969 C 27.125 12.140625 26.875 12.289062 26.679688 12.476562 C 26.59375 12.5625 26.519531 12.648438 26.492188 12.761719 C 26.46875 12.871094 26.503906 13.007812 26.617188 13.058594 C 26.679688 13.082031 26.753906 13.082031 26.828125 13.070312 C 27.039062 13.046875 27.246094 13.035156 27.421875 12.921875 C 27.59375 12.808594 27.71875 12.601562 27.65625 12.402344 " fill-opacity="1" fill-rule="nonzero"/><path fill="#753818" d="M 27.941406 12.425781 C 27.964844 12.453125 27.992188 12.476562 28.003906 12.488281 C 28.066406 12.464844 28.113281 12.4375 28.164062 12.390625 C 28.1875 12.378906 28.199219 12.351562 28.214844 12.328125 C 28.226562 12.300781 28.214844 12.265625 28.1875 12.253906 C 28.175781 12.242188 28.152344 12.242188 28.140625 12.253906 C 28.089844 12.253906 28.039062 12.253906 28.003906 12.277344 C 27.964844 12.300781 27.929688 12.351562 27.941406 12.390625 " fill-opacity="1" fill-rule="nonzero"/><path fill="#753818" d="M 27.941406 11.769531 C 27.992188 11.722656 28.039062 11.683594 28.089844 11.632812 C 28.050781 11.496094 27.992188 11.375 27.902344 11.273438 C 27.867188 11.226562 27.828125 11.1875 27.769531 11.164062 C 27.71875 11.152344 27.644531 11.164062 27.621094 11.214844 C 27.605469 11.238281 27.605469 11.273438 27.59375 11.3125 C 27.59375 11.410156 27.59375 11.523438 27.644531 11.609375 C 27.695312 11.695312 27.792969 11.769531 27.890625 11.746094 " fill-opacity="1" fill-rule="nonzero"/><path fill="#db7533" d="M 29.550781 12.5625 C 29.5 12.601562 29.453125 12.636719 29.402344 12.6875 C 29.425781 12.808594 29.476562 12.933594 29.550781 13.046875 C 29.585938 13.09375 29.625 13.132812 29.675781 13.15625 C 29.722656 13.183594 29.785156 13.167969 29.824219 13.121094 C 29.847656 13.09375 29.847656 13.058594 29.847656 13.019531 C 29.859375 12.921875 29.859375 12.824219 29.824219 12.734375 C 29.785156 12.648438 29.699219 12.574219 29.601562 12.585938 " fill-opacity="1" fill-rule="nonzero"/><path fill="#db7533" d="M 30.886719 12.75 C 30.960938 12.859375 31.046875 12.972656 31.121094 13.082031 C 31.394531 13.046875 31.667969 12.960938 31.902344 12.808594 C 32 12.75 32.101562 12.675781 32.148438 12.574219 C 32.199219 12.476562 32.1875 12.328125 32.101562 12.253906 C 32.039062 12.203125 31.964844 12.203125 31.902344 12.191406 C 31.691406 12.167969 31.480469 12.140625 31.28125 12.203125 C 31.085938 12.265625 30.910156 12.453125 30.9375 12.660156 " fill-opacity="1" fill-rule="nonzero"/><path fill="#db7533" d="M 30.675781 12.585938 C 30.664062 12.5625 30.640625 12.539062 30.628906 12.511719 C 30.566406 12.511719 30.503906 12.539062 30.453125 12.574219 C 30.429688 12.585938 30.40625 12.601562 30.390625 12.625 C 30.378906 12.648438 30.378906 12.675781 30.40625 12.699219 C 30.417969 12.710938 30.429688 12.710938 30.453125 12.710938 C 30.503906 12.722656 30.554688 12.722656 30.589844 12.710938 C 30.628906 12.699219 30.675781 12.660156 30.675781 12.613281 " fill-opacity="1" fill-rule="nonzero"/><path fill="#db7533" d="M 30.527344 13.230469 C 30.464844 13.269531 30.417969 13.292969 30.355469 13.332031 C 30.355469 13.464844 30.390625 13.601562 30.453125 13.726562 C 30.480469 13.777344 30.515625 13.824219 30.554688 13.863281 C 30.601562 13.886719 30.675781 13.898438 30.714844 13.851562 C 30.738281 13.824219 30.75 13.789062 30.75 13.75 C 30.777344 13.652344 30.800781 13.554688 30.777344 13.453125 C 30.75 13.355469 30.664062 13.269531 30.566406 13.269531 " fill-opacity="1" fill-rule="nonzero"/><path fill="#753818" d="M 35.28125 16.945312 C 35.316406 16.898438 35.355469 16.847656 35.40625 16.796875 C 35.355469 16.675781 35.28125 16.574219 35.183594 16.488281 C 35.144531 16.449219 35.09375 16.414062 35.046875 16.414062 C 34.996094 16.402344 34.933594 16.425781 34.910156 16.476562 C 34.898438 16.5 34.898438 16.539062 34.910156 16.574219 C 34.921875 16.675781 34.933594 16.773438 34.996094 16.847656 C 35.046875 16.921875 35.15625 16.984375 35.242188 16.945312 " fill-opacity="1" fill-rule="nonzero"/><path fill="#753818" d="M 33.933594 17.070312 C 33.832031 16.972656 33.734375 16.882812 33.621094 16.785156 C 33.363281 16.882812 33.113281 17.03125 32.917969 17.21875 C 32.832031 17.304688 32.757812 17.390625 32.730469 17.503906 C 32.707031 17.613281 32.742188 17.75 32.855469 17.800781 C 32.917969 17.824219 32.992188 17.824219 33.066406 17.8125 C 33.277344 17.789062 33.488281 17.777344 33.660156 17.664062 C 33.832031 17.554688 33.957031 17.34375 33.894531 17.144531 " fill-opacity="1" fill-rule="nonzero"/><path fill="#753818" d="M 34.179688 17.167969 C 34.203125 17.195312 34.230469 17.21875 34.242188 17.230469 C 34.304688 17.207031 34.351562 17.179688 34.402344 17.132812 C 34.425781 17.121094 34.441406 17.09375 34.453125 17.070312 C 34.464844 17.046875 34.453125 17.007812 34.425781 16.996094 C 34.414062 16.984375 34.390625 16.984375 34.378906 16.996094 C 34.328125 16.996094 34.277344 16.996094 34.242188 17.019531 C 34.203125 17.046875 34.167969 17.09375 34.179688 17.132812 " fill-opacity="1" fill-rule="nonzero"/><path fill="#753818" d="M 34.191406 16.511719 C 34.242188 16.464844 34.289062 16.425781 34.339844 16.375 C 34.304688 16.242188 34.242188 16.117188 34.15625 16.015625 C 34.117188 15.96875 34.082031 15.929688 34.019531 15.90625 C 33.96875 15.894531 33.894531 15.90625 33.871094 15.957031 C 33.859375 15.980469 33.859375 16.015625 33.84375 16.054688 C 33.84375 16.152344 33.84375 16.265625 33.894531 16.351562 C 33.945312 16.4375 34.042969 16.511719 34.140625 16.488281 " fill-opacity="1" fill-rule="nonzero"/><path fill="#db7533" d="M 35.789062 17.304688 C 35.738281 17.34375 35.691406 17.378906 35.640625 17.429688 C 35.664062 17.554688 35.714844 17.675781 35.789062 17.789062 C 35.824219 17.835938 35.863281 17.875 35.914062 17.898438 C 35.960938 17.925781 36.023438 17.914062 36.0625 17.863281 C 36.085938 17.835938 36.085938 17.800781 36.085938 17.761719 C 36.097656 17.664062 36.097656 17.566406 36.0625 17.480469 C 36.023438 17.390625 35.9375 17.316406 35.839844 17.332031 " fill-opacity="1" fill-rule="nonzero"/><path fill="#db7533" d="M 37.136719 17.492188 C 37.210938 17.601562 37.296875 17.714844 37.371094 17.824219 C 37.644531 17.789062 37.917969 17.703125 38.152344 17.554688 C 38.25 17.492188 38.351562 17.417969 38.402344 17.316406 C 38.449219 17.207031 38.4375 17.070312 38.351562 16.996094 C 38.289062 16.945312 38.214844 16.945312 38.152344 16.933594 C 37.941406 16.910156 37.730469 16.882812 37.535156 16.945312 C 37.335938 17.007812 37.164062 17.195312 37.1875 17.40625 " fill-opacity="1" fill-rule="nonzero"/><path fill="#db7533" d="M 36.914062 17.332031 C 36.902344 17.304688 36.878906 17.28125 36.867188 17.253906 C 36.804688 17.253906 36.742188 17.28125 36.691406 17.316406 C 36.667969 17.332031 36.644531 17.34375 36.628906 17.367188 C 36.617188 17.390625 36.617188 17.417969 36.644531 17.441406 C 36.65625 17.453125 36.667969 17.453125 36.691406 17.453125 C 36.742188 17.464844 36.792969 17.464844 36.828125 17.453125 C 36.878906 17.441406 36.914062 17.40625 36.914062 17.355469 " fill-opacity="1" fill-rule="nonzero"/><path fill="#db7533" d="M 36.765625 17.972656 C 36.703125 18.011719 36.65625 18.035156 36.59375 18.074219 C 36.59375 18.210938 36.628906 18.34375 36.691406 18.46875 C 36.71875 18.519531 36.753906 18.570312 36.792969 18.605469 C 36.839844 18.628906 36.914062 18.644531 36.953125 18.59375 C 36.976562 18.570312 36.988281 18.53125 36.988281 18.496094 C 37.015625 18.394531 37.039062 18.296875 37.015625 18.195312 C 36.988281 18.097656 36.902344 18.011719 36.804688 18.011719 " fill-opacity="1" fill-rule="nonzero"/><path fill="#db7533" d="M 32.175781 10.582031 C 32.125 10.617188 32.074219 10.65625 32.027344 10.707031 C 32.050781 10.828125 32.101562 10.953125 32.175781 11.0625 C 32.210938 11.113281 32.25 11.152344 32.296875 11.175781 C 32.347656 11.199219 32.410156 11.1875 32.445312 11.140625 C 32.472656 11.113281 32.472656 11.078125 32.472656 11.039062 C 32.484375 10.941406 32.484375 10.839844 32.445312 10.753906 C 32.410156 10.667969 32.324219 10.59375 32.222656 10.605469 " fill-opacity="1" fill-rule="nonzero"/><path fill="#db7533" d="M 33.511719 10.753906 C 33.585938 10.867188 33.671875 10.976562 33.746094 11.089844 C 34.019531 11.050781 34.289062 10.964844 34.527344 10.816406 C 34.625 10.753906 34.722656 10.679688 34.773438 10.582031 C 34.824219 10.46875 34.8125 10.332031 34.722656 10.257812 C 34.664062 10.210938 34.589844 10.210938 34.527344 10.199219 C 34.316406 10.171875 34.105469 10.148438 33.90625 10.210938 C 33.710938 10.273438 33.535156 10.457031 33.5625 10.667969 " fill-opacity="1" fill-rule="nonzero"/><path fill="#db7533" d="M 33.300781 10.605469 C 33.289062 10.582031 33.261719 10.558594 33.25 10.53125 C 33.1875 10.53125 33.128906 10.558594 33.078125 10.59375 C 33.054688 10.605469 33.027344 10.617188 33.015625 10.644531 C 33.003906 10.667969 33.003906 10.691406 33.027344 10.71875 C 33.039062 10.730469 33.054688 10.730469 33.078125 10.730469 C 33.128906 10.742188 33.175781 10.742188 33.214844 10.730469 C 33.261719 10.71875 33.300781 10.679688 33.300781 10.632812 " fill-opacity="1" fill-rule="nonzero"/><path fill="#db7533" d="M 33.152344 11.25 C 33.089844 11.289062 33.039062 11.3125 32.980469 11.347656 C 32.980469 11.484375 33.015625 11.621094 33.078125 11.746094 C 33.101562 11.796875 33.140625 11.84375 33.175781 11.882812 C 33.226562 11.90625 33.300781 11.917969 33.339844 11.871094 C 33.363281 11.84375 33.375 11.808594 33.375 11.769531 C 33.398438 11.671875 33.425781 11.570312 33.398438 11.472656 C 33.375 11.375 33.289062 11.289062 33.1875 11.289062 " fill-opacity="1" fill-rule="nonzero"/><path fill="#db7533" d="M 29.476562 10.816406 C 29.425781 10.855469 29.378906 10.890625 29.328125 10.941406 C 29.351562 11.0625 29.402344 11.1875 29.476562 11.300781 C 29.511719 11.347656 29.550781 11.386719 29.601562 11.410156 C 29.648438 11.4375 29.710938 11.421875 29.75 11.375 C 29.773438 11.347656 29.773438 11.3125 29.773438 11.273438 C 29.785156 11.175781 29.785156 11.078125 29.75 10.988281 C 29.710938 10.902344 29.625 10.828125 29.527344 10.839844 " fill-opacity="1" fill-rule="nonzero"/><path fill="#db7533" d="M 30.8125 10.988281 C 30.886719 11.101562 30.972656 11.214844 31.046875 11.324219 C 31.320312 11.289062 31.59375 11.199219 31.828125 11.050781 C 31.925781 10.988281 32.027344 10.914062 32.074219 10.816406 C 32.125 10.707031 32.113281 10.570312 32.027344 10.496094 C 31.964844 10.445312 31.890625 10.445312 31.828125 10.433594 C 31.617188 10.40625 31.40625 10.382812 31.207031 10.445312 C 31.011719 10.507812 30.835938 10.691406 30.863281 10.902344 " fill-opacity="1" fill-rule="nonzero"/><path fill="#db7533" d="M 30.601562 10.839844 C 30.589844 10.816406 30.566406 10.792969 30.554688 10.765625 C 30.492188 10.765625 30.429688 10.792969 30.378906 10.828125 C 30.355469 10.839844 30.332031 10.855469 30.316406 10.878906 C 30.304688 10.902344 30.304688 10.929688 30.332031 10.953125 C 30.34375 10.964844 30.355469 10.964844 30.378906 10.964844 C 30.429688 10.976562 30.480469 10.976562 30.515625 10.964844 C 30.566406 10.953125 30.601562 10.914062 30.601562 10.867188 " fill-opacity="1" fill-rule="nonzero"/><path fill="#db7533" d="M 30.453125 11.472656 C 30.390625 11.511719 30.34375 11.535156 30.28125 11.570312 C 30.28125 11.707031 30.316406 11.84375 30.378906 11.96875 C 30.40625 12.019531 30.441406 12.066406 30.480469 12.105469 C 30.527344 12.128906 30.601562 12.140625 30.640625 12.09375 C 30.664062 12.066406 30.675781 12.03125 30.675781 11.992188 C 30.703125 11.894531 30.726562 11.796875 30.703125 11.695312 C 30.675781 11.597656 30.589844 11.511719 30.492188 11.511719 " fill-opacity="1" fill-rule="nonzero"/><path fill="#e0b76d" d="M 42.066406 8.078125 C 42.105469 8.152344 42.074219 8.253906 41.972656 8.390625 C 41.871094 8.527344 41.707031 8.683594 41.484375 8.859375 C 41.257812 9.039062 40.992188 9.222656 40.679688 9.414062 C 40.367188 9.605469 40.03125 9.792969 39.679688 9.96875 C 39.324219 10.144531 38.976562 10.304688 38.636719 10.4375 C 38.296875 10.574219 37.988281 10.679688 37.710938 10.753906 C 37.4375 10.828125 37.214844 10.863281 37.042969 10.863281 C 36.875 10.863281 36.773438 10.828125 36.734375 10.753906 C 36.699219 10.679688 36.730469 10.574219 36.832031 10.441406 C 36.933594 10.304688 37.097656 10.148438 37.320312 9.96875 C 37.542969 9.792969 37.8125 9.609375 38.125 9.417969 C 38.4375 9.222656 38.769531 9.039062 39.125 8.863281 C 39.476562 8.683594 39.824219 8.527344 40.164062 8.390625 C 40.507812 8.257812 40.816406 8.152344 41.089844 8.078125 C 41.367188 8.003906 41.589844 7.96875 41.757812 7.96875 C 41.929688 7.96875 42.03125 8.003906 42.066406 8.078125 Z M 42.066406 8.078125 " fill-opacity="1" fill-rule="nonzero"/><path fill="#ac5526" d="M 34.476562 33.785156 C 34.328125 34.109375 34.082031 34.429688 33.722656 34.46875 C 33.488281 34.503906 33.261719 34.40625 33.039062 34.332031 C 30.714844 33.464844 28.164062 33.5625 25.675781 33.664062 C 24.214844 33.726562 21.875 34.046875 22.878906 31.832031 C 23.089844 31.371094 23.375 30.925781 23.71875 30.53125 C 24.476562 29.652344 25.503906 28.957031 26.53125 28.574219 C 28.609375 27.804688 31.046875 28.152344 32.832031 29.464844 C 33.636719 30.058594 34.316406 30.964844 34.574219 31.90625 C 34.761719 32.535156 34.75 33.179688 34.476562 33.785156 Z M 34.476562 33.785156 " fill-opacity="1" fill-rule="nonzero"/><path fill="#db7533" d="M 34.589844 31.90625 C 34.203125 31.929688 33.796875 31.90625 33.425781 31.84375 C 31.46875 31.535156 29.539062 30.9375 27.558594 31.074219 C 26.679688 31.136719 25.800781 31.324219 24.945312 31.148438 C 24.363281 31.027344 23.96875 30.816406 23.71875 30.53125 C 24.390625 29.75 25.28125 29.117188 26.183594 28.710938 C 26.296875 28.660156 26.40625 28.609375 26.53125 28.574219 C 28.609375 27.804688 31.046875 28.152344 32.832031 29.464844 C 33.089844 29.652344 33.339844 29.875 33.5625 30.121094 C 34.03125 30.640625 34.402344 31.261719 34.589844 31.90625 Z M 34.589844 31.90625 " fill-opacity="1" fill-rule="nonzero"/><path fill="#e78e3d" d="M 33.5625 30.121094 C 33.5625 30.132812 33.546875 30.160156 33.546875 30.171875 C 33.523438 30.246094 33.5 30.320312 33.4375 30.355469 C 33.386719 30.394531 33.324219 30.394531 33.261719 30.394531 C 32.621094 30.417969 31.988281 30.445312 31.34375 30.480469 C 30.949219 30.492188 30.539062 30.519531 30.179688 30.371094 C 29.847656 30.246094 29.5625 30.011719 29.226562 29.910156 C 28.734375 29.761719 28.214844 29.921875 27.695312 30.011719 C 27.1875 30.097656 26.578125 30.046875 26.28125 29.625 C 26.097656 29.367188 26.085938 29.019531 26.195312 28.710938 C 26.308594 28.660156 26.417969 28.609375 26.542969 28.574219 C 28.621094 27.804688 31.058594 28.152344 32.84375 29.464844 C 33.089844 29.652344 33.339844 29.875 33.5625 30.121094 Z M 33.5625 30.121094 " fill-opacity="1" fill-rule="nonzero"/><path fill="#ac5526" d="M 18.832031 18.851562 C 18.894531 19.101562 18.90625 19.398438 18.71875 19.582031 C 18.609375 19.707031 18.433594 19.757812 18.273438 19.820312 C 16.554688 20.402344 15.15625 21.640625 13.792969 22.851562 C 13 23.558594 11.8125 24.835938 11.355469 23.101562 C 11.257812 22.742188 11.21875 22.359375 11.230469 21.972656 C 11.257812 21.121094 11.515625 20.265625 11.925781 19.558594 C 12.742188 18.171875 14.300781 17.230469 15.910156 17.144531 C 16.640625 17.105469 17.445312 17.304688 18.027344 17.726562 C 18.421875 18.011719 18.707031 18.382812 18.832031 18.851562 Z M 18.832031 18.851562 " fill-opacity="1" fill-rule="nonzero"/><path fill="#db7533" d="M 18.039062 17.738281 C 17.828125 17.9375 17.59375 18.097656 17.347656 18.234375 C 16.09375 18.964844 14.722656 19.523438 13.65625 20.511719 C 13.1875 20.945312 12.777344 21.464844 12.210938 21.761719 C 11.824219 21.960938 11.492188 22.023438 11.230469 21.972656 C 11.257812 21.21875 11.453125 20.449219 11.789062 19.808594 C 11.824219 19.71875 11.875 19.644531 11.925781 19.570312 C 12.742188 18.183594 14.300781 17.242188 15.910156 17.15625 C 16.144531 17.144531 16.378906 17.15625 16.628906 17.195312 C 17.136719 17.269531 17.628906 17.453125 18.039062 17.738281 Z M 18.039062 17.738281 " fill-opacity="1" fill-rule="nonzero"/><path fill="#e78e3d" d="M 16.628906 17.195312 C 16.628906 17.207031 16.640625 17.21875 16.640625 17.230469 C 16.664062 17.28125 16.675781 17.34375 16.664062 17.390625 C 16.652344 17.429688 16.617188 17.464844 16.589844 17.492188 C 16.246094 17.800781 15.886719 18.109375 15.539062 18.417969 C 15.328125 18.605469 15.105469 18.804688 14.820312 18.902344 C 14.574219 18.988281 14.300781 18.976562 14.066406 19.074219 C 13.71875 19.226562 13.496094 19.558594 13.25 19.84375 C 13 20.128906 12.628906 20.375 12.269531 20.277344 C 12.046875 20.214844 11.875 20.03125 11.800781 19.808594 C 11.835938 19.71875 11.886719 19.644531 11.9375 19.570312 C 12.753906 18.183594 14.3125 17.242188 15.921875 17.15625 C 16.144531 17.144531 16.394531 17.15625 16.628906 17.195312 Z M 16.628906 17.195312 " fill-opacity="1" fill-rule="nonzero"/><path fill="#ac5526" d="M 33.003906 23.757812 C 33.054688 23.855469 33.078125 23.96875 33.027344 24.066406 C 32.992188 24.128906 32.929688 24.164062 32.867188 24.203125 C 32.222656 24.597656 31.777344 25.21875 31.34375 25.824219 C 31.085938 26.183594 30.726562 26.804688 30.390625 26.148438 C 30.316406 26.011719 30.269531 25.863281 30.242188 25.699219 C 30.179688 25.355469 30.207031 24.984375 30.304688 24.671875 C 30.515625 24.042969 31.046875 23.523438 31.691406 23.347656 C 31.988281 23.261719 32.324219 23.273438 32.59375 23.386719 C 32.769531 23.460938 32.917969 23.582031 33.003906 23.757812 Z M 33.003906 23.757812 " fill-opacity="1" fill-rule="nonzero"/><path fill="#db7533" d="M 32.582031 23.386719 C 32.519531 23.484375 32.433594 23.570312 32.347656 23.644531 C 31.914062 24.054688 31.40625 24.402344 31.074219 24.894531 C 30.925781 25.117188 30.800781 25.367188 30.601562 25.527344 C 30.464844 25.640625 30.34375 25.699219 30.230469 25.699219 C 30.167969 25.390625 30.179688 25.070312 30.253906 24.773438 C 30.269531 24.734375 30.28125 24.699219 30.292969 24.660156 C 30.503906 24.03125 31.035156 23.507812 31.679688 23.335938 C 31.777344 23.3125 31.863281 23.296875 31.964844 23.285156 C 32.175781 23.273438 32.398438 23.3125 32.582031 23.386719 Z M 32.582031 23.386719 " fill-opacity="1" fill-rule="nonzero"/><path fill="#e78e3d" d="M 31.964844 23.296875 C 31.976562 23.296875 31.976562 23.296875 31.964844 23.296875 C 31.988281 23.324219 32 23.347656 32 23.371094 C 32 23.386719 31.988281 23.410156 31.976562 23.421875 C 31.863281 23.582031 31.753906 23.730469 31.640625 23.894531 C 31.566406 23.992188 31.507812 24.089844 31.394531 24.152344 C 31.308594 24.214844 31.195312 24.226562 31.109375 24.289062 C 30.984375 24.375 30.925781 24.535156 30.851562 24.671875 C 30.777344 24.808594 30.652344 24.945312 30.492188 24.933594 C 30.390625 24.933594 30.304688 24.871094 30.253906 24.785156 C 30.269531 24.746094 30.28125 24.710938 30.292969 24.671875 C 30.503906 24.042969 31.035156 23.523438 31.679688 23.347656 C 31.765625 23.324219 31.863281 23.296875 31.964844 23.296875 Z M 31.964844 23.296875 " fill-opacity="1" fill-rule="nonzero"/><path fill="#976347" d="M 29.078125 40.113281 C 29.078125 40.113281 36.941406 37.910156 40.035156 27.285156 C 40.035156 27.285156 36.308594 36.96875 29.078125 40.113281 Z M 29.078125 40.113281 " fill-opacity="1" fill-rule="nonzero"/><path fill="#976347" d="M 36.765625 29.652344 C 36.765625 29.652344 35.628906 33.476562 32.78125 35.347656 C 32.769531 35.359375 36.519531 34.121094 36.765625 29.652344 Z M 36.765625 29.652344 " fill-opacity="1" fill-rule="nonzero"/><path fill="#976347" d="M 27.097656 39.011719 C 27.433594 39.011719 27.792969 39 28.050781 38.800781 C 28.335938 38.589844 28.425781 38.207031 28.609375 37.910156 C 28.757812 37.675781 28.980469 37.476562 29.226562 37.351562 C 29.464844 37.242188 29.734375 37.179688 29.972656 37.054688 C 30.207031 36.917969 30.390625 36.660156 30.332031 36.398438 C 30.242188 36.078125 29.835938 35.980469 29.5 35.941406 C 29.03125 35.890625 28.523438 35.84375 28.101562 36.066406 C 27.71875 36.261719 27.472656 36.636719 27.125 36.882812 C 26.789062 37.117188 26.371094 37.230469 25.972656 37.339844 C 25.578125 37.453125 25.15625 37.5625 24.820312 37.8125 C 24.300781 38.207031 24.128906 38.828125 24.785156 39.023438 C 25.417969 39.199219 26.417969 39.011719 27.097656 39.011719 Z M 27.097656 39.011719 " fill-opacity="1" fill-rule="nonzero"/><path fill="#976347" d="M 8.558594 29.117188 C 8.828125 30.207031 9.472656 31.175781 10.167969 32.054688 C 10.511719 32.488281 10.871094 32.921875 11.257812 33.328125 C 11.492188 33.578125 11.898438 33.429688 11.9375 33.09375 C 12 32.386719 11.9375 31.695312 11.480469 31.1875 C 11.242188 30.9375 10.945312 30.765625 10.6875 30.53125 C 9.671875 29.601562 10.179688 28.128906 9.460938 27.175781 C 9.238281 26.878906 8.84375 26.667969 8.496094 26.976562 C 8.113281 27.359375 8.445312 28.683594 8.558594 29.117188 Z M 8.558594 29.117188 " fill-opacity="1" fill-rule="nonzero"/><path fill="#ae5626" d="M 23.335938 29.847656 C 23.335938 30.503906 23.039062 31.136719 22.632812 31.65625 C 22.222656 32.175781 21.714844 32.609375 21.246094 33.070312 C 20.105469 34.144531 19.101562 35.347656 18.273438 36.671875 C 18.226562 36.757812 18.164062 36.84375 18.113281 36.917969 C 17.828125 37.378906 17.542969 37.835938 17.183594 38.21875 C 17.0625 38.34375 16.9375 38.46875 16.789062 38.578125 C 16.429688 38.863281 15.996094 39.0625 15.539062 39.097656 C 14.671875 39.160156 13.855469 38.605469 12.988281 38.589844 C 12.554688 38.578125 11.984375 38.628906 11.824219 38.234375 C 11.761719 38.082031 11.789062 37.921875 11.738281 37.773438 C 11.652344 37.5625 11.429688 37.441406 11.21875 37.339844 C 9.707031 36.609375 7.371094 36.078125 6.847656 34.320312 C 6.6875 33.773438 6.527344 33.230469 6.441406 32.671875 C 6.355469 32.152344 6.328125 31.632812 6.441406 31.113281 C 6.550781 30.59375 6.773438 30.097656 7.035156 29.640625 C 7.457031 28.871094 7.976562 28.152344 8.59375 27.535156 C 9.238281 26.878906 9.992188 26.34375 10.847656 26 C 11.640625 25.675781 12.507812 25.539062 13.25 25.117188 C 13.855469 24.785156 14.363281 24.289062 15.007812 24.03125 C 15.761719 23.730469 16.601562 23.792969 17.40625 23.953125 C 18.039062 24.078125 18.65625 24.253906 19.253906 24.488281 C 19.859375 24.710938 20.441406 24.996094 20.984375 25.328125 C 21.269531 25.503906 21.566406 25.6875 21.777344 25.949219 C 21.800781 25.972656 21.828125 26 21.851562 26.035156 C 22.097656 26.371094 22.210938 26.789062 22.359375 27.1875 C 22.679688 28.054688 23.324219 28.882812 23.335938 29.847656 Z M 23.335938 29.847656 " fill-opacity="1" fill-rule="nonzero"/><path fill="#81391b" d="M 16.789062 38.578125 C 16.429688 38.863281 15.996094 39.0625 15.539062 39.097656 C 14.671875 39.160156 13.855469 38.605469 12.988281 38.589844 C 12.554688 38.578125 11.984375 38.628906 11.824219 38.234375 C 11.761719 38.082031 11.789062 37.921875 11.738281 37.773438 C 11.652344 37.5625 11.429688 37.441406 11.21875 37.339844 C 9.707031 36.609375 7.371094 36.078125 6.847656 34.320312 C 6.6875 33.773438 6.527344 33.230469 6.441406 32.671875 C 7.222656 31.421875 8.457031 30.617188 10.304688 30.628906 C 11.554688 30.628906 12.878906 30.714844 13.878906 31.445312 C 14.597656 31.980469 15.042969 32.773438 15.476562 33.550781 C 15.996094 34.480469 16.515625 35.410156 16.765625 36.4375 C 16.925781 37.128906 16.960938 37.886719 16.789062 38.578125 Z M 16.789062 38.578125 " fill-opacity="1" fill-rule="nonzero"/><path fill="#c8a550" d="M 9.324219 34.703125 C 9.472656 34.34375 9.683594 33.9375 10.066406 33.847656 C 10.214844 33.8125 10.378906 33.847656 10.527344 33.875 C 11.046875 33.984375 11.539062 34.183594 12 34.46875 C 12.195312 34.59375 12.394531 34.726562 12.519531 34.925781 C 12.851562 35.484375 12.507812 36.175781 12.183594 36.746094 C 11.675781 37.652344 11.28125 38.605469 10.972656 39.59375 C 10.835938 40.027344 10.625 40.558594 10.179688 40.609375 C 9.648438 40.660156 8.792969 39.992188 8.398438 39.667969 C 8.023438 39.371094 7.789062 39.050781 7.800781 38.566406 C 7.816406 37.960938 8.210938 37.328125 8.433594 36.785156 C 8.71875 36.113281 8.941406 35.324219 9.324219 34.703125 Z M 9.324219 34.703125 " fill-opacity="1" fill-rule="nonzero"/><path fill="#e68f3c" d="M 19.214844 24.460938 C 18.992188 24.785156 18.695312 25.042969 18.347656 25.21875 C 17.816406 25.476562 17.199219 25.527344 16.691406 25.835938 C 16.320312 26.058594 16.035156 26.417969 15.699219 26.714844 C 15.277344 27.085938 14.785156 27.359375 14.300781 27.632812 C 13.632812 28.003906 12.851562 28.386719 12.121094 28.128906 C 11.875 28.042969 11.664062 27.894531 11.429688 27.78125 C 10.722656 27.460938 9.523438 27.65625 8.570312 27.519531 C 9.214844 26.863281 9.96875 26.332031 10.824219 25.984375 C 11.613281 25.664062 12.480469 25.527344 13.222656 25.105469 C 13.832031 24.773438 14.339844 24.277344 14.980469 24.015625 C 15.738281 23.71875 16.578125 23.78125 17.382812 23.941406 C 18 24.066406 18.621094 24.238281 19.214844 24.460938 Z M 19.214844 24.460938 " fill-opacity="1" fill-rule="nonzero"/><path fill="#d8762f" d="M 23.335938 29.847656 C 23.335938 30.503906 23.039062 31.136719 22.632812 31.65625 C 22.222656 32.175781 21.714844 32.609375 21.246094 33.070312 C 20.105469 34.144531 19.101562 35.347656 18.273438 36.671875 C 18.226562 36.757812 18.164062 36.84375 18.113281 36.917969 C 17.679688 36.472656 17.480469 35.78125 17.421875 35.136719 C 17.332031 34.320312 17.371094 33.453125 17 32.710938 C 16.75 32.214844 16.34375 31.816406 16.121094 31.324219 C 15.625 30.246094 16.195312 28.820312 17.296875 28.375 C 17.804688 28.175781 18.410156 28.140625 18.792969 27.746094 C 19.003906 27.519531 19.117188 27.210938 19.277344 26.964844 C 19.746094 26.257812 20.800781 25.9375 21.765625 25.910156 C 21.789062 25.9375 21.8125 25.960938 21.839844 26 C 22.085938 26.332031 22.199219 26.753906 22.347656 27.148438 C 22.679688 28.054688 23.324219 28.882812 23.335938 29.847656 Z M 23.335938 29.847656 " fill-opacity="1" fill-rule="nonzero"/><path fill="#e68f3c" d="M 18.136719 30.953125 C 18.507812 30.097656 19.609375 29.863281 20.265625 29.191406 C 20.464844 28.984375 20.738281 28.710938 20.984375 28.847656 C 21.097656 28.90625 21.15625 29.042969 21.207031 29.167969 C 21.308594 29.402344 21.40625 29.664062 21.382812 29.910156 C 21.320312 30.753906 20.15625 31.085938 19.90625 31.890625 C 19.722656 32.5 19.5 33.761719 18.496094 33.453125 C 17.703125 33.21875 17.878906 31.558594 18.136719 30.953125 Z M 18.136719 30.953125 " fill-opacity="1" fill-rule="nonzero"/><path fill="#753818" d="M 12.988281 28.488281 C 13.039062 28.425781 13.101562 28.351562 13.148438 28.289062 C 13.085938 28.128906 12.976562 27.992188 12.851562 27.878906 C 12.804688 27.832031 12.742188 27.78125 12.667969 27.78125 C 12.59375 27.769531 12.519531 27.804688 12.492188 27.867188 C 12.480469 27.90625 12.480469 27.953125 12.492188 27.992188 C 12.519531 28.117188 12.53125 28.238281 12.605469 28.351562 C 12.679688 28.449219 12.816406 28.523438 12.925781 28.476562 " fill-opacity="1" fill-rule="nonzero"/><path fill="#753818" d="M 11.21875 28.648438 C 11.082031 28.523438 10.945312 28.402344 10.824219 28.277344 C 10.476562 28.402344 10.15625 28.597656 9.894531 28.859375 C 9.78125 28.96875 9.683594 29.09375 9.648438 29.242188 C 9.609375 29.390625 9.671875 29.578125 9.808594 29.640625 C 9.894531 29.675781 9.992188 29.675781 10.078125 29.664062 C 10.351562 29.640625 10.636719 29.613281 10.859375 29.464844 C 11.09375 29.328125 11.257812 29.03125 11.167969 28.773438 " fill-opacity="1" fill-rule="nonzero"/><path fill="#753818" d="M 11.539062 28.785156 C 11.566406 28.808594 11.601562 28.847656 11.628906 28.871094 C 11.703125 28.847656 11.777344 28.808594 11.835938 28.746094 C 11.863281 28.722656 11.886719 28.699219 11.898438 28.660156 C 11.910156 28.625 11.898438 28.585938 11.863281 28.574219 C 11.835938 28.5625 11.824219 28.5625 11.800781 28.5625 C 11.738281 28.5625 11.675781 28.574219 11.628906 28.597656 C 11.578125 28.625 11.527344 28.699219 11.554688 28.746094 " fill-opacity="1" fill-rule="nonzero"/><path fill="#753818" d="M 11.554688 27.917969 C 11.613281 27.855469 11.6875 27.792969 11.75 27.746094 C 11.703125 27.570312 11.628906 27.410156 11.515625 27.273438 C 11.464844 27.210938 11.417969 27.164062 11.34375 27.136719 C 11.269531 27.113281 11.183594 27.136719 11.144531 27.199219 C 11.121094 27.238281 11.121094 27.285156 11.121094 27.335938 C 11.121094 27.472656 11.121094 27.609375 11.183594 27.71875 C 11.242188 27.84375 11.367188 27.929688 11.503906 27.90625 " fill-opacity="1" fill-rule="nonzero"/><path fill="#db7533" d="M 13.570312 26.65625 C 13.507812 26.703125 13.433594 26.753906 13.371094 26.816406 C 13.410156 26.976562 13.472656 27.136719 13.570312 27.285156 C 13.609375 27.347656 13.65625 27.398438 13.730469 27.433594 C 13.792969 27.460938 13.878906 27.445312 13.929688 27.386719 C 13.953125 27.347656 13.953125 27.296875 13.964844 27.261719 C 13.980469 27.136719 13.980469 27 13.929688 26.890625 C 13.878906 26.777344 13.757812 26.679688 13.632812 26.703125 " fill-opacity="1" fill-rule="nonzero"/><path fill="#db7533" d="M 15.328125 26.902344 C 15.425781 27.050781 15.539062 27.199219 15.636719 27.347656 C 15.996094 27.296875 16.355469 27.175781 16.664062 26.988281 C 16.800781 26.914062 16.925781 26.816406 17 26.667969 C 17.0625 26.53125 17.046875 26.34375 16.9375 26.246094 C 16.863281 26.183594 16.765625 26.171875 16.675781 26.160156 C 16.40625 26.121094 16.132812 26.085938 15.871094 26.171875 C 15.613281 26.257812 15.390625 26.507812 15.414062 26.777344 " fill-opacity="1" fill-rule="nonzero"/><path fill="#db7533" d="M 15.054688 26.691406 C 15.03125 26.65625 15.007812 26.617188 14.992188 26.59375 C 14.90625 26.605469 14.832031 26.628906 14.757812 26.667969 C 14.734375 26.679688 14.695312 26.703125 14.683594 26.742188 C 14.671875 26.765625 14.671875 26.816406 14.695312 26.839844 C 14.710938 26.851562 14.734375 26.851562 14.757812 26.863281 C 14.820312 26.878906 14.882812 26.890625 14.945312 26.863281 C 15.007812 26.839844 15.054688 26.789062 15.054688 26.730469 " fill-opacity="1" fill-rule="nonzero"/><path fill="#db7533" d="M 14.859375 27.535156 C 14.785156 27.570312 14.710938 27.621094 14.621094 27.65625 C 14.621094 27.832031 14.671875 28.015625 14.746094 28.175781 C 14.785156 28.238281 14.820312 28.3125 14.882812 28.351562 C 14.945312 28.386719 15.042969 28.386719 15.09375 28.339844 C 15.128906 28.300781 15.128906 28.265625 15.144531 28.214844 C 15.167969 28.089844 15.203125 27.953125 15.167969 27.820312 C 15.128906 27.683594 15.03125 27.570312 14.894531 27.570312 " fill-opacity="1" fill-rule="nonzero"/><path fill="#753818" d="M 16.492188 29.949219 C 16.542969 29.886719 16.601562 29.8125 16.652344 29.75 C 16.589844 29.589844 16.480469 29.453125 16.355469 29.339844 C 16.304688 29.292969 16.246094 29.242188 16.171875 29.242188 C 16.09375 29.230469 16.019531 29.265625 15.996094 29.328125 C 15.984375 29.367188 15.984375 29.414062 15.996094 29.453125 C 16.019531 29.578125 16.035156 29.699219 16.109375 29.8125 C 16.183594 29.910156 16.320312 29.984375 16.429688 29.9375 " fill-opacity="1" fill-rule="nonzero"/><path fill="#753818" d="M 14.710938 30.109375 C 14.574219 29.984375 14.4375 29.863281 14.3125 29.738281 C 13.964844 29.863281 13.644531 30.058594 13.386719 30.320312 C 13.273438 30.429688 13.175781 30.554688 13.136719 30.703125 C 13.101562 30.851562 13.164062 31.039062 13.296875 31.101562 C 13.386719 31.136719 13.484375 31.136719 13.570312 31.125 C 13.84375 31.101562 14.128906 31.074219 14.351562 30.925781 C 14.585938 30.789062 14.746094 30.492188 14.660156 30.234375 " fill-opacity="1" fill-rule="nonzero"/><path fill="#753818" d="M 15.03125 30.246094 C 15.054688 30.269531 15.09375 30.308594 15.117188 30.332031 C 15.191406 30.308594 15.265625 30.269531 15.328125 30.207031 C 15.351562 30.183594 15.378906 30.160156 15.390625 30.121094 C 15.402344 30.085938 15.390625 30.046875 15.351562 30.035156 C 15.328125 30.023438 15.316406 30.023438 15.292969 30.023438 C 15.230469 30.023438 15.167969 30.035156 15.117188 30.058594 C 15.066406 30.085938 15.019531 30.160156 15.042969 30.207031 " fill-opacity="1" fill-rule="nonzero"/><path fill="#753818" d="M 15.042969 29.378906 C 15.105469 29.316406 15.179688 29.253906 15.242188 29.207031 C 15.191406 29.03125 15.117188 28.871094 15.007812 28.734375 C 14.957031 28.671875 14.90625 28.625 14.832031 28.597656 C 14.757812 28.574219 14.671875 28.597656 14.636719 28.660156 C 14.609375 28.699219 14.609375 28.746094 14.609375 28.796875 C 14.609375 28.933594 14.609375 29.070312 14.671875 29.179688 C 14.734375 29.304688 14.859375 29.390625 14.992188 29.367188 " fill-opacity="1" fill-rule="nonzero"/><path fill="#db7533" d="M 14.164062 36.3125 C 14.164062 36.398438 14.152344 36.488281 14.152344 36.5625 C 14.300781 36.648438 14.460938 36.710938 14.636719 36.722656 C 14.710938 36.734375 14.785156 36.734375 14.84375 36.695312 C 14.90625 36.660156 14.957031 36.597656 14.945312 36.523438 C 14.933594 36.488281 14.90625 36.449219 14.871094 36.414062 C 14.785156 36.324219 14.683594 36.226562 14.574219 36.1875 C 14.449219 36.152344 14.300781 36.175781 14.238281 36.277344 " fill-opacity="1" fill-rule="nonzero"/><path fill="#db7533" d="M 15.515625 35.148438 C 15.699219 35.175781 15.871094 35.1875 16.058594 35.210938 C 16.269531 34.914062 16.40625 34.566406 16.46875 34.195312 C 16.492188 34.046875 16.503906 33.886719 16.441406 33.738281 C 16.378906 33.589844 16.230469 33.476562 16.082031 33.503906 C 15.996094 33.515625 15.910156 33.589844 15.847656 33.636719 C 15.636719 33.8125 15.425781 34.011719 15.328125 34.257812 C 15.21875 34.503906 15.253906 34.839844 15.476562 35 " fill-opacity="1" fill-rule="nonzero"/><path fill="#db7533" d="M 15.179688 35.222656 C 15.144531 35.222656 15.09375 35.210938 15.054688 35.210938 C 15.007812 35.273438 14.96875 35.359375 14.957031 35.433594 C 14.945312 35.472656 14.945312 35.507812 14.957031 35.53125 C 14.96875 35.558594 15.007812 35.59375 15.03125 35.582031 C 15.054688 35.582031 15.066406 35.570312 15.082031 35.558594 C 15.128906 35.519531 15.179688 35.484375 15.203125 35.421875 C 15.230469 35.371094 15.230469 35.285156 15.179688 35.25 " fill-opacity="1" fill-rule="nonzero"/><path fill="#db7533" d="M 15.675781 35.929688 C 15.648438 36.015625 15.636719 36.101562 15.613281 36.1875 C 15.75 36.300781 15.910156 36.386719 16.082031 36.4375 C 16.15625 36.460938 16.230469 36.472656 16.304688 36.449219 C 16.378906 36.425781 16.441406 36.363281 16.429688 36.289062 C 16.429688 36.238281 16.394531 36.203125 16.367188 36.164062 C 16.292969 36.054688 16.207031 35.941406 16.09375 35.878906 C 15.984375 35.816406 15.8125 35.816406 15.738281 35.917969 " fill-opacity="1" fill-rule="nonzero"/><path fill="#4e883e" d="M 28.746094 22.332031 C 28.695312 22.332031 28.660156 22.320312 28.648438 22.320312 L 28.671875 22.195312 C 28.695312 22.195312 29.253906 22.296875 29.710938 21.417969 L 29.824219 21.476562 C 29.4375 22.234375 28.957031 22.332031 28.746094 22.332031 Z M 28.746094 22.332031 " fill-opacity="1" fill-rule="nonzero"/><path fill="#c32a27" d="M 22 22.40625 C 21.9375 22.382812 21.960938 22.296875 22.023438 22.308594 C 22.78125 22.40625 23.535156 22.46875 24.300781 22.507812 C 25.082031 22.542969 25.847656 22.605469 26.628906 22.542969 C 27.160156 22.507812 27.707031 22.40625 28.1875 22.171875 C 28.511719 22.023438 28.957031 21.738281 29.242188 22.132812 C 29.4375 22.417969 29.152344 22.730469 28.945312 22.914062 C 28.066406 23.746094 23.300781 22.964844 22 22.40625 Z M 22 22.40625 " fill-opacity="1" fill-rule="nonzero"/><path fill="#4e883e" d="M 28.929688 24.535156 C 28.523438 24.535156 28.324219 24.328125 28.3125 24.3125 L 28.398438 24.226562 C 28.410156 24.238281 28.820312 24.648438 29.699219 24.191406 L 29.761719 24.300781 C 29.425781 24.488281 29.152344 24.535156 28.929688 24.535156 Z M 28.929688 24.535156 " fill-opacity="1" fill-rule="nonzero"/><path fill="#c32a27" d="M 22.828125 20.539062 C 22.792969 20.488281 22.867188 20.425781 22.914062 20.476562 C 23.472656 20.996094 24.054688 21.476562 24.660156 21.949219 C 25.269531 22.433594 25.875 22.925781 26.542969 23.324219 C 27 23.597656 27.507812 23.832031 28.039062 23.917969 C 28.386719 23.980469 28.917969 24.003906 28.917969 24.5 C 28.917969 24.847656 28.5 24.933594 28.226562 24.96875 C 27.011719 25.144531 23.570312 21.75 22.828125 20.539062 Z M 22.828125 20.539062 " fill-opacity="1" fill-rule="nonzero"/><path fill="#4e883e" d="M 27.792969 25.007812 C 27.382812 25.007812 27.1875 24.796875 27.171875 24.785156 L 27.261719 24.699219 C 27.273438 24.710938 27.679688 25.117188 28.558594 24.660156 L 28.621094 24.773438 C 28.273438 24.945312 28.003906 25.007812 27.792969 25.007812 Z M 27.792969 25.007812 " fill-opacity="1" fill-rule="nonzero"/><path fill="#c32a27" d="M 21.691406 21.007812 C 21.652344 20.957031 21.726562 20.894531 21.777344 20.945312 C 22.335938 21.464844 22.914062 21.949219 23.523438 22.417969 C 24.128906 22.902344 24.734375 23.398438 25.402344 23.792969 C 25.863281 24.066406 26.371094 24.300781 26.902344 24.386719 C 27.246094 24.449219 27.78125 24.476562 27.78125 24.96875 C 27.78125 25.316406 27.359375 25.402344 27.085938 25.441406 C 25.863281 25.613281 22.421875 22.210938 21.691406 21.007812 Z M 21.691406 21.007812 " fill-opacity="1" fill-rule="nonzero"/><path fill="#2e6c35" d="M 35.394531 27.980469 C 35.394531 27.980469 35.316406 26.59375 35.9375 26 L 36.222656 26.519531 C 36.222656 26.519531 36.519531 25.800781 37.015625 25.640625 C 37.015625 25.640625 37.398438 26.269531 37.261719 26.730469 C 37.261719 26.730469 37.347656 27.386719 36.792969 27.496094 C 36.792969 27.496094 36.964844 27.980469 36.792969 28.25 C 36.617188 28.523438 35.765625 27.992188 35.765625 27.992188 Z M 35.394531 27.980469 " fill-opacity="1" fill-rule="nonzero"/><path fill="#70983e" d="M 34.910156 28.414062 C 35.292969 28.066406 35.652344 27.695312 36 27.324219 C 36.171875 27.136719 36.34375 26.9375 36.507812 26.730469 C 36.667969 26.53125 36.816406 26.320312 36.925781 26.085938 C 36.828125 26.320312 36.679688 26.542969 36.53125 26.753906 C 36.382812 26.964844 36.222656 27.164062 36.046875 27.359375 C 35.714844 27.757812 35.355469 28.140625 34.996094 28.5 Z M 34.910156 28.414062 " fill-opacity="1" fill-rule="nonzero"/><path fill="#70983e" d="M 35.714844 27.667969 C 35.777344 27.507812 35.839844 27.335938 35.875 27.175781 C 35.898438 27.085938 35.914062 27 35.925781 26.914062 C 35.9375 26.828125 35.949219 26.742188 35.9375 26.65625 C 35.949219 26.742188 35.949219 26.828125 35.9375 26.914062 C 35.925781 27 35.914062 27.085938 35.886719 27.175781 C 35.851562 27.347656 35.800781 27.519531 35.738281 27.683594 Z M 35.714844 27.667969 " fill-opacity="1" fill-rule="nonzero"/><path fill="#70983e" d="M 35.960938 27.386719 C 36.085938 27.324219 36.222656 27.261719 36.359375 27.210938 C 36.496094 27.164062 36.628906 27.125 36.765625 27.101562 C 36.628906 27.125 36.496094 27.175781 36.359375 27.222656 C 36.222656 27.273438 36.097656 27.335938 35.972656 27.410156 Z M 35.960938 27.386719 " fill-opacity="1" fill-rule="nonzero"/><path fill="#2e6c35" d="M 34.550781 28.042969 C 34.550781 28.042969 34.625 26.65625 34.007812 26.058594 L 33.722656 26.582031 C 33.722656 26.582031 33.425781 25.863281 32.929688 25.699219 C 32.929688 25.699219 32.546875 26.332031 32.683594 26.789062 C 32.683594 26.789062 32.59375 27.445312 33.152344 27.558594 C 33.152344 27.558594 32.980469 28.042969 33.152344 28.3125 C 33.324219 28.585938 34.179688 28.054688 34.179688 28.054688 Z M 34.550781 28.042969 " fill-opacity="1" fill-rule="nonzero"/><path fill="#70983e" d="M 34.945312 28.5625 C 34.574219 28.191406 34.230469 27.820312 33.894531 27.421875 C 33.722656 27.222656 33.5625 27.027344 33.414062 26.816406 C 33.261719 26.605469 33.113281 26.382812 33.015625 26.148438 C 33.128906 26.382812 33.277344 26.59375 33.4375 26.789062 C 33.597656 26.988281 33.757812 27.1875 33.945312 27.386719 C 34.289062 27.769531 34.664062 28.128906 35.035156 28.476562 Z M 34.945312 28.5625 " fill-opacity="1" fill-rule="nonzero"/><path fill="#70983e" d="M 34.203125 27.730469 C 34.140625 27.570312 34.09375 27.398438 34.054688 27.222656 C 34.03125 27.136719 34.019531 27.050781 34.007812 26.964844 C 33.992188 26.878906 33.992188 26.789062 34.007812 26.703125 C 33.992188 26.789062 34.007812 26.878906 34.019531 26.964844 C 34.03125 27.050781 34.042969 27.136719 34.066406 27.222656 C 34.117188 27.398438 34.167969 27.558594 34.230469 27.71875 Z M 34.203125 27.730469 " fill-opacity="1" fill-rule="nonzero"/><path fill="#70983e" d="M 33.96875 27.472656 C 33.84375 27.410156 33.722656 27.347656 33.585938 27.285156 C 33.449219 27.238281 33.324219 27.1875 33.175781 27.164062 C 33.3125 27.175781 33.449219 27.222656 33.585938 27.273438 C 33.722656 27.324219 33.84375 27.371094 33.980469 27.445312 Z M 33.96875 27.472656 " fill-opacity="1" fill-rule="nonzero"/><path fill="#2e6c35" d="M 11.378906 17.8125 C 11.378906 17.8125 12.839844 19.074219 12.828125 20.253906 L 12.035156 20.042969 C 12.035156 20.042969 12.457031 21.03125 12.160156 21.664062 C 12.160156 21.664062 11.15625 21.441406 10.835938 20.859375 C 10.835938 20.859375 10.09375 20.3125 10.511719 19.644531 C 10.511719 19.644531 9.855469 19.347656 9.757812 18.914062 C 9.648438 18.480469 11.007812 18.136719 11.007812 18.136719 Z M 11.378906 17.8125 " fill-opacity="1" fill-rule="nonzero"/><path fill="#70983e" d="M 11.40625 16.921875 C 11.390625 17.640625 11.417969 18.359375 11.464844 19.0625 C 11.492188 19.421875 11.527344 19.78125 11.578125 20.128906 C 11.628906 20.476562 11.703125 20.835938 11.824219 21.167969 C 11.6875 20.835938 11.613281 20.488281 11.539062 20.128906 C 11.480469 19.769531 11.429688 19.421875 11.390625 19.0625 C 11.316406 18.34375 11.28125 17.628906 11.269531 16.910156 Z M 11.40625 16.921875 " fill-opacity="1" fill-rule="nonzero"/><path fill="#70983e" d="M 11.390625 18.445312 C 11.492188 18.667969 11.601562 18.878906 11.738281 19.089844 C 11.800781 19.1875 11.875 19.300781 11.949219 19.386719 C 12.023438 19.484375 12.109375 19.570312 12.210938 19.644531 C 12.109375 19.570312 12.023438 19.484375 11.949219 19.386719 C 11.875 19.285156 11.800781 19.1875 11.738281 19.089844 C 11.601562 18.878906 11.492188 18.667969 11.378906 18.445312 Z M 11.390625 18.445312 " fill-opacity="1" fill-rule="nonzero"/><path fill="#70983e" d="M 11.429688 18.953125 C 11.367188 19.136719 11.304688 19.324219 11.230469 19.496094 C 11.15625 19.671875 11.070312 19.855469 10.945312 20.003906 C 11.058594 19.84375 11.144531 19.671875 11.21875 19.484375 C 11.292969 19.300781 11.355469 19.113281 11.40625 18.925781 Z M 11.429688 18.953125 " fill-opacity="1" fill-rule="nonzero"/><path fill="#2e6c35" d="M 12.136719 16.921875 C 12.136719 16.921875 13.460938 18.320312 14.636719 18.269531 L 14.398438 17.492188 C 14.398438 17.492188 15.402344 17.875 16.019531 17.539062 C 16.019531 17.539062 15.761719 16.550781 15.167969 16.253906 C 15.167969 16.253906 14.597656 15.535156 13.941406 15.980469 C 13.941406 15.980469 13.621094 15.335938 13.1875 15.25 C 12.753906 15.164062 12.457031 16.523438 12.457031 16.523438 Z M 12.136719 16.921875 " fill-opacity="1" fill-rule="nonzero"/><path fill="#70983e" d="M 11.230469 16.847656 C 11.949219 16.835938 12.667969 16.835938 13.386719 16.871094 C 13.742188 16.898438 14.101562 16.921875 14.460938 16.972656 C 14.820312 17.019531 15.167969 17.082031 15.515625 17.207031 C 15.179688 17.09375 14.820312 17.046875 14.460938 16.996094 C 14.101562 16.957031 13.742188 16.933594 13.398438 16.921875 C 12.679688 16.898438 11.960938 16.910156 11.257812 16.957031 Z M 11.230469 16.847656 " fill-opacity="1" fill-rule="nonzero"/><path fill="#70983e" d="M 12.765625 16.871094 C 12.988281 16.972656 13.210938 17.082031 13.421875 17.207031 C 13.519531 17.269531 13.632812 17.332031 13.730469 17.40625 C 13.832031 17.480469 13.917969 17.554688 13.992188 17.652344 C 13.917969 17.554688 13.816406 17.480469 13.71875 17.40625 C 13.621094 17.332031 13.519531 17.269531 13.410156 17.207031 C 13.199219 17.082031 12.976562 16.984375 12.753906 16.882812 Z M 12.765625 16.871094 " fill-opacity="1" fill-rule="nonzero"/><path fill="#70983e" d="M 13.261719 16.882812 C 13.445312 16.824219 13.632812 16.75 13.804688 16.675781 C 13.980469 16.585938 14.152344 16.5 14.3125 16.390625 C 14.164062 16.511719 13.992188 16.613281 13.816406 16.6875 C 13.644531 16.773438 13.460938 16.847656 13.273438 16.910156 Z M 13.261719 16.882812 " fill-opacity="1" fill-rule="nonzero"/><path fill="#2e6c35" d="M 24.773438 34.40625 C 24.773438 34.40625 24.699219 33.019531 25.316406 32.425781 L 25.601562 32.945312 C 25.601562 32.945312 25.898438 32.226562 26.394531 32.066406 C 26.394531 32.066406 26.777344 32.699219 26.640625 33.15625 C 26.640625 33.15625 26.726562 33.8125 26.171875 33.921875 C 26.171875 33.921875 26.34375 34.40625 26.171875 34.679688 C 25.996094 34.949219 25.144531 34.417969 25.144531 34.417969 Z M 24.773438 34.40625 " fill-opacity="1" fill-rule="nonzero"/><path fill="#70983e" d="M 24.277344 34.828125 C 24.660156 34.480469 25.019531 34.109375 25.367188 33.738281 C 25.539062 33.550781 25.714844 33.355469 25.875 33.144531 C 26.035156 32.945312 26.183594 32.734375 26.296875 32.5 C 26.195312 32.734375 26.046875 32.957031 25.898438 33.167969 C 25.75 33.378906 25.589844 33.578125 25.417969 33.773438 C 25.082031 34.171875 24.722656 34.554688 24.363281 34.914062 Z M 24.277344 34.828125 " fill-opacity="1" fill-rule="nonzero"/><path fill="#70983e" d="M 25.082031 34.085938 C 25.144531 33.921875 25.207031 33.75 25.242188 33.589844 C 25.269531 33.503906 25.28125 33.414062 25.292969 33.328125 C 25.304688 33.242188 25.316406 33.15625 25.304688 33.070312 C 25.316406 33.15625 25.316406 33.242188 25.304688 33.328125 C 25.292969 33.414062 25.28125 33.503906 25.253906 33.589844 C 25.21875 33.761719 25.167969 33.9375 25.105469 34.097656 Z M 25.082031 34.085938 " fill-opacity="1" fill-rule="nonzero"/><path fill="#70983e" d="M 25.34375 33.8125 C 25.464844 33.75 25.601562 33.6875 25.738281 33.636719 C 25.875 33.589844 26.011719 33.550781 26.144531 33.527344 C 26.011719 33.550781 25.875 33.601562 25.738281 33.652344 C 25.601562 33.699219 25.476562 33.761719 25.355469 33.835938 Z M 25.34375 33.8125 " fill-opacity="1" fill-rule="nonzero"/><path fill="#2e6c35" d="M 23.929688 34.457031 C 23.929688 34.457031 24.003906 33.070312 23.386719 32.472656 L 23.101562 32.996094 C 23.101562 32.996094 22.804688 32.277344 22.308594 32.117188 C 22.308594 32.117188 21.925781 32.746094 22.0625 33.203125 C 22.0625 33.203125 21.976562 33.859375 22.53125 33.972656 C 22.53125 33.972656 22.359375 34.457031 22.53125 34.726562 C 22.707031 35 23.558594 34.46875 23.558594 34.46875 Z M 23.929688 34.457031 " fill-opacity="1" fill-rule="nonzero"/><path fill="#70983e" d="M 24.328125 34.976562 C 23.957031 34.605469 23.609375 34.234375 23.273438 33.835938 C 23.101562 33.636719 22.941406 33.441406 22.792969 33.230469 C 22.644531 33.019531 22.496094 32.796875 22.394531 32.5625 C 22.507812 32.796875 22.65625 33.007812 22.816406 33.203125 C 22.976562 33.402344 23.136719 33.601562 23.324219 33.800781 C 23.671875 34.183594 24.042969 34.542969 24.414062 34.890625 Z M 24.328125 34.976562 " fill-opacity="1" fill-rule="nonzero"/><path fill="#70983e" d="M 23.585938 34.160156 C 23.523438 33.996094 23.472656 33.824219 23.4375 33.652344 C 23.410156 33.5625 23.398438 33.476562 23.386719 33.390625 C 23.375 33.304688 23.375 33.21875 23.386719 33.128906 C 23.375 33.21875 23.386719 33.304688 23.398438 33.390625 C 23.410156 33.476562 23.421875 33.5625 23.449219 33.652344 C 23.496094 33.824219 23.546875 33.984375 23.609375 34.144531 Z M 23.585938 34.160156 " fill-opacity="1" fill-rule="nonzero"/><path fill="#70983e" d="M 23.335938 33.886719 C 23.210938 33.824219 23.089844 33.761719 22.953125 33.699219 C 22.816406 33.652344 22.691406 33.601562 22.542969 33.578125 C 22.679688 33.589844 22.816406 33.636719 22.953125 33.6875 C 23.089844 33.738281 23.210938 33.785156 23.347656 33.859375 Z M 23.335938 33.886719 " fill-opacity="1" fill-rule="nonzero"/></svg>