<svg xmlns="http://www.w3.org/2000/svg" xmlns:xlink="http://www.w3.org/1999/xlink" width="64" zoomAndPan="magnify" viewBox="0 0 48 48" height="64" preserveAspectRatio="xMidYMid meet" version="1.0"><defs><clipPath id="b4c8eaf276"><path d="M 1.976562 1.320312 L 46.058594 1.320312 L 46.058594 45.402344 L 1.976562 45.402344 Z M 1.976562 1.320312 " clip-rule="nonzero"/></clipPath><clipPath id="dd19a66640"><path d="M 10 38 L 23 38 L 23 45.402344 L 10 45.402344 Z M 10 38 " clip-rule="nonzero"/></clipPath><clipPath id="9c109d4ff4"><path d="M 6 1.320312 L 44 1.320312 L 44 37 L 6 37 Z M 6 1.320312 " clip-rule="nonzero"/></clipPath><clipPath id="93ed7e437d"><path d="M 10 41 L 14 41 L 14 45.402344 L 10 45.402344 Z M 10 41 " clip-rule="nonzero"/></clipPath><clipPath id="3b94afb792"><path d="M 10 41 L 13 41 L 13 45.402344 L 10 45.402344 Z M 10 41 " clip-rule="nonzero"/></clipPath></defs><g clip-path="url(#b4c8eaf276)"><path fill="#f5f2f9" d="M 1.988281 10.371094 C 1.988281 10.371094 7.402344 8.6875 10.746094 7.949219 C 14.09375 7.207031 28.449219 4.25 30.058594 3.121094 C 31.671875 1.988281 32.429688 1.707031 32.429688 1.707031 C 32.429688 1.707031 38.121094 11.03125 39.921875 16.960938 C 41.726562 22.894531 46.050781 33.726562 46.050781 33.726562 C 46.050781 33.726562 44.328125 35.160156 37.207031 36.875 C 30.089844 38.589844 24.84375 40.882812 20.386719 42.292969 C 15.929688 43.707031 11.28125 45.402344 11.28125 45.402344 C 11.28125 45.402344 10.144531 37.398438 7.296875 31.464844 C 4.453125 25.53125 4.265625 14.324219 1.988281 10.371094 Z M 1.988281 10.371094 " fill-opacity="1" fill-rule="evenodd"/></g><g clip-path="url(#dd19a66640)"><path fill="#ece9f4" d="M 11.257812 45.230469 C 11.171875 44.671875 10.863281 42.777344 10.289062 40.367188 L 11.199219 41.246094 C 11.4375 41.246094 12.835938 41.71875 15.160156 40.730469 C 17.480469 39.742188 19.671875 38.960938 19.671875 38.960938 L 22.746094 39.929688 C 22.746094 39.929688 21.015625 39.835938 18.785156 40.519531 C 16.558594 41.199219 15.347656 41.765625 14.566406 42 C 13.785156 42.234375 12.550781 43.554688 12.550781 43.554688 Z M 11.257812 45.230469 " fill-opacity="1" fill-rule="evenodd"/></g><path fill="#ece9f4" d="M 29.117188 3.546875 C 29.5625 3.386719 29.886719 3.242188 30.058594 3.121094 C 30.21875 3.007812 30.367188 2.90625 30.507812 2.8125 L 30.84375 3.402344 C 30.84375 3.402344 31.292969 4.367188 32.761719 6.484375 C 34.234375 8.605469 34.066406 10.839844 35.277344 13.171875 C 36.484375 15.503906 37.078125 16.46875 37.078125 16.46875 C 37.078125 16.46875 35.324219 14.5625 34.589844 12.914062 C 33.851562 11.265625 33.546875 9.121094 32.953125 8.109375 C 32.359375 7.097656 29.894531 4.367188 29.632812 4.132812 C 29.519531 4.03125 29.316406 3.789062 29.117188 3.546875 Z M 29.117188 3.546875 " fill-opacity="1" fill-rule="evenodd"/><path fill="#e4e2f0" d="M 11.066406 7.878906 C 13.523438 7.339844 19.949219 5.996094 24.683594 4.808594 C 25.855469 6.296875 28.242188 9.425781 29.632812 11.949219 C 31.53125 15.386719 33.902344 20.613281 35.417969 22.210938 C 36.933594 23.8125 40.445312 27.957031 41.726562 28.898438 C 43 29.835938 45.941406 33.988281 44.269531 34.671875 L 44.25 34.679688 C 42.542969 35.339844 39.828125 35.867188 39.828125 35.867188 C 39.828125 35.867188 39.386719 36.117188 38.691406 36.503906 C 38.226562 36.625 37.730469 36.75 37.207031 36.875 C 32.046875 38.121094 27.871094 39.667969 24.265625 40.960938 C 23.605469 40.761719 22.886719 40.496094 22.09375 40.152344 C 17.445312 38.128906 16.828125 36.667969 15.644531 35.679688 C 14.460938 34.691406 11.804688 35.019531 8.910156 30.171875 C 6.019531 25.320312 5.496094 19.71875 6.066406 17.503906 C 6.636719 15.292969 10.460938 9.789062 11.066406 7.878906 Z M 11.066406 7.878906 " fill-opacity="1" fill-rule="evenodd"/><g clip-path="url(#9c109d4ff4)"><path fill="#e8c26e" d="M 14.113281 2.027344 C 14.113281 2.027344 25.585938 13.9375 28.902344 17.582031 C 32.21875 21.226562 44.628906 31.808594 43.585938 32.941406 C 42.542969 34.070312 43.15625 34.902344 37.253906 35.851562 C 31.351562 36.800781 21.675781 38.214844 14.28125 33.976562 C 6.882812 29.738281 5.746094 17.871094 7.453125 14.765625 C 9.160156 11.65625 10.582031 8.832031 10.867188 6.855469 C 11.148438 4.875 12.121094 1.320312 14.113281 2.027344 Z M 14.113281 2.027344 " fill-opacity="1" fill-rule="evenodd"/></g><path fill="#99732b" d="M 17.882812 5.949219 L 18.535156 6.632812 L 21.875 36.507812 C 19.242188 36.105469 16.644531 35.332031 14.28125 33.976562 C 13.199219 31.679688 12.285156 29.0625 11.519531 28.007812 C 10.285156 26.3125 10.378906 22.546875 10.378906 19.863281 C 10.378906 17.175781 10.996094 13.789062 13.699219 10.726562 C 15.585938 8.59375 17.121094 6.824219 17.882812 5.949219 Z M 17.882812 5.949219 " fill-opacity="1" fill-rule="evenodd"/><path fill="#f9db99" d="M 35.75 24.1875 C 39.957031 28.144531 44.214844 32.257812 43.585938 32.941406 C 42.933594 33.644531 42.929688 34.234375 41.574219 34.8125 C 41.214844 34.71875 40.9375 34.652344 40.824219 34.695312 C 40.492188 34.8125 40.871094 34.128906 40.871094 34.128906 C 41.535156 33.65625 42.078125 33.023438 41.796875 32.550781 C 41.511719 32.078125 39.257812 30.148438 39.210938 29.75 C 39.164062 29.347656 38.285156 29.347656 38.023438 28.738281 C 37.765625 28.125 37.953125 28.265625 37.265625 26.996094 C 36.578125 25.722656 36.101562 25.117188 35.9375 24.664062 C 35.886719 24.519531 35.816406 24.347656 35.75 24.1875 Z M 35.75 24.1875 " fill-opacity="1" fill-rule="evenodd"/><path fill="#d1ac5a" d="M 13.78125 2.476562 C 13.78125 2.476562 14.96875 4.5 13.117188 7.511719 C 11.269531 10.527344 9.417969 13.964844 8.660156 16.082031 C 7.902344 18.203125 8.042969 20.414062 8.375 22.675781 C 8.707031 24.933594 9.609375 27.476562 10.414062 28.84375 C 11.222656 30.207031 11.886719 31.246094 12.832031 32.1875 C 13.148438 32.496094 13.507812 32.777344 13.847656 33.015625 L 13.609375 32.457031 C 13.160156 32.050781 12.726562 31.625 12.476562 31.304688 C 11.8125 30.445312 10.511719 28.65625 10.144531 27.523438 C 9.773438 26.394531 9.003906 22.664062 8.933594 20.875 C 8.863281 19.085938 8.910156 18 8.910156 18 C 8.910156 18 9.929688 14.210938 11.398438 11.761719 C 12.871094 9.3125 13.9375 6.464844 14.578125 5.6875 C 15.214844 4.910156 14.503906 1.945312 13.78125 2.476562 Z M 13.78125 2.476562 " fill-opacity="1" fill-rule="evenodd"/><path fill="#f9db99" d="M 22.300781 3.832031 C 22.265625 3.726562 21.96875 3.03125 21.695312 3.09375 C 21.421875 3.152344 20.140625 3.953125 19.15625 5.011719 C 18.175781 6.070312 15.683594 7.695312 14.355469 10.753906 C 13.027344 13.816406 11.984375 16.546875 11.605469 18.101562 C 11.226562 19.65625 11.890625 30.8125 16.160156 34.25 C 20.425781 37.6875 21.089844 39.996094 29.484375 40.84375 C 37.875 41.691406 40.816406 39.519531 40.847656 38.589844 C 40.882812 37.664062 35.503906 31.332031 35.503906 31.332031 Z M 22.300781 3.832031 " fill-opacity="1" fill-rule="evenodd"/><path fill="#b4872d" d="M 15.871094 8.265625 C 15.308594 8.972656 14.773438 9.792969 14.355469 10.753906 C 13.027344 13.816406 11.984375 16.546875 11.605469 18.101562 C 11.226562 19.65625 11.890625 30.8125 16.160156 34.25 C 20.425781 37.6875 21.089844 39.996094 29.484375 40.84375 C 30.078125 40.902344 30.648438 40.949219 31.191406 40.980469 C 30.023438 40.507812 28.660156 40.046875 27.585938 39.796875 C 24.980469 39.183594 23.199219 39.503906 21.328125 37.300781 C 19.457031 35.097656 17.105469 33.4375 16.347656 32.449219 C 15.589844 31.460938 16.113281 30.992188 14.878906 29.578125 C 13.644531 28.164062 14.261719 28.257812 13.027344 24.398438 C 11.796875 20.539062 12.414062 20.632812 12.507812 17.710938 C 12.601562 14.792969 13.929688 13.285156 14.925781 10.554688 C 15.214844 9.761719 15.539062 8.984375 15.871094 8.265625 Z M 15.871094 8.265625 " fill-opacity="1" fill-rule="evenodd"/><path fill="#d1ac5a" d="M 22.300781 3.832031 C 22.265625 3.726562 21.96875 3.03125 21.695312 3.09375 C 21.558594 3.121094 21.160156 3.339844 20.675781 3.6875 C 19.539062 5.410156 17.941406 7.949219 17.582031 9.105469 C 17.011719 10.945312 16.207031 11.320312 15.542969 13.296875 C 14.878906 15.277344 14.59375 16.125 14.785156 18.761719 C 14.972656 21.398438 15.777344 21.632812 16.300781 24.457031 C 16.820312 27.28125 18.246094 30.484375 20.285156 32.414062 C 22.324219 34.34375 23.082031 35.828125 24.289062 36.628906 C 25.5 37.429688 30.027344 38.417969 32.496094 39.40625 C 33.691406 39.886719 34.53125 40.488281 35.519531 40.917969 C 39.347656 40.523438 40.824219 39.246094 40.847656 38.589844 C 40.882812 37.664062 35.503906 31.332031 35.503906 31.332031 Z M 22.300781 3.832031 " fill-opacity="1" fill-rule="evenodd"/><path fill="#b4872d" d="M 22.300781 3.832031 C 22.265625 3.726562 21.96875 3.03125 21.695312 3.09375 C 21.609375 3.109375 21.417969 3.207031 21.167969 3.359375 C 20.132812 4.742188 18.292969 8.683594 18.03125 9.554688 C 17.769531 10.425781 15.777344 14.921875 15.339844 16.96875 C 14.902344 19.015625 17.226562 22.457031 17.175781 23.492188 C 17.128906 24.53125 16.597656 25.09375 18.171875 26.554688 C 19.746094 28.015625 18.882812 28.859375 20.164062 30.554688 C 21.445312 32.25 22.183594 34.257812 26.1875 36.816406 C 30.191406 39.378906 33.394531 38.042969 35.480469 39.503906 C 36.273438 40.054688 36.890625 40.386719 37.449219 40.609375 C 39.855469 40.0625 40.828125 39.121094 40.847656 38.589844 C 40.882812 37.664062 35.503906 31.332031 35.503906 31.332031 Z M 22.300781 3.832031 " fill-opacity="1" fill-rule="evenodd"/><path fill="#f9db99" d="M 21.917969 3.128906 C 21.917969 3.128906 22.867188 3.175781 25.429688 6.941406 C 27.988281 10.707031 28.605469 12.589844 30.550781 15.179688 C 32.496094 17.769531 34.863281 23.089844 35.054688 23.703125 C 35.246094 24.316406 39.890625 35.144531 40.460938 36.347656 C 41.03125 37.546875 41.078125 38.746094 40.554688 38.914062 C 40.035156 39.078125 36.714844 38.042969 33.394531 38.042969 C 30.074219 38.042969 28.652344 37.898438 24.480469 34.792969 C 20.308594 31.683594 18.835938 26.882812 17.226562 22.457031 C 15.613281 18.03125 15.851562 17.183594 16.609375 14.261719 C 17.367188 11.34375 21.351562 3.152344 21.917969 3.128906 Z M 21.917969 3.128906 " fill-opacity="1" fill-rule="evenodd"/><path fill="#dbb970" d="M 22.679688 6.445312 C 22.679688 6.445312 22.203125 8 21.585938 9.648438 C 20.972656 11.296875 21.160156 12.144531 19.691406 13.320312 C 18.222656 14.5 17.699219 15.300781 17.558594 17.230469 C 17.414062 19.160156 17.460938 20.480469 17.652344 20.195312 C 17.839844 19.914062 18.078125 17.511719 19.074219 17.371094 C 20.070312 17.230469 19.21875 19.535156 19.878906 18.785156 C 20.542969 18.03125 19.597656 16.710938 19.597656 15.628906 C 19.597656 14.546875 20.164062 14.355469 20.6875 13.839844 C 21.207031 13.320312 21.585938 12.617188 21.636719 11.910156 C 21.683594 11.203125 21.445312 10.496094 22.25 9.460938 C 23.058594 8.425781 24.527344 7.90625 24.621094 7.246094 C 24.71875 6.589844 24.339844 5.152344 24.242188 5.953125 C 24.148438 6.753906 24.484375 6.914062 23.960938 7.292969 C 23.4375 7.671875 22.65625 8.472656 22.75 7.765625 C 22.84375 7.058594 23.4375 6.203125 23.25 5.8125 C 23.0625 5.421875 22.679688 6.445312 22.679688 6.445312 Z M 29.339844 33.285156 C 31.617188 33.003906 32.265625 34.371094 35.316406 34.605469 C 38.367188 34.839844 40.886719 34.835938 39 35.660156 C 37.117188 36.488281 32.898438 34.605469 31.949219 34.886719 C 31 35.167969 30.621094 35.5 30.480469 36.015625 C 30.335938 36.535156 29.957031 35.167969 29.769531 34.511719 C 29.578125 33.851562 27.207031 34.464844 27.632812 33.757812 C 28.0625 33.050781 29.339844 33.285156 29.339844 33.285156 Z M 20.140625 26.128906 C 20.140625 26.128906 22.324219 29.988281 24.976562 28.292969 C 27.632812 26.601562 29.152344 25.847656 29.152344 25.847656 L 32.566406 26.882812 C 32.566406 26.882812 30.195312 26.410156 28.773438 27.824219 C 27.347656 29.238281 24.3125 29.800781 24.789062 31.027344 C 25.261719 32.25 21.363281 31.570312 20.140625 26.128906 Z M 21.5625 15.582031 C 22.324219 15.488281 23.414062 15.535156 24.03125 13.699219 C 24.644531 11.863281 25.738281 11.15625 25.59375 11.71875 C 25.453125 12.285156 24.316406 13.980469 24.882812 14.121094 C 25.453125 14.261719 27.382812 12.828125 26.984375 13.59375 C 26.589844 14.355469 26.164062 15.582031 24.742188 15.582031 C 23.320312 15.582031 23.933594 15.675781 22.511719 15.910156 C 21.089844 16.148438 20.617188 15.675781 21.5625 15.582031 Z M 21.5625 15.582031 " fill-opacity="1" fill-rule="evenodd"/><path fill="#94321f" d="M 25.285156 31.402344 C 25.285156 31.402344 24.242188 31.542969 24.503906 32.203125 C 24.765625 32.863281 24.929688 32.34375 25.3125 32.390625 C 25.691406 32.4375 26.046875 31.449219 25.285156 31.402344 Z M 36.695312 29.425781 C 36.953125 29.707031 37.3125 29.914062 36.988281 30.015625 C 36.660156 30.113281 36.738281 29.9375 36.613281 29.789062 C 36.488281 29.644531 36.53125 29.335938 36.695312 29.425781 Z M 35.445312 28.667969 C 35.445312 28.667969 35.945312 28.925781 36.105469 29.382812 C 36.265625 29.84375 36.003906 29.484375 35.800781 29.742188 C 35.601562 30.003906 35.132812 29.960938 35.25 29.53125 C 35.367188 29.101562 35 28.609375 35.445312 28.667969 Z M 34.1875 31.457031 C 33.9375 31.597656 34.722656 32.164062 33.714844 32.316406 C 32.707031 32.46875 32.289062 32.941406 32.242188 32.222656 C 32.195312 31.503906 33.628906 30.042969 34.1875 31.457031 Z M 37.019531 31.433594 C 36.855469 31.246094 35.585938 30.410156 35.621094 31.082031 C 35.65625 31.75 35.375 31.761719 35.019531 31.835938 C 34.660156 31.90625 34.257812 32.09375 34.804688 32.386719 C 35.347656 32.679688 35.527344 32.765625 36.167969 32.753906 C 36.808594 32.742188 37.71875 32.257812 37.019531 31.433594 Z M 22.324219 9.742188 C 22.726562 10.261719 23.34375 11.015625 22.488281 11.460938 C 21.636719 11.910156 21.203125 11.601562 21.445312 11.109375 C 21.691406 10.617188 20.816406 10.257812 21.492188 9.914062 C 22.167969 9.570312 22.324219 9.742188 22.324219 9.742188 Z M 31.332031 21.808594 C 31.332031 21.808594 32.613281 24.117188 31.425781 24.351562 C 30.242188 24.585938 29.910156 23.316406 29.386719 23.785156 C 28.867188 24.257812 26.355469 23.363281 27.964844 22.890625 C 29.578125 22.421875 30.480469 23.457031 30.480469 22.65625 C 30.480469 21.855469 30.488281 20.886719 31.332031 21.808594 Z M 20.59375 23.316406 C 20.664062 24.046875 21.234375 23.199219 22.65625 24.398438 C 24.078125 25.597656 23.628906 25.929688 24.078125 25.882812 C 24.527344 25.835938 24.457031 26.234375 24.8125 25.457031 C 25.167969 24.679688 24.835938 24.871094 25.238281 24.351562 C 25.644531 23.832031 25.949219 23.480469 24.410156 23.550781 C 22.867188 23.621094 23.011719 23.410156 22.65625 23.078125 C 22.300781 22.75 20.546875 21.855469 20.59375 23.316406 Z M 19.597656 19.75 C 19.597656 19.535156 19.964844 18.085938 19.414062 17.457031 C 18.859375 16.828125 18.457031 17.28125 18.101562 18.609375 C 17.742188 19.941406 17.890625 20.621094 17.984375 20.40625 C 18.078125 20.195312 18.457031 18.148438 18.8125 18.242188 C 19.167969 18.335938 18.789062 18.476562 19.027344 18.761719 C 19.265625 19.042969 19.382812 18.570312 19.3125 19.089844 C 19.242188 19.605469 19.003906 19.75 19.191406 19.867188 C 19.382812 19.984375 19.597656 19.75 19.597656 19.75 Z M 28.515625 13.0625 C 28.515625 13.0625 28.996094 15.097656 29.46875 15.523438 C 29.941406 15.945312 27.878906 17.929688 27.820312 16.300781 C 27.761719 14.675781 27.714844 12.789062 28.515625 13.0625 Z M 30.003906 28.402344 C 28.820312 28.613281 29.222656 29.296875 30.050781 29.296875 C 30.882812 29.296875 30.574219 29.648438 31.546875 29.742188 C 32.519531 29.835938 31.546875 28.234375 30.003906 28.402344 Z M 27.964844 30.789062 C 28.296875 31.027344 28.40625 31.425781 28.039062 31.53125 C 27.667969 31.636719 27.363281 31.460938 27.207031 31.601562 C 27.054688 31.742188 26.710938 31.050781 27.964844 30.789062 Z M 29.363281 31.332031 C 29.898438 31.332031 30.445312 31.484375 30.230469 31.707031 C 30.015625 31.933594 29.519531 31.589844 29.128906 32.003906 C 28.738281 32.414062 28.523438 31.414062 29.363281 31.332031 Z M 29.363281 31.332031 " fill-opacity="1" fill-rule="evenodd"/><path fill="#d1ac5a" d="M 22.65625 34.664062 C 22.394531 34.285156 21.28125 33.652344 19.808594 33.414062 C 18.339844 33.179688 17.414062 32.4375 17.582031 32.238281 C 17.746094 32.039062 17.390625 32.566406 18.507812 32.613281 C 19.621094 32.660156 20.355469 32.355469 20.949219 32.710938 C 21.539062 33.0625 22.65625 34.664062 22.65625 34.664062 Z M 22.65625 34.664062 " fill-opacity="1" fill-rule="evenodd"/><path fill="#d1ac5a" d="M 15.175781 15.910156 C 15.175781 15.910156 14.535156 17.230469 14.367188 17.839844 C 14.203125 18.453125 14.320312 19.019531 14.535156 19.679688 C 14.75 20.335938 14.085938 20.40625 14.296875 21.539062 C 14.511719 22.667969 14.75 22.410156 14.722656 23.1875 C 14.699219 23.960938 13.894531 24.410156 14.0625 24.597656 C 14.226562 24.785156 14.320312 24.105469 15.03125 24.105469 C 15.742188 24.105469 16.101562 24.859375 16.148438 25.28125 C 16.195312 25.703125 15.578125 26.550781 16.148438 26.648438 C 16.714844 26.742188 16.574219 26.011719 16.597656 25.09375 C 16.621094 24.175781 17.097656 24.417969 16.03125 23.273438 C 14.960938 22.125 14.914062 22.316406 15.007812 20.878906 C 15.105469 19.441406 15.601562 17.230469 15.175781 15.910156 Z M 15.175781 15.910156 " fill-opacity="1" fill-rule="evenodd"/><path fill="#faeccb" d="M 22.0625 4.621094 C 22.0625 4.621094 22.964844 5.023438 22.808594 5.777344 C 22.652344 6.53125 21.480469 7.222656 21.292969 8.308594 C 21.101562 9.390625 20.449219 11.929688 19.644531 12.566406 C 18.816406 13.226562 18.292969 13.367188 18.03125 13.886719 C 17.769531 14.40625 17.699219 12.710938 18.554688 12.050781 C 19.40625 11.390625 20.425781 10.167969 20.449219 9.554688 C 20.472656 8.941406 20.925781 7.292969 21.183594 6.777344 C 21.445312 6.257812 21.328125 6.09375 21.183594 5.8125 C 21.042969 5.527344 21.636719 4.398438 22.0625 4.621094 Z M 39.347656 36.816406 C 38.871094 37.429688 37.78125 37.949219 36.050781 37.664062 C 34.320312 37.382812 33.417969 37.875 32.613281 37.617188 C 31.808594 37.359375 32.164062 36.441406 33.847656 36.582031 C 35.53125 36.722656 36.882812 37.195312 37.402344 36.769531 C 37.925781 36.347656 39.21875 34.953125 39.347656 36.816406 Z M 38.328125 33.617188 C 38.28125 33.757812 37.949219 34.828125 36.234375 34.671875 C 34.523438 34.511719 33.824219 34.546875 32.328125 33.871094 C 30.835938 33.191406 29.292969 33.378906 28.914062 33.449219 C 28.535156 33.519531 27.871094 33.214844 28.488281 32.886719 C 29.105469 32.554688 30.195312 32.414062 31.808594 32.816406 C 33.417969 33.214844 33.917969 33.828125 34.890625 33.640625 C 35.863281 33.449219 36.714844 33.167969 37.285156 33.097656 C 37.855469 33.027344 38.707031 33.050781 38.328125 33.617188 Z M 32.1875 26.480469 C 31.925781 26.1875 29.78125 25.28125 28.890625 25.679688 C 28.003906 26.082031 26.507812 27.386719 25.214844 27.765625 C 23.925781 28.140625 22.207031 27.199219 22.894531 27 C 23.582031 26.800781 25.050781 27.421875 25.890625 26.492188 C 26.734375 25.5625 27.277344 24.976562 27.988281 24.738281 C 28.703125 24.503906 28.960938 24.304688 29.933594 24.703125 C 30.90625 25.105469 33.339844 24.542969 33.148438 25.28125 C 32.953125 26.019531 32.78125 26.5625 32.1875 26.480469 Z M 26.78125 12.003906 C 26.332031 12.613281 25.289062 12.828125 25.476562 13.132812 C 25.667969 13.4375 26.898438 13.4375 27.445312 12.734375 C 27.988281 12.027344 27.351562 11.34375 26.78125 12.003906 Z M 26.78125 12.003906 " fill-opacity="1" fill-rule="evenodd"/><path fill="#69883a" d="M 23.976562 17.453125 C 23.976562 17.453125 24.054688 17.367188 23.960938 17.785156 C 23.867188 18.203125 23.578125 18.402344 23.4375 18.394531 C 23.296875 18.382812 23.0625 18.445312 22.554688 18.289062 C 22.042969 18.128906 21.441406 18.238281 21.441406 18.238281 C 21.441406 18.238281 22.183594 17.691406 22.648438 17.527344 C 23.113281 17.363281 23.609375 16.964844 23.609375 16.964844 L 23.527344 17.382812 Z M 23.976562 17.453125 " fill-opacity="1" fill-rule="evenodd"/><path fill="#69883a" d="M 20.046875 18.246094 C 20.203125 18.554688 20.472656 19.496094 20.40625 19.410156 C 20.34375 19.320312 19.738281 18.859375 19.714844 19.164062 C 19.691406 19.46875 19.488281 19.75 19.488281 19.75 C 19.488281 19.75 19.09375 19.957031 19.15625 19.878906 C 19.222656 19.800781 19.199219 19.347656 19.199219 19.347656 L 18.960938 19.507812 C 18.960938 19.507812 19.425781 18.316406 19.410156 18.171875 C 19.398438 18.03125 20.046875 18.246094 20.046875 18.246094 Z M 20.046875 18.246094 " fill-opacity="1" fill-rule="evenodd"/><path fill="#69883a" d="M 22.875 15.859375 L 22.0625 16.089844 L 22.210938 15.722656 C 22.210938 15.722656 21.980469 15.699219 21.902344 15.710938 C 21.824219 15.722656 21.992188 15.375 22.097656 15.335938 C 22.203125 15.296875 22.539062 15.289062 22.527344 15.222656 C 22.515625 15.15625 22.398438 14.773438 22.503906 14.925781 C 22.613281 15.074219 22.660156 15.4375 22.835938 15.542969 C 23.011719 15.644531 22.875 15.859375 22.875 15.859375 Z M 22.875 15.859375 " fill-opacity="1" fill-rule="evenodd"/><path fill="#69883a" d="M 26.039062 20.609375 C 26.058594 20.679688 26.015625 20.839844 25.992188 20.820312 C 25.972656 20.800781 25.804688 20.714844 25.859375 20.84375 C 25.910156 20.972656 25.902344 21.066406 25.957031 21.128906 C 26.015625 21.191406 26.21875 21.078125 26.011719 21.199219 C 25.808594 21.316406 25.742188 21.4375 25.585938 21.65625 C 25.429688 21.875 25.144531 21.863281 25.109375 21.839844 C 25.070312 21.816406 24.8125 21.617188 24.8125 21.617188 C 24.8125 21.617188 24.992188 21.464844 25.238281 21.503906 C 25.371094 21.53125 24.765625 21.042969 24.765625 21.042969 L 24.8125 20.984375 C 24.8125 20.984375 24.601562 20.699219 24.589844 20.636719 C 24.574219 20.570312 24.945312 20.679688 24.945312 20.679688 C 24.945312 20.679688 24.871094 20.492188 24.9375 20.527344 C 25 20.566406 25.289062 20.785156 25.300781 20.757812 C 25.3125 20.734375 25.347656 20.378906 25.34375 20.398438 C 25.34375 20.417969 25.121094 20.738281 25.164062 20.507812 C 25.207031 20.277344 25.195312 19.84375 25.324219 19.878906 C 25.449219 19.917969 26.039062 20.609375 26.039062 20.609375 Z M 26.039062 20.609375 " fill-opacity="1" fill-rule="evenodd"/><path fill="#69883a" d="M 26.535156 26.667969 C 26.535156 26.667969 26.824219 26.15625 27.066406 25.953125 C 27.308594 25.746094 27.328125 25.558594 27.328125 25.558594 L 27.164062 25.613281 L 27.234375 25.269531 L 26.847656 25.410156 L 26.871094 25.121094 L 26.554688 25.515625 C 26.554688 25.515625 26.527344 24.972656 26.488281 24.933594 C 26.449219 24.894531 26.113281 25.324219 26.269531 25.9375 C 26.429688 26.550781 26.535156 26.667969 26.535156 26.667969 Z M 26.535156 26.667969 " fill-opacity="1" fill-rule="evenodd"/><path fill="#69883a" d="M 29.222656 25.535156 C 29.222656 25.535156 28.882812 25.539062 28.625 25.257812 C 28.367188 24.980469 28.390625 24.980469 28.390625 24.980469 L 28.175781 25.695312 C 28.175781 25.695312 27.976562 25.828125 27.816406 25.210938 C 27.65625 24.59375 27.722656 24.628906 27.722656 24.628906 L 28.667969 24.464844 C 28.667969 24.464844 28.710938 24.753906 28.980469 24.960938 C 29.25 25.171875 29.40625 25.230469 29.40625 25.230469 L 29.0625 25.304688 Z M 29.222656 25.535156 " fill-opacity="1" fill-rule="evenodd"/><path fill="#69883a" d="M 28.90625 29.265625 L 28.695312 29.378906 C 28.695312 29.378906 28.371094 28.636719 28.019531 28.28125 C 27.667969 27.929688 27.621094 27.925781 27.621094 27.925781 L 27.777344 27.78125 C 27.777344 27.78125 28.503906 27.878906 28.90625 29.265625 Z M 28.90625 29.265625 " fill-opacity="1" fill-rule="evenodd"/><path fill="#69883a" d="M 30.390625 31.355469 C 30.390625 31.355469 30.183594 31.039062 30.207031 30.648438 C 30.230469 30.261719 30.273438 30.242188 30.273438 30.242188 C 30.273438 30.242188 29.914062 30.144531 29.46875 30.378906 C 29.019531 30.617188 28.929688 30.75 28.972656 30.738281 C 29.015625 30.726562 29.359375 30.707031 29.359375 30.707031 C 29.359375 30.707031 29.027344 30.96875 29.0625 30.972656 C 29.101562 30.972656 30.0625 30.914062 30.0625 30.914062 C 30.0625 30.914062 29.203125 31.4375 29.46875 31.453125 C 29.734375 31.46875 30.203125 31.320312 30.207031 31.351562 C 30.207031 31.382812 30.195312 31.574219 30.195312 31.574219 C 30.195312 31.574219 30.328125 31.578125 30.390625 31.355469 Z M 30.390625 31.355469 " fill-opacity="1" fill-rule="evenodd"/><path fill="#69883a" d="M 27.042969 15.652344 C 27.019531 15.722656 26.464844 16.007812 26.464844 16.007812 C 26.464844 16.007812 25.09375 15.445312 25.324219 15.453125 C 25.554688 15.460938 25.65625 15.457031 25.65625 15.457031 C 25.65625 15.457031 25.203125 15.195312 25.34375 15.113281 C 25.488281 15.027344 25.683594 14.984375 25.683594 14.984375 L 25.328125 14.574219 L 25.851562 14.507812 L 25.933594 13.917969 C 25.933594 13.917969 26.277344 15.328125 27.042969 15.652344 Z M 27.042969 15.652344 " fill-opacity="1" fill-rule="evenodd"/><path fill="#69883a" d="M 34.445312 28.800781 C 34.445312 28.800781 34.105469 28.804688 33.847656 28.523438 C 33.589844 28.246094 33.613281 28.246094 33.613281 28.246094 L 33.398438 28.960938 C 33.398438 28.960938 33.199219 29.09375 33.039062 28.476562 C 32.878906 27.859375 32.945312 27.894531 32.945312 27.894531 L 33.890625 27.730469 C 33.890625 27.730469 33.933594 28.019531 34.203125 28.226562 C 34.472656 28.4375 34.628906 28.496094 34.628906 28.496094 L 34.285156 28.570312 Z M 34.445312 28.800781 " fill-opacity="1" fill-rule="evenodd"/><path fill="#69883a" d="M 20.660156 20.613281 L 20.742188 20.835938 C 20.742188 20.835938 19.957031 21.054688 19.558594 21.355469 C 19.160156 21.65625 19.148438 21.699219 19.148438 21.699219 L 19.027344 21.527344 C 19.027344 21.527344 19.21875 20.824219 20.660156 20.613281 Z M 20.660156 20.613281 " fill-opacity="1" fill-rule="evenodd"/><path fill="#69883a" d="M 25.402344 29.398438 C 25.457031 29.445312 25.496094 30.070312 25.496094 30.070312 C 25.496094 30.070312 24.421875 31.085938 24.523438 30.878906 C 24.621094 30.671875 24.660156 30.578125 24.660156 30.578125 C 24.660156 30.578125 24.238281 30.882812 24.21875 30.71875 C 24.199219 30.558594 24.238281 30.363281 24.238281 30.363281 L 23.714844 30.519531 L 23.867188 30.015625 L 23.355469 29.703125 C 23.355469 29.703125 24.792969 29.960938 25.402344 29.398438 Z M 25.402344 29.398438 " fill-opacity="1" fill-rule="evenodd"/><path fill="#dbb970" d="M 30.871094 17.738281 C 30.871094 17.738281 29.898438 18.347656 31.164062 19.5625 C 32.433594 20.773438 33.464844 21.9375 33.644531 22.398438 C 33.820312 22.855469 33.597656 23.386719 33.371094 23.128906 C 33.144531 22.867188 33.441406 22.1875 32.445312 21.433594 C 31.449219 20.679688 32.210938 19.65625 30.453125 19.925781 C 28.699219 20.195312 27.847656 20.433594 28.546875 20.054688 C 29.246094 19.679688 30.585938 19.808594 30.289062 19.171875 C 29.992188 18.535156 30.074219 18.171875 30.109375 17.890625 C 30.144531 17.605469 30.085938 17.277344 29.839844 16.972656 C 29.589844 16.664062 29.480469 15.570312 30.0625 16.511719 C 30.644531 17.453125 31.238281 16.734375 31.4375 17.546875 C 31.640625 18.359375 32.171875 19.171875 30.871094 17.738281 Z M 30.871094 17.738281 " fill-opacity="1" fill-rule="evenodd"/><path fill="#b64f31" d="M 21.925781 34.847656 C 22.140625 34.941406 22.449219 35.316406 22.4375 35.421875 C 22.425781 35.527344 22.078125 35.707031 21.902344 35.589844 C 21.722656 35.46875 21.378906 34.882812 21.925781 34.847656 Z M 13.9375 19.71875 C 13.6875 19.71875 13.105469 19.355469 13.496094 19.875 C 13.886719 20.390625 13.734375 20.863281 13.960938 20.460938 C 14.183594 20.0625 13.9375 19.71875 13.9375 19.71875 Z M 13.710938 20.851562 C 13.367188 21.003906 13.128906 20.78125 13.117188 21.355469 C 13.105469 21.933594 12.5625 21.425781 12.976562 22.015625 C 13.390625 22.605469 14.207031 21.828125 13.710938 20.851562 Z M 16.984375 28.535156 C 17.066406 28.75 17.8125 29.46875 17.480469 29.855469 C 17.148438 30.242188 17.113281 30.5625 16.957031 30.03125 C 16.804688 29.503906 16.53125 29.585938 16.414062 29.371094 C 16.296875 29.160156 16.652344 28.242188 16.984375 28.535156 Z M 16.984375 28.535156 " fill-opacity="1" fill-rule="evenodd"/><path fill="#f9db99" d="M 15.371094 4.027344 C 15.371094 4.027344 17.492188 5.804688 17.601562 6.078125 C 17.707031 6.347656 16.652344 6.125 16.035156 6.84375 C 15.417969 7.558594 15.230469 7.761719 14.800781 8.125 C 14.375 8.488281 14.671875 8.03125 13.925781 8.960938 C 13.179688 9.890625 13.214844 10.054688 12.871094 10.328125 C 12.527344 10.597656 12.324219 9.984375 12.941406 9.324219 C 13.558594 8.667969 13.535156 8.511719 13.855469 7.691406 C 14.171875 6.867188 14.304688 6.878906 14.789062 5.9375 C 15.277344 4.992188 15.347656 4.816406 15.144531 4.488281 C 14.945312 4.15625 15.371094 4.027344 15.371094 4.027344 Z M 13.179688 2.78125 C 13.273438 2.96875 13.792969 3.464844 12.917969 4.371094 C 12.039062 5.277344 11.742188 5.5 11.304688 7.019531 C 10.867188 8.539062 10.710938 9.46875 10.378906 9.761719 C 10.046875 10.054688 10.511719 8.703125 10.746094 7.949219 C 10.984375 7.195312 10.890625 6.136719 11.375 5.265625 C 11.863281 4.394531 12.039062 4.207031 12.132812 3.699219 C 12.230469 3.191406 12.808594 2.640625 13.179688 2.78125 Z M 13.179688 2.78125 " fill-opacity="1" fill-rule="evenodd"/><path fill="#7d2718" d="M 15.085938 6.40625 C 15.230469 6.832031 15.464844 7.101562 15.027344 7.464844 C 14.589844 7.832031 14.886719 8.261719 14.554688 8.429688 C 14.222656 8.597656 12.96875 8.324219 13.398438 7.890625 C 13.828125 7.453125 14.566406 6.734375 14.824219 6.570312 C 15.085938 6.40625 15.039062 6.332031 15.085938 6.40625 Z M 7.855469 22.359375 C 7.925781 22.359375 7.9375 22.40625 8.140625 22.738281 C 8.339844 23.066406 8.679688 22.824219 8.496094 23.195312 C 8.3125 23.566406 7.617188 23.542969 7.601562 23.273438 C 7.582031 23 7.582031 22.066406 7.855469 22.359375 Z M 10.289062 25.839844 C 10.441406 25.980469 10.679688 27.0625 10.390625 27.296875 C 10.011719 27.535156 10.289062 25.839844 10.289062 25.839844 Z M 7.675781 15.355469 C 8.058594 15.613281 8.316406 15.378906 8.316406 15.378906 C 8.316406 15.378906 8.363281 17.425781 7.773438 17.027344 C 7.179688 16.628906 7.226562 15.269531 7.675781 15.355469 Z M 10.710938 14.25 C 10.632812 15.261719 10.597656 16.085938 10.023438 16.25 C 9.574219 16.414062 10.070312 14.015625 10.710938 14.25 Z M 11.484375 8.382812 C 11.507812 8.945312 11.582031 9.109375 11.058594 9.839844 C 10.539062 10.570312 10.585938 9.464844 10.941406 8.851562 C 11.296875 8.238281 11.484375 8.382812 11.484375 8.382812 Z M 11.632812 7.878906 C 11.785156 7.90625 12.050781 7.9375 11.96875 8.09375 C 11.890625 8.25 11.714844 8.238281 11.667969 8.183594 C 11.625 8.128906 11.175781 7.855469 11.632812 7.878906 Z M 11.632812 7.878906 " fill-opacity="1" fill-rule="evenodd"/><path fill="#7d2718" d="M 39.828125 29.980469 C 39.828125 29.980469 41.0625 30.171875 41.085938 31.230469 C 41.109375 32.289062 41.296875 31.984375 40.421875 31.839844 C 39.542969 31.699219 39.257812 29.867188 39.828125 29.980469 Z M 41.25 32.640625 C 41.582031 32.808594 41.796875 33.371094 41.109375 33.464844 C 40.421875 33.558594 39.046875 32.265625 41.25 32.640625 Z M 41.25 32.640625 " fill-opacity="1" fill-rule="evenodd"/><path fill="#ece9f4" d="M 40.019531 19.269531 C 40.019531 19.269531 39.1875 20.023438 38.191406 20.398438 C 37.195312 20.777344 36.222656 21.292969 35.890625 21.414062 C 35.558594 21.53125 34.898438 21.953125 34.898438 21.953125 L 35.253906 22.542969 C 35.253906 22.542969 35.585938 21.90625 36.414062 21.601562 C 37.242188 21.292969 38.429688 20.800781 39.046875 20.351562 C 39.664062 19.90625 40.019531 19.269531 40.019531 19.269531 Z M 40.019531 19.269531 " fill-opacity="1" fill-rule="evenodd"/><path fill="#ece9f4" d="M 11.613281 32.785156 C 11.613281 32.785156 10.996094 33.300781 10.050781 33.347656 C 9.101562 33.394531 8.367188 33.976562 8.367188 33.976562 L 8.671875 34.8125 C 8.671875 34.8125 9.457031 34.054688 9.835938 33.949219 C 10.214844 33.84375 10.453125 33.996094 10.855469 33.832031 C 11.257812 33.667969 11.613281 32.785156 11.613281 32.785156 Z M 11.613281 32.785156 " fill-opacity="1" fill-rule="evenodd"/><path fill="#ece9f4" d="M 9.277344 9.207031 C 9.277344 9.207031 8.828125 10.6875 7.144531 11.960938 C 5.460938 13.230469 4.773438 14.457031 4.773438 14.738281 C 4.773438 15.019531 4.464844 12.925781 4.230469 12.289062 C 3.992188 11.652344 3.113281 10.640625 3.113281 10.640625 C 3.113281 10.640625 4.535156 11.464844 6.339844 10.664062 C 8.140625 9.863281 9.277344 9.207031 9.277344 9.207031 Z M 9.277344 9.207031 " fill-opacity="1" fill-rule="evenodd"/><g clip-path="url(#93ed7e437d)"><path fill="#dfdaed" d="M 13.171875 44.726562 C 12.011719 45.136719 11.28125 45.402344 11.28125 45.402344 C 11.28125 45.402344 11.0625 43.871094 10.582031 41.648438 C 11.394531 42.617188 12.285156 43.679688 13.171875 44.726562 Z M 13.171875 44.726562 " fill-opacity="1" fill-rule="evenodd"/></g><g clip-path="url(#3b94afb792)"><path fill="#dad3e9" d="M 11.257812 45.230469 C 11.1875 44.773438 10.96875 43.433594 10.582031 41.648438 C 11.148438 42.328125 11.757812 43.050781 12.375 43.78125 Z M 11.257812 45.230469 " fill-opacity="1" fill-rule="evenodd"/></g><path fill="#501a13" d="M 31.753906 23.457031 C 31.753906 23.457031 32.324219 23.445312 32.03125 24.03125 C 31.734375 24.621094 31.28125 24.542969 31.011719 24.480469 C 30.738281 24.417969 30.808594 24.28125 30.296875 24.378906 C 29.785156 24.480469 29.476562 23.761719 30.082031 23.8125 C 30.6875 23.863281 31.578125 22.582031 31.753906 23.457031 Z M 31.753906 23.457031 " fill-opacity="1" fill-rule="evenodd"/><path fill="#501a13" d="M 34.359375 31.144531 C 34.359375 31.144531 34.511719 31.527344 34.359375 31.875 C 34.207031 32.21875 33.925781 32.144531 33.304688 32.398438 C 33.011719 32.65625 32.726562 31.359375 34.359375 31.144531 Z M 22.453125 9.992188 C 22.53125 10.011719 23.0625 10.34375 22.914062 10.960938 C 22.765625 11.582031 22.242188 11.800781 21.878906 11.671875 C 21.519531 11.542969 21.808594 11.253906 22.023438 10.8125 C 22.234375 10.371094 21.769531 9.789062 22.453125 9.992188 Z M 24.5 23.332031 C 24.332031 23.332031 23.21875 23.582031 22.800781 23.234375 C 22.386719 22.886719 21.722656 22.949219 22.136719 23.308594 C 22.550781 23.667969 23.132812 23.78125 23.828125 24.410156 C 24.527344 25.039062 24.605469 24.769531 24.851562 24.21875 C 25.09375 23.667969 25.894531 23.152344 24.5 23.332031 Z M 32.234375 29.628906 C 32.210938 29.847656 31.589844 30.144531 31.34375 30.015625 C 31.101562 29.886719 30.671875 30 30.609375 29.730469 C 30.542969 29.464844 29.9375 29.285156 30.492188 29.207031 C 31.046875 29.128906 31.203125 29.332031 31.253906 29.015625 C 31.308594 28.699219 32.09375 28.730469 32.234375 29.628906 Z M 32.234375 29.628906 " fill-opacity="1" fill-rule="evenodd"/></svg>