<svg xmlns="http://www.w3.org/2000/svg" xmlns:xlink="http://www.w3.org/1999/xlink" width="64" zoomAndPan="magnify" viewBox="0 0 48 48" height="64" preserveAspectRatio="xMidYMid meet" version="1.0"><defs><clipPath id="b507ee7cfe"><path d="M 5.191406 15.246094 L 33.199219 15.246094 L 33.199219 42.515625 L 5.191406 42.515625 Z M 5.191406 15.246094 " clip-rule="nonzero"/></clipPath><clipPath id="28c01c0b87"><path d="M 5.191406 8.003906 L 44.128906 8.003906 L 44.128906 42.078125 L 5.191406 42.078125 Z M 5.191406 8.003906 " clip-rule="nonzero"/></clipPath></defs><g clip-path="url(#b507ee7cfe)"><path fill="#f9e02d" d="M 11.105469 26.132812 C 10.539062 27.113281 9.945312 28.078125 9.253906 28.972656 C 9.050781 29.234375 8.851562 29.484375 8.714844 29.785156 C 8.664062 29.902344 8.59375 29.90625 8.5 29.808594 C 8.238281 29.546875 7.917969 29.390625 7.550781 29.332031 C 7.261719 29.285156 7.238281 29.269531 7.230469 28.964844 C 7.226562 28.933594 7.230469 28.902344 7.230469 28.871094 C 7.238281 28.109375 7.46875 27.402344 7.769531 26.710938 C 8.304688 25.46875 8.886719 24.246094 9.457031 23.023438 C 9.699219 22.503906 9.96875 21.996094 10.222656 21.484375 C 10.253906 21.425781 10.320312 21.359375 10.261719 21.296875 C 10.207031 21.242188 10.132812 21.292969 10.066406 21.3125 C 9.570312 21.46875 9.070312 21.625 8.582031 21.804688 C 8.039062 22.003906 7.496094 22.199219 6.949219 22.386719 C 6.316406 22.605469 5.855469 22.546875 5.398438 21.976562 C 5.160156 21.679688 5.207031 21.410156 5.523438 21.210938 C 6.304688 20.71875 7.132812 20.308594 7.988281 19.957031 C 8.601562 19.707031 9.222656 19.476562 9.851562 19.273438 C 10.363281 19.109375 10.871094 18.917969 11.398438 18.796875 C 11.539062 18.765625 11.667969 18.695312 11.753906 18.542969 C 12.066406 17.96875 12.363281 17.382812 12.75 16.847656 C 12.972656 16.539062 13.210938 16.234375 13.453125 15.9375 C 13.683594 15.660156 14.019531 15.542969 14.351562 15.449219 C 14.75 15.332031 15.160156 15.289062 15.578125 15.285156 C 16.195312 15.277344 16.308594 15.765625 16.199219 16.183594 C 16.058594 16.714844 15.8125 17.199219 15.597656 17.699219 C 15.542969 17.824219 15.589844 17.832031 15.683594 17.824219 C 15.863281 17.804688 16.039062 17.757812 16.21875 17.726562 C 16.496094 17.675781 16.78125 17.675781 17.054688 17.597656 C 17.304688 17.527344 17.566406 17.535156 17.820312 17.503906 C 18.363281 17.433594 18.90625 17.347656 19.457031 17.378906 C 19.640625 17.390625 19.71875 17.542969 19.863281 17.59375 C 19.914062 17.609375 19.886719 17.671875 19.855469 17.703125 C 19.441406 18.152344 18.988281 18.546875 18.386719 18.726562 C 18.304688 18.75 18.234375 18.761719 18.164062 18.691406 C 18.066406 18.597656 17.945312 18.601562 17.828125 18.648438 C 17.007812 18.984375 16.136719 19.160156 15.289062 19.40625 C 15.078125 19.46875 14.886719 19.558594 14.835938 19.808594 C 14.832031 19.828125 14.824219 19.851562 14.8125 19.859375 C 14.460938 20.023438 14.425781 20.402344 14.277344 20.691406 C 13.847656 21.539062 13.386719 22.371094 12.886719 23.175781 C 12.277344 24.152344 11.679688 25.132812 11.105469 26.132812 Z M 24.078125 31.476562 C 24.039062 31.65625 24 31.832031 23.957031 32.007812 C 23.90625 32.238281 23.847656 32.46875 23.792969 32.699219 C 23.785156 32.742188 23.785156 32.792969 23.726562 32.800781 C 23.667969 32.804688 23.644531 32.753906 23.617188 32.714844 C 23.429688 32.453125 23.257812 32.183594 23.054688 31.933594 C 22.992188 31.859375 22.851562 31.816406 22.878906 31.707031 C 22.90625 31.59375 23.050781 31.640625 23.140625 31.609375 C 23.402344 31.515625 23.667969 31.445312 23.929688 31.363281 C 24.035156 31.332031 24.09375 31.351562 24.078125 31.476562 Z M 33.082031 30.660156 C 32.941406 30.546875 32.78125 30.449219 32.679688 30.308594 C 32.542969 30.128906 32.476562 30.082031 32.265625 30.183594 C 32.171875 30.230469 32.074219 30.292969 31.972656 30.308594 C 31.628906 30.355469 31.304688 30.46875 30.992188 30.605469 C 29.84375 31.097656 28.714844 31.644531 27.605469 32.21875 C 27.285156 32.382812 26.972656 32.554688 26.652344 32.722656 C 26.621094 32.738281 26.589844 32.773438 26.550781 32.75 C 26.523438 32.734375 26.515625 32.695312 26.53125 32.664062 C 26.628906 32.421875 26.664062 32.160156 26.726562 31.90625 C 26.816406 31.546875 26.902344 31.191406 26.976562 30.832031 C 27.011719 30.65625 27.03125 30.46875 27.265625 30.417969 C 27.546875 30.359375 27.828125 30.289062 28.105469 30.214844 C 28.460938 30.121094 28.804688 29.996094 29.082031 29.742188 C 29.15625 29.671875 29.226562 29.605469 29.339844 29.601562 C 29.429688 29.59375 29.46875 29.539062 29.449219 29.441406 C 29.363281 29.058594 29.332031 28.667969 29.332031 28.277344 C 29.332031 28.160156 29.292969 28.113281 29.15625 28.128906 C 28.722656 28.1875 28.285156 28.234375 27.847656 28.273438 C 27.75 28.28125 27.632812 28.367188 27.5625 28.304688 C 27.476562 28.226562 27.605469 28.125 27.605469 28.023438 C 27.59375 27.753906 27.671875 27.488281 27.722656 27.230469 C 27.792969 26.878906 27.785156 26.539062 27.769531 26.195312 C 27.75 25.875 27.558594 25.714844 27.234375 25.707031 C 26.90625 25.699219 26.585938 25.738281 26.261719 25.777344 C 25.90625 25.824219 25.648438 25.953125 25.488281 26.265625 C 25.230469 26.777344 25.035156 27.3125 24.886719 27.867188 C 24.800781 28.1875 24.71875 28.511719 24.628906 28.832031 C 24.613281 28.890625 24.605469 28.964844 24.527344 28.976562 C 24.277344 29.007812 24.046875 29.097656 23.804688 29.164062 C 23.441406 29.261719 23.066406 29.339844 22.703125 29.449219 C 22.328125 29.5625 21.957031 29.691406 21.578125 29.789062 C 21.527344 29.800781 21.464844 29.867188 21.425781 29.800781 C 21.398438 29.746094 21.429688 29.679688 21.453125 29.617188 C 21.539062 29.398438 21.625 29.175781 21.707031 28.953125 C 21.839844 28.585938 21.96875 28.214844 22.101562 27.847656 C 22.238281 27.460938 22.378906 27.074219 22.515625 26.6875 C 22.652344 26.308594 22.789062 25.929688 22.917969 25.542969 C 23.082031 25.066406 23.28125 24.597656 23.25 24.027344 C 23.25 23.964844 23.25 23.859375 23.25 23.753906 C 23.242188 23.5 23.132812 23.359375 22.882812 23.292969 C 22.566406 23.210938 22.261719 23.3125 21.953125 23.363281 C 21.796875 23.390625 21.679688 23.480469 21.570312 23.59375 C 21.273438 23.894531 21.066406 24.253906 20.882812 24.628906 C 20.421875 25.574219 20.039062 26.550781 19.601562 27.503906 C 19.09375 28.609375 18.558594 29.695312 18.042969 30.796875 C 17.976562 30.9375 17.890625 31.035156 17.746094 31.089844 C 17.558594 31.160156 17.503906 31.117188 17.5 30.921875 C 17.472656 30.171875 17.464844 29.417969 17.40625 28.671875 C 17.347656 27.929688 17.246094 27.1875 17.148438 26.445312 C 17.125 26.265625 17.175781 26.128906 17.277344 25.992188 C 17.378906 25.863281 17.480469 25.734375 17.570312 25.597656 C 18.351562 24.449219 19.195312 23.339844 20.03125 22.226562 C 20.492188 21.613281 20.855469 20.941406 21.046875 20.1875 C 21.085938 20.03125 21.054688 19.9375 20.898438 19.851562 C 20.441406 19.609375 19.988281 19.367188 19.5 19.191406 C 19.398438 19.15625 19.324219 19.15625 19.234375 19.210938 C 18.921875 19.402344 18.675781 19.664062 18.449219 19.941406 C 17.847656 20.671875 17.257812 21.414062 16.664062 22.148438 C 16.636719 22.179688 16.621094 22.238281 16.566406 22.214844 C 16.515625 22.195312 16.53125 22.140625 16.523438 22.101562 C 16.441406 21.804688 16.382812 21.503906 16.257812 21.222656 C 16.1875 21.058594 16.066406 20.972656 15.894531 20.960938 C 15.734375 20.949219 15.566406 20.941406 15.40625 20.996094 C 15.0625 21.109375 14.726562 21.242188 14.367188 21.296875 C 14.210938 21.320312 14.175781 21.445312 14.199219 21.585938 C 14.230469 21.777344 14.261719 21.972656 14.257812 22.167969 C 14.246094 22.710938 14.332031 23.25 14.390625 23.785156 C 14.429688 24.167969 14.398438 24.558594 14.519531 24.929688 C 14.554688 25.03125 14.507812 25.125 14.445312 25.210938 C 13.925781 25.9375 13.464844 26.707031 13.015625 27.480469 C 12.523438 28.332031 12.027344 29.179688 11.546875 30.039062 C 11.082031 30.875 10.597656 31.699219 10.214844 32.578125 C 10.105469 32.832031 10.15625 32.996094 10.390625 33.128906 C 10.65625 33.28125 10.945312 33.390625 11.175781 33.605469 C 11.222656 33.652344 11.292969 33.679688 11.351562 33.710938 C 11.507812 33.789062 11.652344 33.789062 11.792969 33.675781 C 11.949219 33.550781 12.054688 33.386719 12.15625 33.21875 C 12.28125 33.007812 12.398438 32.789062 12.578125 32.621094 C 13.164062 32.074219 13.613281 31.417969 14.058594 30.761719 C 14.34375 30.347656 14.609375 29.921875 14.886719 29.5 C 14.898438 29.480469 14.921875 29.457031 14.941406 29.457031 C 14.976562 29.457031 14.996094 29.492188 14.992188 29.523438 C 14.960938 29.75 15.046875 29.960938 15.066406 30.175781 C 15.113281 30.714844 15.203125 31.246094 15.332031 31.769531 C 15.363281 31.894531 15.328125 31.953125 15.195312 32.003906 C 14.804688 32.15625 14.410156 32.300781 14.050781 32.527344 C 13.796875 32.691406 13.699219 33.015625 13.835938 33.269531 C 13.894531 33.378906 13.972656 33.484375 14.050781 33.578125 C 14.421875 34.019531 15.046875 34.09375 15.65625 33.90625 C 15.980469 33.804688 16.300781 33.691406 16.625 33.59375 C 16.6875 33.574219 16.769531 33.519531 16.820312 33.574219 C 16.863281 33.628906 16.800781 33.707031 16.792969 33.773438 C 16.789062 33.800781 16.765625 33.828125 16.753906 33.859375 C 16.648438 34.144531 16.535156 34.433594 16.433594 34.722656 C 16.269531 35.183594 16.109375 35.644531 15.953125 36.109375 C 15.785156 36.621094 15.617188 37.132812 15.519531 37.664062 C 15.480469 37.894531 15.53125 38.148438 15.367188 38.351562 C 15.332031 38.398438 15.355469 38.464844 15.386719 38.511719 C 15.449219 38.609375 15.496094 38.71875 15.574219 38.796875 C 15.871094 39.09375 16.328125 39.289062 16.667969 38.769531 C 16.820312 38.535156 16.96875 38.304688 17.097656 38.058594 C 17.210938 37.839844 17.285156 37.59375 17.472656 37.414062 C 17.730469 37.167969 17.921875 36.871094 18.105469 36.570312 C 18.488281 35.9375 18.875 35.304688 19.210938 34.640625 C 19.535156 33.992188 19.890625 33.359375 20.179688 32.691406 C 20.234375 32.5625 20.308594 32.453125 20.480469 32.414062 C 20.667969 32.371094 20.851562 32.300781 21.03125 32.226562 C 21.207031 32.160156 21.28125 32.140625 21.371094 32.363281 C 21.714844 33.210938 22.132812 34.027344 22.578125 34.828125 C 22.648438 34.957031 22.648438 35.03125 22.511719 35.121094 C 21.671875 35.671875 20.828125 36.210938 20.035156 36.832031 C 19.882812 36.949219 19.753906 37.117188 19.527344 37.132812 C 19.3125 37.144531 19.238281 37.253906 19.234375 37.46875 C 19.226562 37.886719 19.429688 38.195312 19.75 38.421875 C 19.988281 38.589844 20.257812 38.664062 20.558594 38.566406 C 20.824219 38.480469 21.070312 38.359375 21.316406 38.234375 C 21.726562 38.027344 22.128906 37.808594 22.535156 37.589844 C 22.65625 37.527344 22.714844 37.546875 22.703125 37.695312 C 22.703125 37.730469 22.695312 37.769531 22.6875 37.804688 C 22.585938 38.328125 22.53125 38.851562 22.601562 39.382812 C 22.617188 39.5 22.609375 39.621094 22.605469 39.742188 C 22.59375 39.957031 22.652344 40.164062 22.71875 40.367188 C 22.753906 40.480469 22.824219 40.507812 22.914062 40.410156 C 22.960938 40.351562 23.011719 40.335938 23.09375 40.363281 C 23.378906 40.464844 23.507812 40.402344 23.6875 40.15625 C 24.046875 39.660156 24.261719 39.082031 24.582031 38.5625 C 24.65625 38.441406 24.6875 38.464844 24.746094 38.546875 C 24.824219 38.660156 24.890625 38.78125 24.96875 38.898438 C 25.273438 39.367188 25.570312 39.839844 25.894531 40.292969 C 26.140625 40.632812 26.371094 40.988281 26.628906 41.320312 C 26.945312 41.726562 27.25 42.144531 27.667969 42.460938 C 27.75 42.523438 27.8125 42.539062 27.910156 42.5 C 28.070312 42.433594 28.230469 42.363281 28.410156 42.320312 C 28.671875 42.261719 28.753906 42.234375 28.632812 41.882812 C 28.480469 41.4375 28.230469 41.046875 28.03125 40.625 C 27.308594 39.089844 26.457031 37.625 25.609375 36.160156 C 25.527344 36.019531 25.566406 35.972656 25.683594 35.902344 C 26.574219 35.371094 27.429688 34.792969 28.285156 34.214844 C 29.105469 33.65625 29.921875 33.101562 30.753906 32.566406 C 31.546875 32.0625 32.328125 31.539062 33.066406 30.957031 C 33.199219 30.851562 33.234375 30.785156 33.082031 30.660156 " fill-opacity="1" fill-rule="nonzero"/></g><path fill="#e85e3f" d="M 30.503906 22.652344 C 30.332031 22.875 30.113281 23.09375 29.78125 23.082031 C 29.714844 23.078125 29.628906 23.128906 29.589844 23 C 29.550781 22.875 29.570312 22.789062 29.660156 22.714844 C 29.75 22.640625 29.859375 22.585938 29.957031 22.515625 C 30.3125 22.253906 30.46875 21.882812 30.507812 21.460938 C 30.527344 21.230469 30.511719 20.996094 30.511719 20.761719 C 30.511719 20.617188 30.550781 20.507812 30.730469 20.507812 C 30.917969 20.503906 30.960938 20.613281 30.964844 20.765625 C 30.964844 20.90625 30.964844 21.042969 30.964844 21.210938 C 31.011719 21.734375 30.828125 22.222656 30.503906 22.652344 Z M 28.65625 23.46875 C 28.53125 23.460938 28.390625 23.371094 28.390625 23.242188 C 28.386719 23.054688 28.46875 22.972656 28.65625 22.96875 C 28.835938 22.96875 28.9375 23.058594 28.949219 23.21875 C 28.957031 23.359375 28.785156 23.472656 28.65625 23.46875 Z M 31.832031 19.726562 C 31.589844 19.445312 31.285156 19.25 30.972656 19.078125 C 30.695312 18.929688 30.375 18.867188 30.0625 18.808594 C 29.671875 18.734375 29.28125 18.769531 28.890625 18.785156 C 28.652344 18.796875 28.410156 18.84375 28.175781 18.917969 C 27.917969 19 27.679688 19.125 27.441406 19.25 C 27.21875 19.367188 27.121094 19.589844 26.9375 19.742188 C 26.742188 19.902344 26.5625 20.085938 26.410156 20.289062 C 26.308594 20.425781 26.222656 20.585938 26.171875 20.75 C 26.097656 21.007812 25.941406 21.246094 25.960938 21.53125 C 25.96875 21.644531 25.960938 21.757812 25.949219 21.871094 C 25.902344 22.316406 26.082031 22.695312 26.3125 23.046875 C 26.507812 23.339844 26.75 23.597656 27.019531 23.832031 C 27.398438 24.167969 27.847656 24.292969 28.324219 24.367188 C 28.507812 24.394531 28.699219 24.371094 28.890625 24.371094 C 29.175781 24.359375 29.464844 24.410156 29.746094 24.300781 C 30.003906 24.195312 30.28125 24.132812 30.519531 23.976562 C 30.832031 23.777344 31.085938 23.527344 31.332031 23.25 C 31.515625 23.042969 31.675781 22.816406 31.78125 22.582031 C 31.972656 22.160156 32.164062 21.730469 32.167969 21.246094 C 32.171875 20.707031 32.214844 20.179688 31.832031 19.726562 " fill-opacity="1" fill-rule="nonzero"/><g clip-path="url(#28c01c0b87)"><path fill="#f7b60c" d="M 22.824219 35.28125 C 22.8125 35.28125 22.71875 35.265625 22.742188 35.375 C 22.757812 35.449219 22.773438 35.5625 22.875 35.542969 C 22.9375 35.53125 23.054688 35.511719 23.054688 35.414062 C 23.054688 35.3125 22.988281 35.253906 22.824219 35.28125 Z M 15.160156 22.667969 C 15.128906 22.664062 15.097656 22.664062 15.066406 22.667969 C 14.984375 22.671875 14.878906 22.65625 14.867188 22.761719 C 14.859375 22.847656 14.953125 22.894531 15.023438 22.933594 C 15.054688 22.949219 15.097656 22.945312 15.125 22.949219 C 15.261719 22.941406 15.375 22.882812 15.375 22.757812 C 15.371094 22.644531 15.242188 22.671875 15.160156 22.667969 Z M 12.878906 18.96875 C 12.820312 18.996094 12.710938 18.960938 12.703125 19.082031 C 12.691406 19.1875 12.863281 19.359375 12.96875 19.359375 C 13.066406 19.355469 13.105469 19.28125 13.097656 19.207031 C 13.089844 19.082031 13.046875 18.972656 12.878906 18.96875 Z M 28.78125 32.367188 C 28.738281 32.394531 28.636719 32.355469 28.625 32.464844 C 28.621094 32.550781 28.855469 32.804688 28.9375 32.796875 C 29.019531 32.785156 29.046875 32.722656 29.050781 32.648438 C 29.058594 32.515625 28.925781 32.371094 28.78125 32.367188 Z M 23.421875 38.269531 C 23.566406 38.273438 23.648438 38.167969 23.667969 38.035156 C 23.6875 37.902344 23.574219 37.917969 23.503906 37.90625 C 23.316406 37.90625 23.144531 37.980469 23.167969 38.054688 C 23.199219 38.183594 23.292969 38.265625 23.421875 38.269531 Z M 25.011719 31.28125 C 24.933594 31.289062 24.867188 31.292969 24.796875 31.304688 C 24.746094 31.316406 24.675781 31.304688 24.660156 31.378906 C 24.648438 31.449219 24.703125 31.492188 24.753906 31.527344 C 24.863281 31.605469 25.195312 31.59375 25.296875 31.507812 C 25.328125 31.480469 25.363281 31.445312 25.355469 31.398438 C 25.347656 31.351562 25.308594 31.328125 25.261719 31.320312 C 25.175781 31.304688 25.089844 31.292969 25.011719 31.28125 Z M 21.597656 36.1875 C 21.582031 36.285156 21.839844 36.558594 21.941406 36.558594 C 22.058594 36.554688 22.101562 36.464844 22.105469 36.367188 C 22.113281 36.242188 21.941406 36.082031 21.792969 36.078125 C 21.726562 36.097656 21.617188 36.066406 21.597656 36.1875 Z M 15.703125 18.046875 C 15.628906 18.058594 15.511719 18.03125 15.496094 18.167969 C 15.480469 18.304688 15.691406 18.546875 15.816406 18.539062 C 15.945312 18.53125 15.960938 18.429688 15.960938 18.335938 C 15.964844 18.160156 15.859375 18.042969 15.703125 18.046875 Z M 16.554688 30.6875 C 16.574219 30.628906 16.542969 30.578125 16.46875 30.570312 C 16.414062 30.566406 16.355469 30.5625 16.300781 30.558594 C 16.195312 30.578125 16.085938 30.554688 15.988281 30.621094 C 15.9375 30.652344 15.910156 30.683594 15.941406 30.742188 C 16.003906 30.855469 16.09375 30.957031 16.230469 30.945312 C 16.382812 30.929688 16.503906 30.839844 16.554688 30.6875 Z M 20.226562 28.203125 C 20.152344 28.230469 20.027344 28.183594 19.996094 28.285156 C 19.960938 28.398438 20.066406 28.464844 20.148438 28.519531 C 20.207031 28.554688 20.273438 28.585938 20.339844 28.589844 C 20.46875 28.605469 20.5625 28.535156 20.59375 28.410156 C 20.625 28.277344 20.503906 28.261719 20.417969 28.234375 C 20.359375 28.214844 20.292969 28.214844 20.226562 28.203125 Z M 20.410156 36.867188 C 20.398438 36.980469 20.660156 37.25 20.753906 37.234375 C 20.882812 37.207031 20.914062 37.101562 20.914062 36.988281 C 20.910156 36.832031 20.804688 36.738281 20.628906 36.742188 C 20.554688 36.765625 20.417969 36.71875 20.410156 36.867188 Z M 27.476562 40.421875 C 27.242188 40.421875 27.074219 40.488281 27.066406 40.578125 C 27.058594 40.675781 27.273438 40.875 27.382812 40.867188 C 27.503906 40.863281 27.691406 40.675781 27.6875 40.546875 C 27.6875 40.382812 27.550781 40.4375 27.476562 40.421875 Z M 23.179688 32.285156 C 23.207031 32.203125 23.195312 32.144531 23.105469 32.128906 C 22.9375 32.101562 22.78125 32.125 22.644531 32.234375 C 22.566406 32.296875 22.550781 32.382812 22.589844 32.472656 C 22.621094 32.546875 22.683594 32.582031 22.761719 32.574219 C 22.917969 32.570312 23.128906 32.417969 23.179688 32.285156 Z M 25.570312 29.246094 C 25.621094 29.246094 25.6875 29.257812 25.75 29.246094 C 25.847656 29.226562 25.890625 29.144531 25.910156 29.054688 C 25.921875 29.003906 25.890625 28.964844 25.84375 28.964844 C 25.644531 28.949219 25.445312 28.898438 25.242188 28.949219 C 25.105469 28.980469 25.125 29.050781 25.199219 29.132812 C 25.296875 29.246094 25.421875 29.261719 25.570312 29.246094 Z M 26.339844 39.132812 C 26.480469 39.101562 26.617188 39.050781 26.734375 38.960938 C 26.777344 38.925781 26.820312 38.886719 26.832031 38.804688 C 26.828125 38.734375 26.765625 38.710938 26.691406 38.707031 C 26.53125 38.695312 26.378906 38.738281 26.234375 38.796875 C 26.164062 38.828125 26.03125 38.828125 26.078125 38.957031 C 26.117188 39.066406 26.210938 39.15625 26.339844 39.132812 Z M 31.511719 31.554688 C 31.609375 31.628906 31.667969 31.59375 31.714844 31.492188 C 31.773438 31.375 31.710938 31.285156 31.648438 31.199219 C 31.574219 31.101562 31.550781 30.941406 31.363281 30.941406 C 31.289062 30.972656 31.121094 30.9375 31.191406 31.117188 C 31.257812 31.285156 31.363281 31.4375 31.511719 31.554688 Z M 13.261719 29.246094 C 13.214844 29.242188 13.164062 29.238281 13.082031 29.234375 C 13.027344 29.238281 12.9375 29.246094 12.851562 29.253906 C 12.789062 29.261719 12.71875 29.273438 12.699219 29.34375 C 12.679688 29.410156 12.726562 29.460938 12.769531 29.507812 C 12.871094 29.617188 13.234375 29.65625 13.347656 29.558594 C 13.414062 29.503906 13.480469 29.433594 13.453125 29.335938 C 13.425781 29.25 13.339844 29.253906 13.261719 29.246094 Z M 23.414062 33.144531 C 23.410156 33.089844 23.375 33.066406 23.332031 33.050781 C 23.171875 32.992188 22.898438 33.101562 22.824219 33.253906 C 22.75 33.410156 22.832031 33.570312 22.988281 33.574219 C 23.144531 33.574219 23.425781 33.292969 23.414062 33.144531 Z M 9.765625 20.308594 C 9.835938 20.359375 9.902344 20.367188 9.964844 20.292969 C 10.042969 20.195312 10.042969 20.082031 9.988281 19.976562 C 9.929688 19.867188 9.902344 19.714844 9.691406 19.734375 C 9.636719 19.773438 9.441406 19.691406 9.484375 19.898438 C 9.523438 20.0625 9.625 20.203125 9.765625 20.308594 Z M 13.863281 16.246094 C 13.90625 16.265625 13.957031 16.269531 13.988281 16.277344 C 14.101562 16.269531 14.195312 16.25 14.289062 16.25 C 14.4375 16.25 14.578125 16.222656 14.710938 16.167969 C 14.75 16.152344 14.796875 16.128906 14.796875 16.078125 C 14.796875 16.019531 14.742188 16.015625 14.703125 16.003906 C 14.648438 15.984375 14.59375 15.96875 14.539062 15.972656 C 14.320312 15.984375 14.101562 16.007812 13.882812 16.03125 C 13.828125 16.035156 13.765625 16.054688 13.761719 16.125 C 13.753906 16.191406 13.8125 16.222656 13.863281 16.246094 Z M 18.117188 21.410156 C 18.015625 21.4375 18.003906 21.5 18.054688 21.582031 C 18.140625 21.722656 18.265625 21.773438 18.425781 21.75 C 18.488281 21.746094 18.554688 21.753906 18.613281 21.738281 C 18.707031 21.710938 18.792969 21.65625 18.789062 21.542969 C 18.785156 21.441406 18.699219 21.417969 18.617188 21.390625 C 18.445312 21.335938 18.28125 21.367188 18.117188 21.410156 Z M 8.699219 28.066406 C 8.726562 28.007812 8.722656 27.941406 8.664062 27.914062 C 8.46875 27.828125 8.277344 27.730469 8.050781 27.800781 C 7.925781 27.835938 7.925781 27.898438 7.996094 27.992188 C 8.117188 28.152344 8.300781 28.171875 8.476562 28.21875 C 8.574219 28.203125 8.65625 28.160156 8.699219 28.066406 Z M 24.085938 34.363281 C 23.996094 34.382812 23.851562 34.363281 23.855469 34.5 C 23.859375 34.621094 23.957031 34.710938 24.078125 34.746094 C 24.132812 34.765625 24.191406 34.761719 24.238281 34.765625 C 24.296875 34.761719 24.347656 34.765625 24.398438 34.753906 C 24.53125 34.722656 24.601562 34.613281 24.597656 34.492188 C 24.597656 34.375 24.476562 34.363281 24.382812 34.359375 C 24.285156 34.351562 24.179688 34.34375 24.085938 34.363281 Z M 19.554688 30.304688 C 19.589844 30.226562 19.59375 30.144531 19.523438 30.101562 C 19.347656 30 19.171875 29.902344 18.953125 29.984375 C 18.859375 30.019531 18.832031 30.066406 18.882812 30.152344 C 18.984375 30.328125 19.148438 30.410156 19.320312 30.453125 C 19.445312 30.457031 19.511719 30.402344 19.554688 30.304688 Z M 11.695312 30.386719 C 11.617188 30.417969 11.605469 30.460938 11.640625 30.53125 C 11.707031 30.679688 11.980469 30.855469 12.152344 30.851562 C 12.28125 30.867188 12.308594 30.757812 12.355469 30.667969 C 12.382812 30.613281 12.402344 30.546875 12.347656 30.492188 C 12.269531 30.417969 11.804688 30.347656 11.695312 30.386719 Z M 16.839844 32.265625 C 16.894531 32.300781 16.953125 32.332031 17.011719 32.28125 C 17.125 32.1875 17.164062 32.058594 17.117188 31.921875 C 17.074219 31.792969 17.019531 31.65625 16.800781 31.679688 C 16.746094 31.734375 16.53125 31.613281 16.5625 31.828125 C 16.589844 32 16.683594 32.160156 16.839844 32.265625 Z M 14.144531 26.726562 C 14.140625 26.726562 14.117188 26.726562 14.089844 26.730469 C 14.019531 26.738281 13.921875 26.726562 13.902344 26.816406 C 13.886719 26.894531 13.949219 26.960938 14.011719 27.003906 C 14.164062 27.113281 14.34375 27.179688 14.527344 27.207031 C 14.632812 27.226562 14.6875 27.152344 14.71875 27.0625 C 14.75 26.980469 14.722656 26.914062 14.644531 26.875 C 14.496094 26.792969 14.34375 26.71875 14.144531 26.726562 Z M 23.328125 29.917969 C 23.238281 29.9375 23.128906 29.941406 23.113281 30.0625 C 23.089844 30.234375 23.070312 30.402344 23.21875 30.539062 C 23.347656 30.65625 23.429688 30.648438 23.515625 30.5 C 23.578125 30.390625 23.59375 30.273438 23.597656 30.152344 C 23.605469 29.9375 23.542969 29.878906 23.328125 29.917969 Z M 17.429688 34.578125 C 17.554688 34.570312 17.601562 34.480469 17.636719 34.386719 C 17.667969 34.289062 17.628906 34.207031 17.539062 34.167969 C 17.421875 34.113281 17.308594 34.039062 17.128906 34.042969 C 17.101562 34.046875 17.035156 34.058594 16.96875 34.074219 C 16.890625 34.097656 16.859375 34.144531 16.894531 34.230469 C 16.96875 34.421875 17.226562 34.589844 17.429688 34.578125 Z M 26.550781 27.371094 C 26.613281 27.324219 26.671875 27.269531 26.648438 27.183594 C 26.628906 27.105469 26.554688 27.085938 26.484375 27.082031 C 26.382812 27.078125 26.28125 27.082031 26.179688 27.082031 C 26.179688 27.078125 26.179688 27.074219 26.179688 27.074219 C 26.0625 27.078125 25.941406 27.074219 25.824219 27.09375 C 25.757812 27.101562 25.667969 27.109375 25.652344 27.1875 C 25.632812 27.273438 25.714844 27.328125 25.773438 27.382812 C 25.8125 27.414062 25.855469 27.417969 25.898438 27.417969 C 26.0625 27.417969 26.226562 27.417969 26.390625 27.417969 C 26.449219 27.417969 26.503906 27.40625 26.550781 27.371094 Z M 22.105469 25.058594 C 22.125 24.980469 22.082031 24.917969 22 24.910156 C 21.859375 24.902344 21.734375 24.828125 21.589844 24.835938 C 21.519531 24.847656 21.449219 24.84375 21.386719 24.867188 C 21.324219 24.890625 21.230469 24.878906 21.21875 24.96875 C 21.207031 25.050781 21.269531 25.113281 21.328125 25.152344 C 21.5 25.269531 21.703125 25.316406 21.902344 25.320312 C 22.046875 25.324219 22.074219 25.175781 22.105469 25.058594 Z M 15.539062 21.871094 C 15.503906 21.757812 15.378906 21.816406 15.304688 21.800781 C 15.101562 21.800781 14.921875 21.855469 14.742188 21.914062 C 14.59375 21.964844 14.578125 22.023438 14.6875 22.128906 C 14.84375 22.285156 15.246094 22.3125 15.410156 22.167969 C 15.492188 22.09375 15.574219 21.988281 15.539062 21.871094 Z M 16.347656 24.039062 C 16.179688 24.09375 16.152344 24.15625 16.273438 24.28125 C 16.425781 24.441406 16.636719 24.382812 16.777344 24.433594 C 16.863281 24.433594 16.910156 24.445312 16.949219 24.433594 C 17.074219 24.398438 17.117188 24.289062 17.140625 24.179688 C 17.15625 24.101562 17.101562 24.058594 17.03125 24.050781 C 16.804688 24.03125 16.578125 23.960938 16.347656 24.039062 Z M 16.492188 29.683594 C 16.601562 29.617188 16.703125 29.519531 16.675781 29.378906 C 16.648438 29.242188 16.511719 29.257812 16.398438 29.253906 C 16.367188 29.25 16.335938 29.253906 16.269531 29.253906 C 16.171875 29.246094 16.042969 29.261719 15.917969 29.304688 C 15.792969 29.347656 15.796875 29.414062 15.851562 29.503906 C 15.964844 29.707031 16.296875 29.804688 16.492188 29.683594 Z M 9.261719 26.5625 C 9.382812 26.5625 9.449219 26.492188 9.460938 26.378906 C 9.46875 26.265625 9.402344 26.195312 9.300781 26.179688 C 9.183594 26.160156 9.0625 26.160156 8.988281 26.15625 C 8.855469 26.15625 8.769531 26.152344 8.679688 26.15625 C 8.613281 26.160156 8.527344 26.140625 8.5 26.222656 C 8.472656 26.308594 8.546875 26.363281 8.601562 26.410156 C 8.796875 26.574219 9.03125 26.566406 9.261719 26.5625 Z M 15.539062 32.15625 C 15.570312 32.371094 15.644531 32.585938 15.839844 32.726562 C 15.886719 32.761719 15.949219 32.804688 16.007812 32.75 C 16.117188 32.652344 16.183594 32.527344 16.125 32.382812 C 16.0625 32.222656 16.070312 31.996094 15.792969 32.011719 C 15.703125 32.039062 15.515625 31.976562 15.539062 32.15625 Z M 27.976562 28.742188 C 27.9375 28.847656 27.902344 28.957031 27.910156 29.117188 C 27.910156 29.113281 27.914062 29.160156 27.929688 29.199219 C 27.980469 29.296875 28.039062 29.402344 28.152344 29.40625 C 28.257812 29.410156 28.308594 29.304688 28.34375 29.21875 C 28.386719 29.109375 28.414062 28.992188 28.449219 28.878906 C 28.480469 28.773438 28.480469 28.679688 28.355469 28.632812 C 28.203125 28.578125 28.011719 28.628906 27.976562 28.742188 Z M 20.792969 26.253906 C 20.648438 26.300781 20.652344 26.371094 20.730469 26.472656 C 20.859375 26.648438 21.046875 26.679688 21.25 26.671875 C 21.3125 26.671875 21.375 26.679688 21.4375 26.667969 C 21.570312 26.648438 21.605469 26.53125 21.644531 26.425781 C 21.664062 26.363281 21.628906 26.296875 21.574219 26.296875 C 21.3125 26.28125 21.058594 26.171875 20.792969 26.253906 Z M 25.945312 37.746094 C 25.691406 37.746094 25.492188 37.875 25.308594 38.03125 C 25.253906 38.074219 25.265625 38.128906 25.289062 38.183594 C 25.378906 38.382812 25.558594 38.433594 25.746094 38.316406 C 25.886719 38.230469 26.003906 38.121094 26.078125 37.96875 C 26.152344 37.816406 26.113281 37.746094 25.945312 37.746094 Z M 18.992188 31.769531 C 19.160156 31.761719 19.179688 31.617188 19.226562 31.507812 C 19.257812 31.433594 19.257812 31.34375 19.167969 31.316406 C 18.945312 31.242188 18.71875 31.15625 18.472656 31.238281 C 18.335938 31.28125 18.328125 31.351562 18.398438 31.460938 C 18.535156 31.683594 18.765625 31.722656 18.992188 31.769531 Z M 18.316406 33.320312 C 18.375 33.222656 18.441406 33.105469 18.324219 33.015625 C 18.15625 32.894531 17.972656 32.800781 17.773438 32.777344 C 17.671875 32.800781 17.554688 32.773438 17.511719 32.875 C 17.464844 32.976562 17.554688 33.050781 17.617188 33.117188 C 17.742188 33.253906 17.917969 33.3125 18.078125 33.390625 C 18.191406 33.445312 18.261719 33.410156 18.316406 33.320312 Z M 11.480469 22.324219 C 11.617188 22.324219 11.757812 22.324219 11.894531 22.324219 C 12.023438 22.324219 12.109375 22.253906 12.179688 22.160156 C 12.226562 22.09375 12.214844 22.035156 12.121094 22.035156 C 11.753906 22.035156 11.390625 22.035156 11.023438 22.046875 C 10.953125 22.050781 10.835938 22.066406 10.851562 22.175781 C 10.859375 22.273438 10.953125 22.320312 11.046875 22.324219 C 11.191406 22.332031 11.335938 22.324219 11.480469 22.324219 Z M 12.742188 17.910156 C 12.882812 17.949219 13.03125 17.929688 13.191406 17.917969 C 13.371094 17.917969 13.566406 17.914062 13.753906 17.84375 C 13.832031 17.8125 13.933594 17.769531 13.914062 17.664062 C 13.898438 17.558594 13.792969 17.574219 13.710938 17.570312 C 13.394531 17.542969 13.085938 17.632812 12.769531 17.628906 C 12.6875 17.628906 12.582031 17.640625 12.574219 17.734375 C 12.566406 17.824219 12.648438 17.886719 12.742188 17.910156 Z M 22.519531 30.441406 C 22.519531 30.136719 22.441406 30.082031 22.144531 30.164062 C 22.0625 30.1875 22.015625 30.222656 22.007812 30.3125 C 22 30.417969 21.988281 30.523438 21.96875 30.628906 C 21.941406 30.796875 22.015625 30.921875 22.136719 31.023438 C 22.25 31.121094 22.339844 31.121094 22.429688 30.984375 C 22.519531 30.84375 22.53125 30.691406 22.519531 30.570312 C 22.519531 30.503906 22.519531 30.472656 22.519531 30.441406 Z M 10.082031 23.710938 C 9.949219 23.679688 9.78125 23.675781 9.699219 23.824219 C 9.652344 23.90625 9.867188 24.113281 10.019531 24.148438 C 10.175781 24.183594 10.328125 24.210938 10.457031 24.203125 C 10.5625 24.203125 10.640625 24.207031 10.714844 24.203125 C 10.84375 24.191406 10.980469 24.027344 10.964844 23.894531 C 10.945312 23.746094 10.824219 23.757812 10.71875 23.757812 C 10.507812 23.75 10.296875 23.757812 10.082031 23.710938 Z M 15.429688 33.507812 C 15.382812 33.519531 15.34375 33.5625 15.296875 33.507812 C 15.070312 33.230469 14.742188 33.082031 14.476562 32.851562 C 14.25 32.65625 13.980469 32.65625 13.710938 32.683594 C 13.535156 32.703125 13.503906 32.769531 13.605469 32.902344 C 13.863281 33.242188 14.125 33.582031 14.445312 33.867188 C 14.535156 33.945312 14.640625 34.042969 14.777344 33.925781 C 14.824219 33.882812 14.859375 33.933594 14.886719 33.960938 C 15.027344 34.089844 15.167969 34.085938 15.304688 33.957031 C 15.347656 33.914062 15.398438 33.898438 15.453125 33.882812 C 15.722656 33.796875 15.976562 33.679688 16.203125 33.441406 C 15.910156 33.371094 15.667969 33.4375 15.429688 33.507812 Z M 14.957031 18.078125 C 15.261719 18.007812 15.570312 17.949219 15.859375 17.8125 C 15.914062 17.789062 15.9375 17.757812 15.886719 17.699219 C 15.855469 17.667969 15.878906 17.632812 15.890625 17.59375 C 15.996094 17.292969 16.109375 16.996094 16.199219 16.691406 C 16.273438 16.433594 16.394531 16.1875 16.417969 15.882812 C 16.3125 15.761719 16.304688 15.550781 16.160156 15.425781 C 15.992188 15.285156 15.84375 15.308594 15.785156 15.472656 C 15.488281 16.308594 15.191406 17.144531 14.894531 17.980469 C 14.863281 18.058594 14.878906 18.097656 14.957031 18.078125 Z M 22.78125 36.851562 C 22.800781 36.792969 22.800781 36.738281 22.746094 36.699219 C 22.648438 36.621094 22.304688 36.664062 22.261719 36.777344 C 22.214844 36.90625 22.117188 36.941406 22.015625 36.988281 C 21.511719 37.242188 21.003906 37.492188 20.523438 37.789062 C 20.324219 37.910156 20.121094 38.023438 19.921875 38.148438 C 19.867188 38.183594 19.773438 38.21875 19.800781 38.3125 C 19.84375 38.464844 20.117188 38.652344 20.308594 38.648438 C 20.335938 38.640625 20.402344 38.640625 20.457031 38.613281 C 21.125 38.300781 21.800781 38.007812 22.425781 37.617188 C 22.519531 37.558594 22.578125 37.464844 22.617188 37.367188 C 22.679688 37.199219 22.726562 37.023438 22.78125 36.851562 Z M 20.285156 32.738281 C 20.597656 32.648438 20.917969 32.566406 21.21875 32.445312 C 21.410156 32.367188 21.441406 32.457031 21.488281 32.59375 C 21.6875 33.160156 21.925781 33.714844 22.207031 34.25 C 22.296875 34.417969 22.40625 34.570312 22.554688 34.691406 C 22.636719 34.761719 22.710938 34.773438 22.746094 34.636719 C 22.785156 34.492188 22.804688 34.347656 22.765625 34.191406 C 22.609375 33.5625 22.3125 32.984375 22.050781 32.390625 C 21.996094 32.265625 22 32.222656 22.132812 32.1875 C 22.742188 32.035156 23.324219 31.792969 23.917969 31.601562 C 24.128906 31.53125 24.214844 31.375 24.273438 31.191406 C 24.304688 31.097656 24.277344 31.023438 24.144531 31.023438 C 23.980469 31.023438 23.816406 31.027344 23.660156 31.089844 C 22.648438 31.507812 21.582031 31.761719 20.542969 32.148438 C 20.546875 32.070312 20.585938 32.019531 20.617188 31.964844 C 20.949219 31.398438 21.234375 30.808594 21.472656 30.199219 C 21.570312 29.957031 21.648438 29.707031 21.753906 29.46875 C 22.34375 28.136719 22.984375 26.824219 23.410156 25.425781 C 23.535156 25.019531 23.660156 24.613281 23.699219 24.1875 C 23.722656 23.90625 23.699219 23.632812 23.511719 23.398438 C 23.445312 23.320312 23.363281 23.234375 23.253906 23.316406 C 23.15625 23.390625 23.0625 23.496094 23.121094 23.636719 C 23.222656 23.898438 23.1875 24.164062 23.136719 24.417969 C 23.035156 24.890625 22.882812 25.351562 22.722656 25.808594 C 22.328125 26.917969 21.832031 27.984375 21.347656 29.054688 C 20.511719 30.894531 19.523438 32.648438 18.492188 34.382812 C 17.703125 35.703125 16.996094 37.066406 16.421875 38.496094 C 16.34375 38.695312 16.273438 38.894531 16.25 39.109375 C 16.335938 39.019531 16.414062 38.917969 16.484375 38.816406 C 16.636719 38.601562 16.734375 38.351562 16.914062 38.152344 C 17.292969 37.738281 17.648438 37.304688 17.921875 36.8125 C 18.644531 35.496094 19.457031 34.234375 20.140625 32.894531 C 20.171875 32.832031 20.191406 32.761719 20.285156 32.738281 Z M 16.78125 27.117188 C 16.796875 27.09375 16.8125 27.0625 16.875 27.066406 C 16.878906 27.09375 16.886719 27.121094 16.882812 27.144531 C 16.863281 28.492188 16.953125 29.839844 16.921875 31.191406 C 16.917969 31.40625 16.917969 31.402344 17.101562 31.3125 C 17.179688 31.273438 17.261719 31.226562 17.347656 31.222656 C 17.539062 31.207031 17.535156 31.09375 17.539062 30.949219 C 17.554688 29.960938 17.511719 28.972656 17.472656 27.984375 C 17.460938 27.636719 17.433594 27.296875 17.371094 26.953125 C 17.328125 26.703125 17.367188 26.4375 17.335938 26.179688 C 17.332031 26.132812 17.378906 26.078125 17.410156 26.03125 C 17.664062 25.660156 17.921875 25.296875 18.167969 24.925781 C 19.195312 23.394531 20.289062 21.910156 21.121094 20.257812 C 21.144531 20.207031 21.199219 20.164062 21.152344 20.105469 C 21.117188 20.054688 21.050781 20.054688 20.996094 20.074219 C 20.765625 20.152344 20.453125 20.109375 20.390625 20.457031 C 20.386719 20.492188 20.347656 20.519531 20.324219 20.550781 C 20.214844 20.710938 20.097656 20.867188 19.992188 21.03125 C 19.296875 22.082031 18.613281 23.144531 17.824219 24.128906 C 16.886719 25.308594 15.902344 26.449219 14.988281 27.648438 C 14.285156 28.574219 13.765625 29.613281 13.109375 30.570312 C 12.667969 31.214844 12.316406 31.914062 12.003906 32.628906 C 11.875 32.925781 11.703125 33.199219 11.609375 33.507812 C 11.570312 33.648438 11.613281 33.714844 11.753906 33.722656 C 11.84375 33.726562 11.914062 33.6875 11.980469 33.640625 C 12.164062 33.507812 12.296875 33.332031 12.421875 33.148438 C 13.246094 31.96875 14.082031 30.792969 14.914062 29.617188 C 15.515625 28.765625 16.207031 27.984375 16.78125 27.117188 Z M 14.253906 21.070312 C 14.511719 20.664062 14.757812 20.246094 14.96875 19.808594 C 15.015625 19.707031 15.050781 19.625 15.183594 19.589844 C 15.644531 19.480469 16.105469 19.347656 16.566406 19.226562 C 17.171875 19.066406 17.785156 18.953125 18.347656 18.660156 C 18.398438 18.628906 18.488281 18.613281 18.472656 18.539062 C 18.453125 18.460938 18.363281 18.492188 18.308594 18.5 C 17.929688 18.550781 17.546875 18.582031 17.175781 18.667969 C 16.515625 18.816406 15.84375 18.882812 15.1875 19.054688 C 14.324219 19.277344 13.453125 19.488281 12.585938 19.710938 C 11.835938 19.902344 11.097656 20.136719 10.359375 20.375 C 9.097656 20.777344 7.863281 21.242188 6.664062 21.804688 C 6.597656 21.832031 6.546875 21.835938 6.472656 21.8125 C 6.15625 21.707031 5.84375 21.585938 5.507812 21.574219 C 5.480469 21.570312 5.457031 21.566406 5.429688 21.566406 C 5.351562 21.574219 5.253906 21.542969 5.207031 21.625 C 5.15625 21.714844 5.25 21.773438 5.296875 21.832031 C 5.535156 22.144531 5.871094 22.34375 6.183594 22.5625 C 6.300781 22.640625 6.464844 22.710938 6.589844 22.644531 C 6.828125 22.519531 7.082031 22.453125 7.324219 22.34375 C 8.496094 21.816406 9.722656 21.445312 10.976562 21.160156 C 11.667969 21 12.363281 20.855469 13.046875 20.652344 C 13.121094 20.632812 13.207031 20.550781 13.273438 20.621094 C 13.339844 20.699219 13.300781 20.804688 13.265625 20.890625 C 13.175781 21.097656 13.085938 21.308594 12.984375 21.511719 C 12.410156 22.671875 11.75 23.78125 11.089844 24.894531 C 10.171875 26.4375 9.394531 28.0625 8.429688 29.582031 C 8.394531 29.636719 8.3125 29.699219 8.398438 29.777344 C 8.488281 29.859375 8.585938 29.929688 8.71875 29.890625 C 8.8125 29.863281 8.847656 29.796875 8.835938 29.703125 C 8.828125 29.65625 8.847656 29.617188 8.875 29.582031 C 9.160156 29.140625 9.4375 28.6875 9.738281 28.253906 C 10.46875 27.207031 11.199219 26.160156 11.867188 25.070312 C 12.675781 23.746094 13.429688 22.386719 14.253906 21.070312 Z M 32.972656 30.871094 C 32.59375 31.046875 32.25 31.277344 31.917969 31.527344 C 31.542969 31.804688 31.183594 32.097656 30.734375 32.28125 C 29.175781 32.917969 27.757812 33.816406 26.355469 34.738281 C 26.109375 34.894531 25.878906 35.074219 25.601562 35.269531 C 25.773438 34.71875 25.925781 34.21875 26.09375 33.675781 C 26.175781 33.875 26.191406 34.046875 26.320312 34.160156 C 26.394531 34.230469 26.464844 34.261719 26.539062 34.15625 C 26.640625 34.003906 26.542969 33.875 26.492188 33.746094 C 26.453125 33.648438 26.394531 33.546875 26.257812 33.566406 C 26.125 33.585938 26.132812 33.535156 26.164062 33.425781 C 26.425781 32.515625 26.679688 31.601562 26.933594 30.6875 C 26.953125 30.617188 26.980469 30.585938 27.050781 30.570312 C 27.410156 30.484375 27.753906 30.34375 28.097656 30.21875 C 28.328125 30.136719 28.566406 30.128906 28.796875 30.0625 C 28.960938 30.015625 29.035156 29.867188 29.023438 29.730469 C 29.011719 29.574219 28.84375 29.613281 28.730469 29.605469 C 28.6875 29.601562 28.640625 29.613281 28.597656 29.617188 C 28.164062 29.6875 27.742188 29.796875 27.34375 29.996094 C 27.234375 30.050781 27.21875 30.003906 27.238281 29.898438 C 27.277344 29.695312 27.308594 29.488281 27.339844 29.285156 C 27.449219 28.542969 27.585938 27.808594 27.726562 27.074219 C 27.769531 26.851562 27.804688 26.628906 27.832031 26.40625 C 27.84375 26.292969 27.835938 26.160156 27.660156 26.183594 C 27.445312 26.210938 27.273438 26.371094 27.234375 26.578125 C 27.085938 27.402344 26.847656 28.203125 26.628906 29.011719 C 26.289062 30.28125 25.929688 31.542969 25.558594 32.804688 C 25.15625 34.171875 24.734375 35.535156 24.3125 36.898438 C 23.996094 37.925781 23.546875 38.910156 23.332031 39.96875 C 23.308594 40.074219 23.25 40.074219 23.167969 40.078125 C 23.011719 40.082031 22.855469 40.0625 22.703125 40.121094 C 22.589844 40.164062 22.574219 40.226562 22.617188 40.324219 C 22.722656 40.574219 23.027344 40.703125 23.277344 40.59375 C 23.355469 40.558594 23.425781 40.546875 23.507812 40.578125 C 23.628906 40.625 23.710938 40.578125 23.777344 40.46875 C 23.875 40.292969 23.945312 40.105469 24.015625 39.917969 C 24.199219 39.441406 24.316406 38.9375 24.609375 38.511719 C 25.304688 39.507812 25.953125 40.542969 26.769531 41.453125 C 26.953125 41.65625 27.15625 41.832031 27.386719 41.976562 C 27.4375 42.003906 27.496094 42.027344 27.546875 41.988281 C 27.601562 41.945312 27.546875 41.898438 27.53125 41.855469 C 27.40625 41.488281 27.230469 41.148438 27 40.839844 C 26.6875 40.417969 26.382812 39.996094 26.066406 39.578125 C 25.777344 39.1875 25.488281 38.796875 25.160156 38.4375 C 25.085938 38.355469 25.015625 38.242188 24.886719 38.257812 C 24.667969 38.285156 24.675781 38.1875 24.734375 38.03125 C 24.972656 37.40625 25.382812 36.863281 25.605469 36.230469 C 25.664062 36.058594 25.785156 35.96875 25.9375 35.890625 C 26.933594 35.363281 27.929688 34.828125 28.878906 34.21875 C 29.886719 33.574219 30.953125 33.03125 31.941406 32.355469 C 32.269531 32.128906 32.621094 31.941406 32.953125 31.726562 C 33.269531 31.527344 33.371094 31.320312 33.308594 31.046875 C 33.257812 30.820312 33.175781 30.777344 32.972656 30.871094 Z M 44.128906 24.664062 C 44.082031 23.585938 43.839844 22.542969 43.355469 21.5625 C 42.929688 20.695312 42.351562 19.941406 41.628906 19.300781 C 41.328125 19.035156 40.996094 18.804688 40.570312 18.808594 C 40.261719 18.816406 39.957031 18.863281 39.648438 18.886719 C 39.496094 18.898438 39.367188 18.953125 39.246094 19.035156 C 38.414062 19.613281 37.792969 20.371094 37.363281 21.28125 C 37.214844 21.597656 37.089844 21.921875 36.964844 22.246094 C 36.65625 23.058594 36.3125 23.851562 35.730469 24.527344 C 35.425781 24.878906 35.121094 25.253906 34.980469 25.71875 C 34.8125 26.269531 34.574219 26.804688 34.707031 27.40625 C 34.804688 27.835938 35.003906 28.167969 35.445312 28.308594 C 35.800781 28.421875 36.164062 28.472656 36.546875 28.449219 C 36.769531 28.484375 37.003906 28.453125 37.238281 28.433594 C 38.300781 28.347656 39.347656 28.148438 40.410156 28.046875 C 40.707031 28.019531 41.011719 27.960938 41.300781 27.875 C 41.671875 27.761719 42.042969 27.632812 42.402344 27.46875 C 42.847656 27.269531 43.230469 26.996094 43.550781 26.628906 C 44.039062 26.0625 44.160156 25.367188 44.128906 24.664062 Z M 19.097656 15.101562 C 19.394531 15.605469 19.679688 16.054688 20.246094 16.285156 C 20.832031 16.519531 21.433594 16.652344 22.058594 16.722656 C 22.617188 16.789062 23.175781 16.738281 23.734375 16.71875 C 24.203125 16.707031 24.664062 16.65625 25.128906 16.597656 C 25.59375 16.535156 26.0625 16.441406 26.539062 16.472656 C 26.957031 16.5 27.367188 16.453125 27.773438 16.355469 C 28.308594 16.226562 28.808594 16.050781 29.171875 15.601562 C 29.476562 15.230469 29.695312 14.839844 29.714844 14.347656 C 29.742188 13.714844 29.621094 13.125 29.382812 12.542969 C 28.96875 11.53125 28.605469 10.496094 27.933594 9.609375 C 27.632812 9.214844 27.332031 8.824219 27.007812 8.445312 C 26.902344 8.320312 26.800781 8.183594 26.617188 8.351562 C 26.601562 8.363281 26.570312 8.371094 26.546875 8.367188 C 26.414062 8.335938 26.382812 8.410156 26.347656 8.523438 C 26.203125 8.980469 25.695312 9.277344 25.269531 9.164062 C 25.054688 9.109375 24.886719 8.976562 24.726562 8.820312 C 24.703125 8.855469 24.671875 8.882812 24.664062 8.917969 C 24.554688 9.238281 24.320312 9.457031 24.074219 9.664062 C 23.699219 9.984375 23.453125 9.972656 23.105469 9.625 C 23.054688 9.570312 22.996094 9.519531 22.945312 9.464844 C 22.851562 9.351562 22.761719 9.335938 22.65625 9.457031 C 22.597656 9.523438 22.527344 9.578125 22.453125 9.625 C 22.132812 9.835938 21.90625 9.753906 21.792969 9.390625 C 21.710938 9.109375 21.679688 8.820312 21.671875 8.53125 C 21.667969 8.386719 21.636719 8.347656 21.484375 8.398438 C 21.101562 8.519531 20.859375 8.433594 20.703125 8.109375 C 20.625 7.941406 20.558594 8 20.507812 8.097656 C 20.394531 8.308594 20.234375 8.488281 20.105469 8.6875 C 19.828125 9.117188 19.601562 9.570312 19.4375 10.046875 C 19.207031 10.710938 19.074219 11.398438 18.90625 12.078125 C 18.78125 12.585938 18.757812 13.101562 18.804688 13.617188 C 18.851562 14.121094 18.8125 14.621094 19.097656 15.101562 Z M 36.253906 17.378906 C 35.582031 17.699219 34.878906 17.894531 34.128906 17.917969 C 33.828125 17.925781 33.570312 17.828125 33.339844 17.652344 C 32.730469 17.191406 32.320312 16.597656 32.089844 15.859375 C 31.953125 15.425781 31.847656 14.996094 31.863281 14.535156 C 31.898438 13.746094 32.125 13.019531 32.535156 12.347656 C 33.027344 11.53125 33.714844 10.875 34.324219 10.152344 C 34.800781 9.589844 35.378906 9.140625 35.90625 8.636719 C 36.007812 8.539062 36.128906 8.492188 36.265625 8.445312 C 36.625 8.324219 36.984375 8.28125 37.359375 8.296875 C 37.441406 8.300781 37.523438 8.296875 37.660156 8.296875 C 38.683594 8.175781 39.585938 8.667969 40.480469 9.15625 C 41.332031 9.621094 41.941406 10.296875 42.257812 11.230469 C 42.351562 11.515625 42.515625 11.769531 42.585938 12.070312 C 42.683594 12.460938 42.648438 12.84375 42.535156 13.207031 C 42.378906 13.707031 42.203125 14.207031 41.902344 14.648438 C 41.382812 15.40625 40.738281 16.039062 39.90625 16.453125 C 39.492188 16.65625 39.039062 16.734375 38.585938 16.742188 C 37.75 16.757812 36.992188 17.03125 36.253906 17.378906 " fill-opacity="1" fill-rule="nonzero"/></g><path fill="#ef8832" d="M 37.875 26.257812 C 37.625 25.914062 37.355469 25.597656 36.96875 25.402344 C 36.804688 25.320312 36.71875 25.359375 36.667969 25.53125 C 36.617188 25.710938 36.628906 25.894531 36.691406 26.066406 C 36.8125 26.390625 37.035156 26.652344 37.246094 26.921875 C 37.34375 27.046875 37.488281 27.152344 37.648438 27.171875 C 37.816406 27.164062 37.953125 27.113281 38.085938 27.058594 C 38.171875 27.027344 38.195312 26.957031 38.175781 26.859375 C 38.136719 26.625 38.011719 26.441406 37.875 26.257812 Z M 35.089844 14.578125 C 34.898438 14.300781 34.683594 14.046875 34.398438 13.863281 C 34.269531 13.78125 34.125 13.617188 33.960938 13.710938 C 33.792969 13.808594 33.84375 14.023438 33.820312 14.171875 C 33.828125 14.253906 33.832031 14.308594 33.84375 14.363281 C 33.898438 14.75 34.113281 15.058594 34.335938 15.367188 C 34.613281 15.75 34.8125 15.828125 35.25 15.675781 C 35.539062 15.574219 35.621094 15.375 35.460938 15.117188 C 35.347656 14.929688 35.210938 14.757812 35.089844 14.578125 Z M 27.144531 12.660156 C 26.890625 12.664062 26.636719 12.664062 26.460938 12.898438 C 26.121094 13.355469 25.898438 13.867188 25.796875 14.421875 C 25.734375 14.761719 25.792969 15.078125 26.113281 15.289062 C 26.21875 15.355469 26.308594 15.355469 26.40625 15.273438 C 26.644531 15.066406 26.777344 14.792969 26.863281 14.503906 C 27.015625 14.015625 27.207031 13.546875 27.421875 13.085938 C 27.589844 12.726562 27.542969 12.660156 27.144531 12.660156 Z M 39.9375 25.414062 C 39.691406 24.953125 39.347656 24.558594 38.988281 24.179688 C 38.769531 23.945312 38.515625 23.746094 38.226562 23.597656 C 38.097656 23.535156 37.976562 23.503906 37.894531 23.671875 C 37.746094 23.964844 37.804688 24.511719 38.03125 24.742188 C 38.339844 25.050781 38.59375 25.402344 38.878906 25.730469 C 39.121094 26.011719 39.394531 26.246094 39.769531 26.332031 C 39.820312 26.34375 39.871094 26.367188 39.910156 26.320312 C 40 26.210938 40.125 26.117188 40.105469 25.949219 C 40.089844 25.761719 40.03125 25.585938 39.9375 25.414062 Z M 37.679688 14.160156 C 37.65625 14.050781 37.613281 13.949219 37.5625 13.84375 C 37.4375 13.578125 37.222656 13.378906 37.03125 13.171875 C 36.605469 12.710938 36.121094 12.320312 35.574219 12.015625 C 35.191406 11.800781 35.03125 11.921875 35.050781 12.363281 C 35.054688 12.367188 35.054688 12.375 35.054688 12.378906 C 35.074219 12.808594 35.152344 12.839844 35.503906 13.214844 C 35.832031 13.5625 36.207031 13.859375 36.546875 14.199219 C 36.742188 14.394531 36.960938 14.585938 37.269531 14.605469 C 37.542969 14.625 37.734375 14.425781 37.679688 14.160156 Z M 25.566406 10.957031 C 25.078125 10.871094 24.648438 10.886719 24.402344 11.414062 C 24.179688 11.890625 24.003906 12.378906 23.851562 12.882812 C 23.730469 13.28125 23.632812 13.683594 23.621094 14.101562 C 23.597656 14.414062 23.757812 14.675781 23.855469 14.949219 C 23.933594 15.167969 24.171875 15.191406 24.269531 14.996094 C 24.410156 14.726562 24.578125 14.464844 24.644531 14.15625 C 24.71875 13.800781 24.804688 13.445312 24.910156 13.09375 C 25.097656 12.453125 25.285156 11.8125 25.652344 11.242188 C 25.71875 11.140625 25.742188 10.988281 25.566406 10.957031 Z M 36.277344 10.703125 C 36.699219 11 37.148438 11.253906 37.554688 11.574219 C 38.101562 12.003906 38.621094 12.457031 39.109375 12.953125 C 39.574219 13.429688 40.039062 13.910156 40.613281 14.261719 C 40.675781 14.300781 40.734375 14.289062 40.792969 14.269531 C 40.832031 14.253906 40.863281 14.226562 40.847656 14.183594 C 40.769531 13.949219 40.792969 13.691406 40.664062 13.460938 C 40.339844 12.867188 39.910156 12.355469 39.421875 11.894531 C 38.792969 11.304688 38.132812 10.746094 37.386719 10.308594 C 37.070312 10.121094 36.75 9.949219 36.371094 9.933594 C 36.097656 9.917969 35.996094 10.039062 36.019531 10.308594 C 36.035156 10.496094 36.140625 10.609375 36.277344 10.703125 Z M 42.519531 25.261719 C 42.476562 24.648438 42.273438 24.082031 41.933594 23.566406 C 41.648438 23.132812 41.320312 22.722656 40.972656 22.335938 C 40.507812 21.824219 39.992188 21.375 39.367188 21.058594 C 38.910156 20.828125 38.753906 20.925781 38.742188 21.460938 C 38.734375 21.589844 38.777344 21.714844 38.875 21.824219 C 38.992188 21.949219 39.109375 22.070312 39.242188 22.179688 C 40.460938 23.195312 41.316406 24.464844 41.855469 25.949219 C 41.886719 26.027344 41.816406 26.144531 41.917969 26.191406 C 42.042969 26.242188 42.046875 26.082031 42.128906 26.042969 C 42.453125 25.882812 42.542969 25.582031 42.519531 25.261719 Z M 23.082031 9.476562 C 23.464844 9.863281 23.460938 9.859375 23.183594 10.3125 C 22.699219 11.109375 22.253906 11.925781 22.050781 12.847656 C 21.949219 13.296875 21.878906 13.75 21.832031 14.207031 C 21.8125 14.429688 21.765625 14.644531 21.65625 14.839844 C 21.503906 15.121094 21.363281 15.125 21.140625 14.890625 C 20.808594 14.535156 20.746094 14.105469 20.75 13.648438 C 20.761719 12.464844 21.203125 11.425781 21.804688 10.4375 C 21.878906 10.320312 21.949219 10.203125 22.023438 10.085938 C 22.140625 9.894531 22.242188 9.699219 22.507812 9.667969 C 22.640625 9.65625 22.742188 9.546875 22.84375 9.460938 C 22.933594 9.386719 22.996094 9.390625 23.082031 9.476562 " fill-opacity="1" fill-rule="nonzero"/><path fill="#fbda80" d="M 28.945312 23.207031 C 28.945312 23.382812 28.851562 23.464844 28.65625 23.46875 C 28.46875 23.46875 28.363281 23.382812 28.367188 23.230469 C 28.375 23.097656 28.542969 22.953125 28.6875 22.953125 C 28.851562 22.953125 28.941406 23.046875 28.945312 23.207031 Z M 30.949219 21.214844 C 31.003906 21.652344 30.886719 22.046875 30.664062 22.417969 C 30.503906 22.6875 30.3125 22.925781 30.023438 23.070312 C 29.855469 23.152344 29.648438 23.148438 29.589844 23.054688 C 29.523438 22.941406 29.628906 22.710938 29.785156 22.613281 C 30.246094 22.324219 30.523438 21.9375 30.492188 21.371094 C 30.480469 21.171875 30.476562 20.964844 30.496094 20.765625 C 30.507812 20.636719 30.539062 20.476562 30.730469 20.492188 C 30.898438 20.503906 30.960938 20.617188 30.949219 20.78125 C 30.949219 20.796875 30.949219 20.816406 30.949219 20.835938 C 30.949219 20.960938 30.949219 21.089844 30.949219 21.214844 Z M 25.09375 9.445312 C 24.992188 9.386719 24.953125 9.402344 24.90625 9.511719 C 24.660156 10.09375 24.070312 10.328125 23.507812 10.179688 C 23.265625 10.113281 23.109375 9.949219 22.964844 9.757812 C 22.921875 9.699219 22.890625 9.609375 22.78125 9.710938 C 22.320312 10.144531 21.699219 9.972656 21.488281 9.371094 C 21.421875 9.179688 21.433594 8.984375 21.433594 8.789062 C 21.4375 8.679688 21.425781 8.648438 21.292969 8.664062 C 20.949219 8.703125 20.65625 8.585938 20.457031 8.292969 C 20.351562 8.140625 20.386719 8.0625 20.566406 8.039062 C 20.710938 8.019531 20.859375 8.011719 21 8.027344 C 21.195312 8.046875 21.386719 8.054688 21.582031 8.027344 C 21.898438 7.988281 22.054688 8.140625 22.058594 8.457031 C 22.0625 8.675781 22.15625 8.859375 22.265625 9.035156 C 22.3125 9.105469 22.378906 9.148438 22.46875 9.15625 C 22.664062 9.171875 22.839844 9.277344 23.042969 9.257812 C 23.101562 9.253906 23.152344 9.289062 23.191406 9.332031 C 23.429688 9.625 23.730469 9.589844 24.03125 9.480469 C 24.261719 9.394531 24.449219 9.246094 24.53125 9 C 24.59375 8.816406 24.78125 8.734375 25.011719 8.769531 C 25.234375 8.800781 25.460938 8.824219 25.683594 8.851562 C 25.976562 8.882812 26.175781 8.738281 26.316406 8.5 C 26.421875 8.324219 26.621094 8.230469 26.824219 8.261719 C 26.933594 8.28125 26.976562 8.34375 26.976562 8.445312 C 26.984375 8.574219 26.949219 8.695312 26.894531 8.808594 C 26.734375 9.152344 26.464844 9.390625 26.136719 9.566406 C 26.023438 9.628906 25.898438 9.59375 25.78125 9.605469 C 25.535156 9.625 25.304688 9.566406 25.09375 9.445312 Z M 32.1875 21.007812 C 32.1875 21.015625 32.1875 21.023438 32.1875 21.03125 C 32.136719 22.152344 31.582031 23.253906 30.621094 23.855469 C 29.296875 24.691406 27.273438 24.492188 26.378906 23.125 C 26.035156 22.597656 25.878906 21.941406 26 21.324219 C 26.21875 20.191406 27.210938 19.257812 28.285156 18.910156 C 29.257812 18.597656 30.367188 18.726562 31.238281 19.261719 C 31.566406 19.464844 31.871094 19.730469 32.035156 20.078125 C 32.167969 20.367188 32.199219 20.691406 32.1875 21.007812 Z M 31.75 18.601562 C 31.03125 18.15625 30.15625 17.960938 29.289062 17.980469 C 27.9375 18.015625 26.738281 18.597656 25.953125 19.722656 C 25.386719 20.53125 24.9375 21.792969 25.335938 22.757812 C 25.820312 23.933594 26.558594 24.867188 27.917969 25.09375 C 28.617188 25.210938 29.304688 25.238281 30.003906 25.011719 C 30.882812 24.726562 31.527344 24.167969 32.023438 23.417969 C 32.492188 22.707031 32.789062 21.921875 32.878906 21.074219 C 32.992188 20.035156 32.671875 19.171875 31.75 18.601562 " fill-opacity="1" fill-rule="nonzero"/></svg>