<svg xmlns="http://www.w3.org/2000/svg" xmlns:xlink="http://www.w3.org/1999/xlink" width="64" zoomAndPan="magnify" viewBox="0 0 48 48" height="64" preserveAspectRatio="xMidYMid meet" version="1.0"><path fill="#edf2f4" d="M 30.785156 42.429688 C 20.191406 46.4375 8.390625 40.96875 4.441406 30.214844 C 0.492188 19.464844 5.878906 7.5 16.476562 3.492188 C 18.148438 2.859375 19.871094 2.457031 21.644531 2.28125 C 23.421875 2.105469 25.1875 2.164062 26.945312 2.457031 C 28.707031 2.746094 30.398438 3.265625 32.027344 4.003906 C 33.652344 4.746094 35.15625 5.6875 36.542969 6.828125 C 36.875 7.101562 37.199219 7.386719 37.515625 7.679688 C 39.917969 9.925781 41.6875 12.597656 42.824219 15.703125 C 46.777344 26.453125 41.386719 38.421875 30.785156 42.429688 Z M 30.785156 42.429688 " fill-opacity="1" fill-rule="nonzero"/><path fill="#c2cece" d="M 18.972656 32.308594 C 19.875 31.308594 22.234375 30.625 23.234375 31.515625 C 24.382812 32.53125 24.054688 34.914062 22.898438 36.003906 C 22.816406 35.960938 22.75 35.914062 22.667969 35.871094 C 22.777344 35.402344 22.886719 34.933594 22.894531 34.449219 C 22.902344 33.96875 22.800781 33.472656 22.519531 33.085938 C 22.332031 32.835938 22.101562 32.636719 21.832031 32.484375 C 21.4375 32.25 20.984375 32.09375 20.527344 32.128906 C 20.074219 32.160156 19.621094 32.402344 19.402344 32.808594 C 19.648438 33.460938 20.046875 34 20.589844 34.429688 C 21.144531 34.855469 21.765625 35.109375 22.457031 35.1875 C 22.160156 35.722656 21.710938 36.015625 21.105469 36.066406 C 20.472656 36.128906 19.835938 35.816406 19.425781 35.324219 C 19.015625 34.828125 18.820312 34.183594 18.796875 33.539062 C 18.777344 33.15625 18.714844 32.589844 18.972656 32.308594 Z M 18.972656 32.308594 " fill-opacity="1" fill-rule="nonzero"/><path fill="#c2cece" d="M 27.074219 35.582031 C 27.976562 34.585938 30.160156 33.726562 31.164062 34.617188 C 32.3125 35.632812 31.449219 38.0625 30.292969 39.152344 C 30.210938 39.109375 30.066406 38.695312 29.984375 38.652344 C 30.09375 38.1875 30.816406 38.03125 30.824219 37.550781 C 30.832031 37.070312 30.730469 36.570312 30.449219 36.183594 C 30.261719 35.933594 30.03125 35.734375 29.757812 35.582031 C 29.367188 35.347656 28.914062 35.195312 28.457031 35.226562 C 28.003906 35.257812 27.277344 35.753906 27.058594 36.160156 C 27.308594 36.8125 27.703125 37.351562 28.25 37.78125 C 28.804688 38.207031 29.425781 38.460938 30.117188 38.539062 C 29.851562 39.046875 29.59375 39.113281 29.03125 39.164062 C 28.402344 39.226562 27.765625 38.914062 27.355469 38.421875 C 26.945312 37.929688 26.746094 37.28125 26.71875 36.640625 C 26.695312 36.238281 26.816406 35.886719 27.074219 35.582031 Z M 27.074219 35.582031 " fill-opacity="1" fill-rule="nonzero"/><path fill="#c2cece" d="M 21.363281 37.367188 C 22.265625 36.371094 25.136719 34.804688 26.488281 36.078125 C 27.601562 37.125 26.398438 40.039062 25.242188 41.128906 C 25.160156 41.089844 24.683594 40.703125 24.601562 40.664062 C 24.710938 40.195312 25.433594 40.039062 25.441406 39.558594 C 25.449219 39.078125 25.347656 38.582031 25.066406 38.191406 C 24.878906 37.945312 24.648438 37.742188 24.375 37.589844 C 23.984375 37.355469 23.53125 37.203125 23.074219 37.234375 C 22.621094 37.269531 22.027344 37.65625 21.808594 38.0625 C 22.058594 38.714844 22.453125 39.253906 23 39.683594 C 23.550781 40.109375 24.175781 40.363281 24.867188 40.441406 C 24.601562 40.945312 24.210938 41.121094 23.648438 41.175781 C 23.019531 41.234375 22.382812 40.921875 21.972656 40.429688 C 21.5625 39.941406 21.363281 39.292969 21.335938 38.648438 C 21.320312 38.265625 21.105469 37.648438 21.363281 37.367188 Z M 21.363281 37.367188 " fill-opacity="1" fill-rule="nonzero"/><path fill="#c2cece" d="M 24.816406 31.578125 C 25.722656 30.582031 27.960938 29.738281 28.96875 30.628906 C 30.113281 31.644531 29.402344 34.246094 28.246094 35.335938 C 28.164062 35.292969 28 35.167969 27.917969 35.128906 C 28.027344 34.660156 28.277344 34.445312 28.285156 33.964844 C 28.292969 33.480469 28.191406 32.988281 27.914062 32.597656 C 27.722656 32.347656 27.492188 32.148438 27.222656 31.996094 C 26.828125 31.761719 26.375 31.609375 25.921875 31.640625 C 25.464844 31.671875 25.011719 31.917969 24.792969 32.320312 C 25.042969 32.972656 25.4375 33.511719 25.984375 33.941406 C 26.535156 34.367188 27.160156 34.621094 27.851562 34.699219 C 27.554688 35.234375 27.105469 35.53125 26.5 35.582031 C 25.871094 35.640625 25.234375 35.328125 24.824219 34.839844 C 24.414062 34.347656 24.214844 33.699219 24.1875 33.054688 C 24.171875 32.675781 24.558594 31.859375 24.816406 31.578125 Z M 24.816406 31.578125 " fill-opacity="1" fill-rule="nonzero"/><path fill="#c2cece" d="M 19.8125 38.644531 L 21.65625 36.179688 C 21.65625 36.179688 19.820312 35.652344 19.648438 35.871094 C 19.480469 36.089844 19.535156 36.996094 19.535156 36.996094 L 19.015625 38.402344 C 19.015625 38.402344 16.421875 38.121094 17.011719 35.761719 L 19.015625 35.167969 L 18.832031 34.21875 C 17.792969 34.371094 16.863281 34.78125 16.046875 35.445312 L 15.757812 36.632812 C 15.757812 36.632812 15.488281 37.90625 15.507812 38.007812 C 15.53125 38.109375 17.023438 39.144531 17.023438 39.144531 L 18.75 38.992188 Z M 19.8125 38.644531 " fill-opacity="1" fill-rule="nonzero"/><path fill="#c2cece" d="M 39.667969 20.234375 C 39.742188 19.605469 39.851562 18.980469 39.992188 18.363281 C 40.101562 17.859375 40.253906 17.222656 40.179688 16.707031 C 40.039062 15.757812 38.832031 15.640625 38.113281 15.875 C 36.6875 16.332031 35.355469 16.984375 34.121094 17.84375 C 33.71875 18.125 33.398438 18.253906 32.914062 18.125 C 32.769531 18.085938 31.691406 17.691406 31.691406 17.679688 C 31.90625 16.863281 31.878906 15.617188 31.039062 15.292969 C 30.75 15.179688 30.425781 15.265625 30.136719 15.375 C 29.417969 15.648438 28.78125 16.050781 28.222656 16.582031 C 27.851562 16.480469 27.484375 16.378906 27.109375 16.28125 C 27.09375 15.890625 27.082031 15.496094 27.066406 15.105469 C 27.042969 14.539062 26.890625 13.949219 26.53125 13.503906 C 25.863281 12.683594 24.503906 12.855469 23.578125 12.9375 C 21.71875 13.105469 19.957031 13.625 18.300781 14.503906 C 18.109375 14.605469 17.917969 14.714844 17.726562 14.824219 C 16.09375 14.910156 14.46875 14.160156 12.945312 14.75 C 10.648438 15.636719 7.953125 18.851562 7.367188 20.394531 C 7.300781 20.566406 7.996094 20.011719 7.964844 20.1875 C 7.9375 20.332031 7.925781 20.476562 7.921875 20.621094 C 7.921875 20.746094 7.929688 20.871094 7.945312 20.996094 C 8.039062 21.734375 8.4375 22.449219 9.050781 23.113281 C 10.460938 24.636719 13.019531 25.871094 15.664062 26.425781 C 16.324219 27.316406 16.519531 28.054688 17.398438 28.636719 C 17.527344 28.71875 17.96875 28.035156 18.113281 28.0625 C 18.703125 28.1875 19.160156 28.503906 19.308594 28.25 C 19.332031 28.210938 18.9375 27.808594 18.929688 27.761719 C 20.101562 28.34375 20.441406 28.71875 21.714844 28.699219 C 21.867188 28.699219 22.335938 29.183594 22.484375 29.144531 C 22.710938 29.082031 22.929688 28.863281 23.070312 28.675781 C 23.269531 28.40625 23.488281 28.15625 23.726562 27.929688 C 24.21875 27.46875 24.78125 27.128906 25.414062 26.90625 C 25.636719 26.816406 25.863281 26.785156 26.101562 26.804688 C 26.320312 26.832031 26.488281 26.941406 26.597656 27.136719 C 26.636719 27.222656 26.582031 27.609375 26.6875 27.558594 C 27.035156 27.394531 27.507812 26.890625 27.640625 26.730469 C 27.964844 26.351562 28.355469 26.058594 28.804688 25.855469 C 29.230469 25.667969 29.746094 25.625 30.171875 25.832031 C 30.410156 25.953125 30.5 26.144531 30.683594 26.328125 C 30.816406 26.460938 31.011719 26.617188 31.203125 26.515625 C 31.953125 26.105469 32.226562 25.328125 32.78125 24.730469 C 33.328125 24.140625 33.984375 23.734375 34.75 23.507812 C 35.382812 23.324219 35.675781 23.613281 36.125 24.011719 C 36.621094 24.449219 37.152344 24.84375 37.714844 25.191406 C 38.179688 25.476562 38.363281 26.410156 38.964844 26.324219 C 39.046875 26.3125 39.949219 25.617188 40.070312 24.96875 C 40.121094 24.699219 40.070312 24.425781 40.027344 24.152344 C 39.808594 22.832031 39.53125 21.601562 39.667969 20.234375 Z M 39.667969 20.234375 " fill-opacity="1" fill-rule="nonzero"/><path fill="#c2cece" d="M 37.898438 25.636719 C 39.835938 27.105469 39.046875 31.546875 37.597656 33.511719 C 37.425781 33.746094 37.230469 33.960938 37.019531 34.15625 C 36.804688 34.351562 36.574219 34.523438 36.328125 34.675781 C 36.078125 34.824219 35.820312 34.949219 35.546875 35.042969 C 35.277344 35.140625 35 35.210938 34.714844 35.253906 C 34.429688 35.296875 34.144531 35.308594 33.855469 35.292969 C 33.566406 35.277344 33.285156 35.234375 33.003906 35.164062 C 32.726562 35.089844 32.457031 34.992188 32.199219 34.867188 C 31.9375 34.742188 31.691406 34.589844 31.460938 34.417969 C 31.230469 34.242188 31.019531 34.046875 30.828125 33.828125 C 30.632812 33.613281 30.464844 33.378906 30.316406 33.128906 C 30.171875 32.875 30.046875 32.613281 29.953125 32.335938 C 29.855469 32.0625 29.789062 31.78125 29.746094 31.492188 C 29.707031 31.203125 29.691406 30.914062 29.707031 30.621094 C 29.722656 30.328125 29.765625 30.042969 29.835938 29.757812 C 29.90625 29.476562 30.003906 29.203125 30.128906 28.9375 C 30.253906 28.675781 30.402344 28.425781 30.574219 28.191406 C 32.019531 26.226562 35.957031 24.167969 37.898438 25.636719 Z M 37.898438 25.636719 " fill-opacity="1" fill-rule="nonzero"/><path fill="#edf2f4" d="M 38.304688 29.660156 C 38.386719 29.9375 38.4375 30.226562 38.460938 30.515625 C 38.488281 30.804688 38.484375 31.097656 38.453125 31.386719 C 38.417969 31.675781 38.359375 31.960938 38.273438 32.238281 C 38.1875 32.519531 38.074219 32.785156 37.933594 33.039062 C 37.796875 33.296875 37.632812 33.535156 37.449219 33.757812 C 37.261719 33.984375 37.058594 34.183594 36.832031 34.367188 C 36.605469 34.550781 36.367188 34.707031 36.109375 34.84375 C 35.855469 34.976562 35.589844 35.085938 35.3125 35.164062 C 35.035156 35.246094 34.753906 35.300781 34.46875 35.324219 C 34.179688 35.347656 33.894531 35.347656 33.609375 35.3125 C 33.324219 35.28125 33.042969 35.21875 32.769531 35.132812 C 32.492188 35.042969 32.230469 34.929688 31.976562 34.789062 C 31.726562 34.648438 31.492188 34.484375 31.269531 34.292969 C 31.050781 34.105469 30.851562 33.898438 30.671875 33.671875 C 30.492188 33.441406 30.335938 33.199219 30.203125 32.9375 C 30.070312 32.679688 29.964844 32.410156 29.882812 32.128906 C 29.804688 31.847656 29.75 31.5625 29.726562 31.273438 C 29.703125 30.980469 29.707031 30.691406 29.738281 30.402344 C 29.769531 30.109375 29.832031 29.824219 29.917969 29.546875 C 30.003906 29.269531 30.117188 29.003906 30.257812 28.746094 C 30.394531 28.492188 30.558594 28.25 30.742188 28.027344 C 30.929688 27.804688 31.132812 27.601562 31.359375 27.421875 C 31.585938 27.238281 31.824219 27.078125 32.078125 26.945312 C 32.335938 26.8125 32.601562 26.703125 32.878906 26.621094 C 33.15625 26.539062 33.4375 26.484375 33.722656 26.460938 C 34.011719 26.433594 34.296875 26.4375 34.582031 26.46875 C 34.871094 26.5 35.152344 26.5625 35.425781 26.648438 C 35.699219 26.738281 35.964844 26.851562 36.214844 26.992188 C 36.46875 27.132812 36.703125 27.300781 36.925781 27.488281 C 37.144531 27.675781 37.34375 27.886719 37.523438 28.113281 C 37.703125 28.34375 37.859375 28.585938 37.988281 28.847656 C 38.121094 29.105469 38.226562 29.378906 38.304688 29.660156 Z M 38.304688 29.660156 " fill-opacity="1" fill-rule="nonzero"/><path fill="#bf5c19" d="M 37.320312 30.894531 C 37.320312 31.328125 37.238281 31.742188 37.074219 32.144531 C 36.910156 32.542969 36.675781 32.898438 36.375 33.203125 C 36.074219 33.511719 35.722656 33.746094 35.328125 33.914062 C 34.933594 34.078125 34.523438 34.160156 34.097656 34.160156 C 33.667969 34.160156 33.257812 34.078125 32.863281 33.914062 C 32.46875 33.746094 32.121094 33.511719 31.816406 33.203125 C 31.515625 32.898438 31.28125 32.542969 31.117188 32.144531 C 30.957031 31.742188 30.875 31.328125 30.875 30.894531 C 30.875 30.460938 30.957031 30.042969 31.117188 29.640625 C 31.28125 29.242188 31.515625 28.886719 31.816406 28.582031 C 32.121094 28.273438 32.46875 28.039062 32.863281 27.875 C 33.257812 27.707031 33.667969 27.625 34.097656 27.625 C 34.523438 27.625 34.933594 27.707031 35.328125 27.875 C 35.722656 28.039062 36.074219 28.273438 36.375 28.582031 C 36.675781 28.886719 36.910156 29.242188 37.074219 29.640625 C 37.238281 30.042969 37.320312 30.460938 37.320312 30.894531 Z M 37.320312 30.894531 " fill-opacity="1" fill-rule="nonzero"/><path fill="#9b4b15" d="M 33.59375 33.304688 C 33.15625 33.210938 32.773438 33.007812 32.445312 32.699219 C 32.117188 32.390625 31.890625 32.015625 31.765625 31.582031 C 31.644531 31.144531 31.636719 30.707031 31.75 30.269531 C 31.863281 29.832031 32.082031 29.453125 32.402344 29.132812 C 32.511719 30.085938 33.019531 30.996094 33.804688 31.539062 C 34.554688 32.035156 35.371094 32.199219 36.253906 32.027344 C 36.128906 32.269531 35.972656 32.480469 35.78125 32.667969 C 35.589844 32.855469 35.375 33.007812 35.136719 33.121094 C 34.894531 33.238281 34.644531 33.308594 34.378906 33.339844 C 34.117188 33.371094 33.855469 33.359375 33.59375 33.304688 Z M 33.59375 33.304688 " fill-opacity="1" fill-rule="nonzero"/><path fill="#c2cece" d="M 13.851562 25.671875 C 12.472656 25.671875 10.492188 26.492188 8.871094 28.320312 C 8.378906 28.875 8.078125 29.628906 7.910156 30.472656 C 7.898438 30.546875 7.882812 30.621094 7.871094 30.695312 C 7.859375 30.773438 7.847656 30.847656 7.839844 30.921875 C 7.789062 31.339844 7.796875 31.753906 7.859375 32.171875 C 7.859375 32.191406 7.867188 32.214844 7.871094 32.234375 C 7.875 32.257812 7.878906 32.292969 7.882812 32.320312 C 8.183594 33.929688 9.335938 35.101562 10.894531 35.15625 C 10.976562 35.15625 11.0625 35.15625 11.148438 35.15625 C 11.25 35.164062 11.566406 35.402344 11.671875 35.410156 C 14.027344 35.492188 16.90625 32.59375 17.28125 30.203125 C 17.65625 27.8125 16.210938 25.675781 13.851562 25.671875 Z M 13.851562 25.671875 " fill-opacity="1" fill-rule="nonzero"/><path fill="#47b730" d="M 18.996094 9.078125 C 18.476562 9.417969 18.066406 9.863281 17.765625 10.410156 C 17.464844 9.398438 16.84375 8.65625 15.914062 8.183594 C 14.738281 7.59375 13.679688 7.1875 12.765625 6.984375 L 12.695312 6.96875 L 12.65625 7.03125 C 12.152344 7.828125 11.683594 8.875 11.265625 10.132812 C 10.933594 11.136719 11.015625 12.105469 11.507812 13.039062 C 10.914062 12.863281 10.3125 12.84375 9.707031 12.976562 L 9.605469 13 L 9.628906 13.101562 C 9.65625 13.25 9.675781 13.398438 9.691406 13.542969 C 9.707031 13.691406 9.726562 13.851562 9.757812 14.007812 C 9.875 14.578125 9.996094 15.167969 10.265625 15.703125 C 10.566406 16.292969 11.023438 16.714844 11.636719 16.960938 C 11.488281 17.09375 11.351562 17.210938 11.214844 17.332031 C 11.042969 17.480469 10.863281 17.636719 10.667969 17.820312 L 10.605469 17.875 L 10.648438 17.949219 C 10.953125 18.46875 11.699219 18.933594 12.195312 19.242188 L 12.222656 19.257812 C 12.792969 19.613281 13.402344 19.867188 14.050781 20.023438 C 14.691406 20.175781 15.339844 20.238281 15.996094 20.210938 C 16.335938 20.195312 16.675781 20.160156 17.015625 20.105469 C 17.359375 20.046875 17.703125 20 18.019531 19.847656 C 18.503906 19.617188 18.953125 19.257812 19.355469 18.910156 C 19.933594 18.410156 20.425781 17.835938 20.824219 17.183594 C 21.179688 16.609375 21.433594 15.988281 21.589844 15.332031 L 21.597656 15.300781 C 21.734375 14.726562 21.9375 13.863281 21.792969 13.277344 L 21.773438 13.195312 L 21.691406 13.195312 C 21.425781 13.203125 21.191406 13.222656 20.964844 13.242188 C 20.789062 13.253906 20.605469 13.269531 20.410156 13.28125 C 20.671875 12.667969 20.703125 12.042969 20.503906 11.40625 C 20.320312 10.835938 19.996094 10.332031 19.683594 9.847656 C 19.597656 9.710938 19.5 9.585938 19.40625 9.46875 C 19.3125 9.351562 19.222656 9.234375 19.144531 9.109375 L 19.085938 9.027344 Z M 18.996094 9.078125 " fill-opacity="1" fill-rule="nonzero"/><path fill="#3da025" d="M 19.585938 21.847656 C 19.15625 21.503906 18.753906 21.132812 18.375 20.730469 C 18 20.335938 17.644531 19.921875 17.3125 19.488281 C 16.644531 18.625 16.050781 17.710938 15.535156 16.746094 C 15.007812 15.777344 14.585938 14.765625 14.261719 13.710938 C 14.097656 13.179688 13.976562 12.636719 13.890625 12.085938 C 13.867188 11.953125 13.851562 11.8125 13.839844 11.671875 C 13.828125 11.53125 13.816406 11.394531 13.808594 11.257812 L 13.800781 11.152344 C 13.800781 11.117188 13.800781 11.082031 13.800781 11.046875 L 13.800781 10.835938 C 13.800781 10.695312 13.808594 10.558594 13.816406 10.421875 C 13.886719 10.542969 13.949219 10.671875 14.011719 10.789062 L 14.101562 10.972656 C 14.117188 11.003906 14.128906 11.035156 14.144531 11.066406 L 14.191406 11.15625 C 14.257812 11.277344 14.316406 11.394531 14.378906 11.515625 C 14.40625 11.574219 14.433594 11.636719 14.464844 11.695312 C 14.496094 11.753906 14.527344 11.8125 14.558594 11.871094 C 14.804688 12.34375 15.050781 12.8125 15.296875 13.277344 L 16.792969 16.0625 C 17.289062 16.992188 17.785156 17.925781 18.257812 18.878906 C 18.496094 19.355469 18.726562 19.839844 18.953125 20.332031 C 19.007812 20.457031 19.066406 20.582031 19.117188 20.703125 C 19.167969 20.824219 19.226562 20.953125 19.28125 21.078125 C 19.386719 21.328125 19.496094 21.582031 19.585938 21.847656 Z M 19.585938 21.847656 " fill-opacity="1" fill-rule="nonzero"/><path fill="#3da025" d="M 11.882812 14.480469 C 11.992188 14.5 12.101562 14.523438 12.207031 14.550781 C 12.3125 14.578125 12.417969 14.601562 12.515625 14.628906 C 12.617188 14.65625 12.71875 14.675781 12.8125 14.703125 C 12.90625 14.734375 13.003906 14.75 13.097656 14.777344 L 14.21875 15.0625 C 14.613281 15.164062 14.996094 15.285156 15.375 15.429688 C 15.574219 15.507812 15.765625 15.597656 15.953125 15.703125 C 16.152344 15.808594 16.339844 15.9375 16.511719 16.082031 C 16.402344 16.117188 16.289062 16.140625 16.179688 16.160156 C 16.070312 16.179688 15.960938 16.191406 15.855469 16.207031 C 15.644531 16.226562 15.433594 16.238281 15.222656 16.238281 C 14.792969 16.234375 14.371094 16.179688 13.957031 16.070312 C 13.523438 15.960938 13.121094 15.773438 12.753906 15.511719 C 12.660156 15.445312 12.570312 15.378906 12.488281 15.300781 C 12.40625 15.222656 12.324219 15.140625 12.25 15.054688 C 12.179688 14.96875 12.109375 14.878906 12.046875 14.785156 C 11.984375 14.6875 11.929688 14.585938 11.882812 14.480469 Z M 11.882812 14.480469 " fill-opacity="1" fill-rule="nonzero"/><path fill="#3da025" d="M 18.109375 12.28125 C 18.136719 12.484375 18.140625 12.691406 18.121094 12.898438 C 18.101562 13.09375 18.070312 13.289062 18.019531 13.480469 C 17.921875 13.863281 17.765625 14.226562 17.558594 14.5625 C 17.347656 14.902344 17.089844 15.199219 16.777344 15.453125 C 16.695312 15.515625 16.621094 15.574219 16.53125 15.628906 C 16.445312 15.683594 16.359375 15.730469 16.273438 15.78125 C 16.179688 15.824219 16.089844 15.863281 15.992188 15.902344 C 15.894531 15.9375 15.792969 15.964844 15.691406 15.984375 C 15.71875 15.882812 15.753906 15.785156 15.796875 15.6875 C 15.832031 15.59375 15.871094 15.503906 15.910156 15.417969 C 15.953125 15.332031 15.992188 15.246094 16.035156 15.164062 C 16.074219 15.082031 16.117188 14.996094 16.15625 14.917969 C 16.320312 14.601562 16.5 14.300781 16.683594 14.003906 C 16.871094 13.699219 17.074219 13.40625 17.289062 13.121094 C 17.402344 12.976562 17.523438 12.832031 17.65625 12.691406 C 17.722656 12.617188 17.792969 12.546875 17.867188 12.480469 C 17.941406 12.40625 18.023438 12.339844 18.109375 12.28125 Z M 18.109375 12.28125 " fill-opacity="1" fill-rule="nonzero"/><path fill="#3da025" d="M 13.945312 17.632812 C 14.101562 17.582031 14.234375 17.546875 14.367188 17.519531 C 14.433594 17.507812 14.5 17.492188 14.5625 17.480469 C 14.628906 17.46875 14.691406 17.460938 14.753906 17.453125 C 15.253906 17.390625 15.75 17.417969 16.238281 17.527344 C 16.300781 17.542969 16.363281 17.558594 16.425781 17.574219 C 16.457031 17.582031 16.488281 17.59375 16.519531 17.601562 L 16.613281 17.632812 C 16.742188 17.675781 16.871094 17.714844 17.023438 17.773438 C 16.976562 17.839844 16.921875 17.898438 16.859375 17.949219 C 16.828125 17.976562 16.796875 18 16.769531 18.023438 C 16.738281 18.046875 16.703125 18.0625 16.671875 18.082031 C 16.640625 18.101562 16.605469 18.121094 16.574219 18.136719 C 16.539062 18.15625 16.507812 18.167969 16.472656 18.183594 L 16.375 18.222656 C 16.339844 18.234375 16.304688 18.246094 16.273438 18.257812 C 16.003906 18.335938 15.730469 18.367188 15.453125 18.351562 C 15.175781 18.339844 14.90625 18.277344 14.648438 18.171875 C 14.582031 18.144531 14.515625 18.113281 14.453125 18.078125 C 14.425781 18.058594 14.390625 18.042969 14.363281 18.023438 C 14.332031 18.003906 14.300781 17.984375 14.269531 17.960938 C 14.207031 17.917969 14.148438 17.871094 14.09375 17.816406 C 14.039062 17.761719 13.988281 17.699219 13.945312 17.632812 Z M 13.945312 17.632812 " fill-opacity="1" fill-rule="nonzero"/><path fill="#3da025" d="M 18.996094 15.191406 C 19.011719 15.277344 19.015625 15.363281 19.007812 15.449219 C 19.007812 15.492188 19 15.53125 18.996094 15.574219 C 18.992188 15.617188 18.980469 15.660156 18.972656 15.695312 C 18.957031 15.777344 18.9375 15.851562 18.910156 15.929688 C 18.886719 16.003906 18.859375 16.078125 18.828125 16.148438 C 18.703125 16.429688 18.539062 16.6875 18.335938 16.914062 C 18.136719 17.144531 17.902344 17.339844 17.640625 17.496094 C 17.574219 17.539062 17.507812 17.574219 17.433594 17.609375 C 17.363281 17.644531 17.289062 17.671875 17.210938 17.699219 C 17.171875 17.710938 17.136719 17.722656 17.097656 17.734375 C 17.058594 17.746094 17.015625 17.753906 16.972656 17.757812 C 16.890625 17.773438 16.804688 17.777344 16.71875 17.769531 C 16.792969 17.605469 16.859375 17.480469 16.929688 17.34375 C 16.964844 17.28125 17 17.210938 17.039062 17.148438 C 17.074219 17.089844 17.109375 17.027344 17.148438 16.964844 C 17.453125 16.488281 17.824219 16.070312 18.257812 15.710938 C 18.3125 15.664062 18.371094 15.621094 18.425781 15.578125 C 18.484375 15.535156 18.546875 15.496094 18.605469 15.449219 C 18.726562 15.367188 18.84375 15.285156 18.996094 15.191406 Z M 18.996094 15.191406 " fill-opacity="1" fill-rule="nonzero"/><path fill="#47b730" d="M 29.238281 8.859375 C 28.628906 8.984375 28.089844 9.246094 27.609375 9.644531 C 27.695312 8.59375 27.386719 7.671875 26.6875 6.886719 C 25.808594 5.898438 24.96875 5.132812 24.191406 4.601562 L 24.132812 4.5625 L 24.074219 4.605469 C 23.316406 5.160156 22.503906 5.960938 21.660156 6.980469 C 20.992188 7.789062 20.71875 8.722656 20.839844 9.773438 C 20.347656 9.390625 19.796875 9.148438 19.1875 9.046875 L 19.085938 9.03125 L 19.066406 9.132812 C 19.042969 9.28125 19.003906 9.429688 18.96875 9.570312 C 18.929688 9.710938 18.890625 9.871094 18.863281 10.027344 C 18.765625 10.601562 18.667969 11.191406 18.726562 11.792969 C 18.792969 12.453125 19.066406 13.015625 19.542969 13.472656 C 19.359375 13.539062 19.1875 13.601562 19.019531 13.660156 C 18.804688 13.734375 18.582031 13.8125 18.332031 13.910156 L 18.25 13.941406 L 18.265625 14.023438 C 18.363281 14.617188 18.890625 15.328125 19.238281 15.800781 L 19.257812 15.824219 C 19.664062 16.367188 20.140625 16.828125 20.6875 17.214844 C 21.230469 17.59375 21.808594 17.890625 22.429688 18.105469 C 22.75 18.21875 23.078125 18.3125 23.414062 18.386719 C 23.753906 18.460938 24.089844 18.542969 24.441406 18.519531 C 24.976562 18.484375 25.519531 18.316406 26.023438 18.140625 C 26.738281 17.890625 27.402344 17.539062 28.011719 17.078125 C 28.546875 16.671875 29.007812 16.191406 29.390625 15.636719 L 29.410156 15.613281 C 29.742188 15.128906 30.242188 14.398438 30.320312 13.800781 L 30.332031 13.71875 L 30.25 13.691406 C 29.996094 13.601562 29.773438 13.53125 29.554688 13.464844 C 29.382812 13.414062 29.210938 13.359375 29.023438 13.300781 C 29.488281 12.824219 29.742188 12.257812 29.785156 11.589844 C 29.820312 10.992188 29.703125 10.402344 29.582031 9.832031 C 29.550781 9.675781 29.507812 9.523438 29.460938 9.378906 C 29.417969 9.234375 29.378906 9.09375 29.347656 8.945312 L 29.324219 8.84375 Z M 29.238281 8.859375 " fill-opacity="1" fill-rule="nonzero"/><path fill="#47b730" d="M 38.046875 14.414062 L 38.011719 14.511719 C 37.957031 14.652344 37.914062 14.796875 37.875 14.9375 C 37.835938 15.082031 37.789062 15.234375 37.734375 15.382812 C 37.523438 15.925781 37.304688 16.484375 36.953125 16.964844 C 36.558594 17.496094 36.039062 17.832031 35.394531 17.972656 C 35.519531 18.128906 35.636719 18.269531 35.75 18.40625 C 35.894531 18.585938 36.046875 18.769531 36.207031 18.980469 L 36.261719 19.050781 L 36.207031 19.113281 C 35.820312 19.574219 35.003906 19.90625 34.464844 20.125 L 34.4375 20.136719 C 33.816406 20.386719 33.171875 20.535156 32.503906 20.578125 C 31.746094 20.621094 31.003906 20.550781 30.265625 20.363281 C 29.945312 20.285156 29.632812 20.1875 29.324219 20.074219 C 29.121094 19.996094 28.925781 19.90625 28.738281 19.800781 C 28.640625 19.742188 28.546875 19.679688 28.457031 19.605469 C 28.28125 19.453125 28.109375 19.292969 27.949219 19.121094 C 27.710938 18.871094 27.484375 18.613281 27.277344 18.335938 C 26.875 17.808594 26.546875 17.238281 26.300781 16.621094 C 26.046875 15.996094 25.898438 15.34375 25.855469 14.667969 L 25.855469 14.632812 C 25.8125 14.046875 25.757812 13.160156 25.996094 12.605469 L 26.027344 12.527344 L 26.109375 12.546875 C 26.371094 12.601562 26.601562 12.660156 26.820312 12.71875 C 26.964844 12.753906 27.117188 12.792969 27.277344 12.832031 L 27.359375 12.851562 C 27.203125 12.203125 27.273438 11.582031 27.574219 10.992188 C 27.847656 10.457031 28.25 10.019531 28.640625 9.589844 C 28.746094 9.472656 28.863281 9.367188 28.972656 9.265625 C 29.085938 9.164062 29.191406 9.066406 29.292969 8.957031 L 29.363281 8.878906 L 29.4375 8.949219 C 29.894531 9.375 30.226562 9.882812 30.433594 10.472656 C 30.898438 9.527344 31.628906 8.902344 32.628906 8.59375 C 33.882812 8.210938 34.996094 7.992188 35.929688 7.945312 L 36 7.945312 L 36.027344 8.015625 C 36.367188 8.867188 36.617188 9.75 36.773438 10.65625 C 36.816406 10.871094 36.851562 11.085938 36.886719 11.308594 C 37.046875 12.355469 36.808594 13.296875 36.167969 14.136719 C 36.785156 14.066406 37.378906 14.152344 37.957031 14.386719 Z M 38.046875 14.414062 " fill-opacity="1" fill-rule="nonzero"/><path fill="#3da025" d="M 28.039062 22.261719 C 28.0625 21.707031 28.128906 21.15625 28.234375 20.613281 C 28.335938 20.074219 28.464844 19.539062 28.617188 19.015625 C 28.921875 17.960938 29.3125 16.945312 29.789062 15.957031 C 30.261719 14.964844 30.828125 14.027344 31.488281 13.148438 C 31.824219 12.703125 32.1875 12.289062 32.578125 11.898438 C 32.675781 11.800781 32.777344 11.707031 32.882812 11.617188 C 32.988281 11.527344 33.09375 11.433594 33.199219 11.347656 L 33.28125 11.28125 C 33.308594 11.261719 33.335938 11.242188 33.363281 11.21875 L 33.53125 11.097656 C 33.648438 11.019531 33.761719 10.941406 33.878906 10.871094 C 33.820312 11 33.757812 11.121094 33.695312 11.246094 L 33.597656 11.425781 C 33.582031 11.457031 33.566406 11.484375 33.550781 11.515625 L 33.503906 11.605469 C 33.445312 11.730469 33.382812 11.847656 33.324219 11.96875 C 33.292969 12.027344 33.261719 12.085938 33.230469 12.144531 C 33.199219 12.203125 33.171875 12.265625 33.144531 12.324219 C 32.90625 12.800781 32.671875 13.277344 32.441406 13.75 L 31.070312 16.59375 C 30.609375 17.542969 30.148438 18.496094 29.65625 19.441406 C 29.410156 19.914062 29.152344 20.382812 28.890625 20.851562 C 28.820312 20.96875 28.757812 21.089844 28.6875 21.207031 C 28.621094 21.324219 28.554688 21.441406 28.480469 21.558594 C 28.339844 21.796875 28.199219 22.03125 28.039062 22.261719 Z M 28.039062 22.261719 " fill-opacity="1" fill-rule="nonzero"/><path fill="#3da025" d="M 29.492188 11.621094 C 29.542969 11.722656 29.589844 11.828125 29.628906 11.933594 C 29.671875 12.035156 29.710938 12.136719 29.746094 12.234375 C 29.78125 12.332031 29.828125 12.425781 29.855469 12.523438 C 29.882812 12.617188 29.929688 12.707031 29.960938 12.800781 L 30.378906 13.894531 C 30.527344 14.273438 30.652344 14.660156 30.753906 15.058594 C 30.804688 15.265625 30.84375 15.480469 30.871094 15.695312 C 30.902344 15.921875 30.90625 16.148438 30.886719 16.375 C 30.796875 16.304688 30.714844 16.226562 30.632812 16.144531 C 30.550781 16.066406 30.480469 15.984375 30.410156 15.902344 C 30.269531 15.742188 30.136719 15.574219 30.015625 15.398438 C 29.769531 15.042969 29.570312 14.664062 29.414062 14.257812 C 29.253906 13.832031 29.171875 13.394531 29.164062 12.9375 C 29.164062 12.824219 29.171875 12.710938 29.183594 12.597656 C 29.199219 12.480469 29.214844 12.371094 29.242188 12.261719 C 29.269531 12.152344 29.304688 12.039062 29.34375 11.929688 C 29.386719 11.824219 29.4375 11.71875 29.492188 11.621094 Z M 29.492188 11.621094 " fill-opacity="1" fill-rule="nonzero"/><path fill="#3da025" d="M 34.871094 15.496094 C 34.71875 15.636719 34.554688 15.757812 34.378906 15.863281 C 34.210938 15.960938 34.035156 16.046875 33.851562 16.117188 C 33.484375 16.257812 33.105469 16.339844 32.714844 16.363281 C 32.320312 16.386719 31.929688 16.34375 31.546875 16.234375 C 31.453125 16.203125 31.359375 16.171875 31.265625 16.136719 C 31.171875 16.097656 31.082031 16.050781 30.996094 16.007812 C 30.90625 15.964844 30.820312 15.90625 30.734375 15.847656 C 30.648438 15.789062 30.566406 15.71875 30.488281 15.648438 C 30.585938 15.613281 30.6875 15.585938 30.789062 15.5625 C 30.882812 15.539062 30.980469 15.519531 31.070312 15.503906 C 31.164062 15.484375 31.257812 15.46875 31.347656 15.453125 C 31.4375 15.441406 31.527344 15.425781 31.617188 15.417969 C 31.96875 15.371094 32.308594 15.339844 32.65625 15.320312 C 33.011719 15.300781 33.367188 15.296875 33.722656 15.3125 C 33.902344 15.320312 34.089844 15.339844 34.28125 15.367188 C 34.375 15.378906 34.472656 15.394531 34.570312 15.417969 C 34.671875 15.4375 34.773438 15.460938 34.871094 15.496094 Z M 34.871094 15.496094 " fill-opacity="1" fill-rule="nonzero"/><path fill="#3da025" d="M 28.15625 15.152344 C 28.289062 15.253906 28.390625 15.34375 28.492188 15.4375 C 28.542969 15.484375 28.589844 15.53125 28.636719 15.578125 C 28.683594 15.625 28.726562 15.671875 28.773438 15.71875 C 28.941406 15.90625 29.089844 16.105469 29.222656 16.320312 C 29.359375 16.53125 29.472656 16.753906 29.570312 16.988281 C 29.59375 17.046875 29.617188 17.105469 29.640625 17.167969 C 29.648438 17.199219 29.660156 17.230469 29.671875 17.261719 L 29.703125 17.355469 C 29.742188 17.488281 29.785156 17.617188 29.828125 17.78125 C 29.746094 17.78125 29.667969 17.769531 29.589844 17.746094 C 29.554688 17.738281 29.515625 17.726562 29.480469 17.714844 C 29.445312 17.703125 29.410156 17.683594 29.375 17.667969 C 29.339844 17.652344 29.308594 17.636719 29.277344 17.617188 C 29.242188 17.601562 29.210938 17.582031 29.179688 17.5625 C 29.152344 17.542969 29.121094 17.523438 29.089844 17.503906 C 29.058594 17.484375 29.03125 17.460938 29.007812 17.4375 C 28.789062 17.261719 28.605469 17.054688 28.457031 16.816406 C 28.304688 16.578125 28.199219 16.320312 28.136719 16.046875 C 28.117188 15.976562 28.105469 15.902344 28.097656 15.832031 C 28.09375 15.796875 28.089844 15.757812 28.085938 15.722656 C 28.085938 15.6875 28.085938 15.648438 28.085938 15.609375 C 28.085938 15.535156 28.09375 15.457031 28.101562 15.382812 C 28.113281 15.304688 28.128906 15.226562 28.15625 15.152344 Z M 28.15625 15.152344 " fill-opacity="1" fill-rule="nonzero"/><path fill="#3da025" d="M 33.042969 17.914062 C 32.984375 17.976562 32.917969 18.03125 32.84375 18.074219 C 32.808594 18.097656 32.773438 18.117188 32.734375 18.140625 C 32.699219 18.160156 32.664062 18.171875 32.625 18.191406 C 32.554688 18.222656 32.476562 18.25 32.402344 18.273438 C 32.328125 18.296875 32.25 18.316406 32.175781 18.332031 C 31.5625 18.449219 30.972656 18.382812 30.402344 18.128906 C 30.328125 18.097656 30.257812 18.0625 30.191406 18.023438 C 30.121094 17.980469 30.054688 17.9375 29.992188 17.890625 C 29.960938 17.863281 29.925781 17.839844 29.894531 17.816406 C 29.863281 17.789062 29.832031 17.757812 29.804688 17.730469 C 29.742188 17.671875 29.691406 17.601562 29.644531 17.527344 C 29.820312 17.496094 29.960938 17.476562 30.113281 17.453125 C 30.183594 17.449219 30.257812 17.4375 30.328125 17.429688 C 30.402344 17.425781 30.472656 17.417969 30.542969 17.417969 C 30.820312 17.402344 31.097656 17.414062 31.375 17.445312 C 31.652344 17.476562 31.925781 17.53125 32.195312 17.605469 C 32.261719 17.625 32.332031 17.648438 32.398438 17.667969 C 32.46875 17.691406 32.539062 17.71875 32.605469 17.742188 C 32.746094 17.792969 32.878906 17.84375 33.042969 17.914062 Z M 33.042969 17.914062 " fill-opacity="1" fill-rule="nonzero"/><path fill="#3da025" d="M 26.363281 14.699219 C 26.292969 14.71875 26.226562 14.738281 26.15625 14.761719 C 25.890625 14.847656 25.636719 14.953125 25.386719 15.082031 C 25.175781 15.1875 24.976562 15.308594 24.78125 15.441406 C 24.746094 15.140625 24.710938 14.839844 24.675781 14.542969 L 24.613281 14.042969 C 24.703125 14.023438 24.792969 14 24.878906 13.976562 C 25.257812 13.855469 25.609375 13.671875 25.925781 13.429688 C 26.242188 13.195312 26.515625 12.917969 26.746094 12.601562 C 26.859375 12.4375 26.960938 12.269531 27.050781 12.09375 C 27.144531 11.90625 27.214844 11.714844 27.261719 11.511719 C 27.164062 11.539062 27.0625 11.570312 26.96875 11.609375 C 26.875 11.644531 26.785156 11.6875 26.699219 11.726562 C 26.523438 11.8125 26.359375 11.902344 26.199219 11.996094 C 25.898438 12.179688 25.601562 12.378906 25.320312 12.589844 C 25.046875 12.796875 24.78125 13.007812 24.515625 13.234375 L 24.289062 11.398438 C 24.226562 10.875 24.160156 10.351562 24.105469 9.820312 C 24.097656 9.753906 24.085938 9.6875 24.082031 9.621094 C 24.078125 9.554688 24.070312 9.488281 24.0625 9.421875 C 24.050781 9.285156 24.035156 9.152344 24.019531 9.015625 L 24.007812 8.914062 C 24.007812 8.878906 24.003906 8.84375 24 8.8125 L 23.984375 8.605469 C 23.972656 8.472656 23.957031 8.332031 23.9375 8.191406 C 23.875 8.316406 23.824219 8.445312 23.773438 8.574219 L 23.695312 8.769531 C 23.683594 8.800781 23.671875 8.835938 23.660156 8.867188 L 23.628906 8.96875 C 23.585938 9.097656 23.546875 9.234375 23.507812 9.367188 C 23.472656 9.503906 23.433594 9.636719 23.40625 9.773438 C 23.289062 10.316406 23.207031 10.867188 23.167969 11.421875 C 23.128906 11.960938 23.117188 12.5 23.132812 13.039062 C 22.96875 12.90625 22.804688 12.78125 22.640625 12.664062 L 21.699219 11.980469 C 21.625 11.921875 21.539062 11.863281 21.460938 11.804688 C 21.382812 11.746094 21.296875 11.6875 21.214844 11.625 C 21.132812 11.5625 21.042969 11.5 20.957031 11.4375 C 20.863281 11.371094 20.769531 11.308594 20.671875 11.25 C 20.679688 11.367188 20.695312 11.484375 20.714844 11.597656 C 20.738281 11.710938 20.773438 11.816406 20.808594 11.929688 C 20.84375 12.042969 20.890625 12.140625 20.941406 12.242188 C 20.996094 12.347656 21.054688 12.441406 21.113281 12.539062 C 21.359375 12.917969 21.667969 13.242188 22.03125 13.507812 C 22.378906 13.761719 22.753906 13.96875 23.152344 14.128906 L 23.199219 14.144531 C 23.21875 14.339844 23.238281 14.53125 23.261719 14.71875 C 23.292969 14.996094 23.332031 15.269531 23.378906 15.542969 C 23.25 15.46875 23.121094 15.398438 22.984375 15.339844 C 22.757812 15.234375 22.523438 15.152344 22.28125 15.089844 C 22.21875 15.074219 22.15625 15.058594 22.09375 15.042969 C 22.027344 15.03125 21.960938 15.019531 21.894531 15.007812 C 21.757812 14.988281 21.625 14.96875 21.460938 14.957031 C 21.476562 15.035156 21.5 15.113281 21.535156 15.183594 C 21.566406 15.253906 21.601562 15.320312 21.644531 15.382812 C 21.664062 15.414062 21.6875 15.445312 21.707031 15.476562 C 21.730469 15.507812 21.753906 15.535156 21.777344 15.558594 C 21.820312 15.613281 21.871094 15.667969 21.921875 15.71875 C 22.125 15.910156 22.351562 16.066406 22.605469 16.183594 C 22.859375 16.300781 23.125 16.375 23.40625 16.398438 C 23.441406 16.398438 23.476562 16.40625 23.511719 16.40625 L 23.542969 16.40625 C 23.648438 16.917969 23.777344 17.429688 23.929688 17.933594 C 24.085938 18.457031 24.265625 18.972656 24.472656 19.480469 C 24.675781 19.992188 24.914062 20.488281 25.191406 20.964844 C 25.199219 20.683594 25.191406 20.410156 25.183594 20.132812 C 25.183594 19.996094 25.171875 19.859375 25.167969 19.726562 C 25.160156 19.589844 25.152344 19.453125 25.144531 19.316406 C 25.113281 18.777344 25.070312 18.242188 25.023438 17.707031 C 24.976562 17.203125 24.925781 16.703125 24.867188 16.207031 L 24.9375 16.195312 C 25.550781 16.089844 26.082031 15.816406 26.53125 15.378906 C 26.585938 15.324219 26.640625 15.265625 26.691406 15.207031 C 26.742188 15.144531 26.789062 15.078125 26.832031 15.011719 C 26.855469 14.976562 26.878906 14.941406 26.898438 14.90625 C 26.917969 14.871094 26.9375 14.832031 26.953125 14.792969 C 26.992188 14.714844 27.019531 14.632812 27.035156 14.546875 C 26.863281 14.578125 26.722656 14.609375 26.574219 14.640625 C 26.5 14.664062 26.433594 14.679688 26.363281 14.699219 Z M 26.363281 14.699219 " fill-opacity="1" fill-rule="nonzero"/><path fill="#bf5c19" d="M 14.277344 24.777344 C 13.976562 25.203125 14.15625 25.792969 14.378906 26.265625 C 14.980469 27.558594 16.238281 28.617188 17.398438 29.386719 C 17.519531 29.476562 17.65625 29.542969 17.800781 29.582031 C 18.390625 29.707031 18.242188 28.996094 18.203125 28.636719 C 18.125 27.875 17.859375 27.050781 17.554688 26.34375 C 17.277344 25.691406 16.851562 24.878906 16.164062 24.597656 C 15.621094 24.378906 14.671875 24.222656 14.277344 24.777344 Z M 14.277344 24.777344 " fill-opacity="1" fill-rule="nonzero"/><path fill="#bf5c19" d="M 14.984375 17.003906 C 15.773438 16.316406 16.628906 15.726562 17.550781 15.238281 C 19.210938 14.359375 20.96875 13.835938 22.832031 13.667969 C 23.757812 13.585938 25.117188 13.421875 25.78125 14.238281 C 26.140625 14.683594 26.296875 15.273438 26.316406 15.839844 L 26.363281 17.097656 C 22.789062 18.242188 18.535156 18.230469 14.984375 17.003906 Z M 14.984375 17.003906 " fill-opacity="1" fill-rule="nonzero"/><path fill="#bf5c19" d="M 24.011719 26.113281 C 24.515625 26.734375 25.132812 27.195312 25.867188 27.496094 C 26.101562 27.59375 26.363281 27.667969 26.605469 27.585938 C 27.394531 27.308594 27.355469 26.039062 27.128906 25.40625 C 26.023438 25.773438 25.171875 26.035156 24.011719 26.113281 Z M 24.011719 26.113281 " fill-opacity="1" fill-rule="nonzero"/><path fill="#bf5c19" d="M 28.492188 25.085938 C 28.996094 25.707031 29.613281 26.167969 30.347656 26.46875 C 30.582031 26.566406 30.84375 26.644531 31.085938 26.558594 C 31.871094 26.28125 31.835938 25.011719 31.609375 24.378906 C 30.5 24.75 29.652344 25.007812 28.492188 25.085938 Z M 28.492188 25.085938 " fill-opacity="1" fill-rule="nonzero"/><path fill="#bf5c19" d="M 27.074219 17.734375 C 27.710938 16.996094 28.484375 16.453125 29.390625 16.109375 C 29.679688 16 30.003906 15.914062 30.292969 16.027344 C 31.246094 16.390625 31.15625 17.941406 30.855469 18.707031 C 29.515625 18.21875 28.488281 17.871094 27.074219 17.734375 Z M 27.074219 17.734375 " fill-opacity="1" fill-rule="nonzero"/><path fill="#bf5c19" d="M 39.285156 24.882812 C 39.332031 25.152344 39.375 25.425781 39.328125 25.695312 C 39.28125 25.953125 39.121094 26.292969 38.800781 26.402344 C 38.722656 26.429688 38.640625 26.445312 38.558594 26.457031 C 37.957031 26.542969 37.429688 26.203125 36.96875 25.917969 C 36.40625 25.570312 35.875 25.179688 35.378906 24.742188 C 34.4375 23.921875 33.683594 22.953125 33.113281 21.835938 L 33.125 21.121094 C 33.707031 20.046875 34.464844 19.125 35.398438 18.34375 C 35.886719 17.925781 36.410156 17.554688 36.960938 17.226562 C 37.394531 16.96875 37.84375 16.632812 38.414062 16.628906 C 38.453125 16.628906 38.492188 16.628906 38.527344 16.636719 C 39.0625 16.671875 39.371094 16.988281 39.4375 17.441406 C 39.515625 17.957031 39.355469 18.589844 39.25 19.097656 C 39.109375 19.714844 39 20.339844 38.921875 20.96875 C 38.789062 22.335938 39.0625 23.5625 39.285156 24.882812 Z M 39.285156 24.882812 " fill-opacity="1" fill-rule="nonzero"/><path fill="#ed6e18" d="M 37.992188 18.574219 C 36.65625 20.195312 36.503906 22.40625 37.605469 24.152344 C 37.929688 24.667969 38.359375 25.148438 38.53125 25.714844 C 38.605469 25.960938 38.613281 26.207031 38.554688 26.457031 C 37.957031 26.542969 37.429688 26.203125 36.96875 25.917969 C 36.40625 25.570312 35.875 25.179688 35.378906 24.742188 C 34.4375 23.921875 33.683594 22.953125 33.113281 21.835938 L 33.121094 21.121094 C 33.707031 20.046875 34.464844 19.125 35.394531 18.34375 C 35.886719 17.925781 36.410156 17.554688 36.960938 17.226562 C 37.394531 16.96875 37.84375 16.632812 38.414062 16.628906 C 38.453125 16.628906 38.492188 16.628906 38.527344 16.636719 C 38.742188 16.847656 38.824219 17.101562 38.769531 17.398438 C 38.671875 17.839844 38.300781 18.199219 37.992188 18.574219 Z M 37.992188 18.574219 " fill-opacity="1" fill-rule="nonzero"/><path fill="#ff7f1f" d="M 36.21875 21.765625 C 36.214844 21.871094 36.1875 21.96875 36.136719 22.058594 C 35.058594 24.167969 23.316406 27.296875 18.148438 27.464844 C 14.574219 27.574219 10.296875 25.996094 8.308594 23.84375 C 7.695312 23.179688 7.296875 22.46875 7.203125 21.730469 C 7.167969 21.460938 7.175781 21.191406 7.222656 20.921875 C 7.253906 20.742188 7.304688 20.566406 7.371094 20.394531 C 8.445312 17.546875 13.9375 15.3125 18.3125 15.5625 C 23.261719 15.839844 34.867188 18.914062 36.109375 21.347656 C 36.164062 21.445312 36.195312 21.546875 36.214844 21.652344 C 36.214844 21.671875 36.21875 21.695312 36.21875 21.714844 C 36.21875 21.730469 36.21875 21.75 36.21875 21.765625 Z M 36.21875 21.765625 " fill-opacity="1" fill-rule="nonzero"/><path fill="#ed6e18" d="M 36.140625 22.058594 C 35.058594 24.167969 23.316406 27.296875 18.148438 27.464844 C 14.574219 27.574219 10.296875 25.996094 8.308594 23.84375 C 7.695312 23.179688 7.296875 22.46875 7.203125 21.730469 C 7.503906 21.890625 7.8125 22.042969 8.125 22.179688 C 10.175781 23.089844 12.425781 23.5625 14.652344 23.859375 C 21.941406 24.835938 29.105469 24.234375 36.140625 22.058594 Z M 36.140625 22.058594 " fill-opacity="1" fill-rule="nonzero"/><path fill="#bf5c19" d="M 14.574219 16.734375 C 15.089844 17.359375 15.46875 18.058594 15.710938 18.832031 C 16.214844 20.386719 16.230469 21.949219 15.765625 23.519531 C 15.539062 24.296875 15.175781 25 14.675781 25.632812 C 14.757812 24.847656 14.851562 24.105469 14.90625 23.371094 C 14.960938 22.632812 14.988281 21.90625 14.988281 21.179688 C 14.988281 20.453125 14.9375 19.726562 14.863281 18.992188 C 14.789062 18.257812 14.671875 17.519531 14.574219 16.734375 Z M 14.574219 16.734375 " fill-opacity="1" fill-rule="nonzero"/><path fill="#bf5c19" d="M 18.378906 16.789062 C 18.890625 17.414062 19.269531 18.113281 19.511719 18.886719 C 20.015625 20.445312 20.03125 22.003906 19.5625 23.574219 C 19.335938 24.351562 18.972656 25.054688 18.46875 25.6875 C 18.550781 24.898438 18.644531 24.160156 18.699219 23.425781 C 18.753906 22.6875 18.78125 21.960938 18.78125 21.234375 C 18.78125 20.507812 18.734375 19.78125 18.660156 19.046875 C 18.585938 18.3125 18.476562 17.574219 18.378906 16.789062 Z M 18.378906 16.789062 " fill-opacity="1" fill-rule="nonzero"/><path fill="#bf5c19" d="M 22.011719 17.261719 C 22.519531 17.816406 22.898438 18.449219 23.148438 19.160156 C 23.394531 19.847656 23.519531 20.550781 23.53125 21.28125 C 23.539062 22.007812 23.433594 22.714844 23.203125 23.40625 C 22.972656 24.121094 22.609375 24.757812 22.113281 25.316406 C 22.191406 24.605469 22.289062 23.9375 22.34375 23.269531 C 22.394531 22.601562 22.425781 21.945312 22.417969 21.285156 C 22.410156 20.625 22.367188 19.960938 22.292969 19.304688 C 22.222656 18.636719 22.105469 17.972656 22.011719 17.261719 Z M 22.011719 17.261719 " fill-opacity="1" fill-rule="nonzero"/><path fill="#bf5c19" d="M 25.640625 17.898438 C 26.136719 18.355469 26.515625 18.898438 26.78125 19.523438 C 27.027344 20.101562 27.15625 20.707031 27.167969 21.335938 C 27.179688 21.964844 27.070312 22.566406 26.847656 23.152344 C 26.605469 23.777344 26.246094 24.320312 25.761719 24.78125 C 25.839844 24.175781 25.933594 23.605469 25.984375 23.039062 C 26.042969 22.472656 26.066406 21.910156 26.058594 21.34375 C 26.046875 20.773438 26.003906 20.210938 25.925781 19.648438 C 25.855469 19.078125 25.738281 18.503906 25.640625 17.898438 Z M 25.640625 17.898438 " fill-opacity="1" fill-rule="nonzero"/><path fill="#bf5c19" d="M 29.269531 18.621094 C 29.75 18.96875 30.132812 19.40625 30.414062 19.933594 C 30.660156 20.386719 30.789062 20.875 30.808594 21.394531 C 30.820312 21.90625 30.714844 22.394531 30.492188 22.851562 C 30.234375 23.378906 29.875 23.816406 29.410156 24.164062 C 29.484375 23.675781 29.574219 23.214844 29.628906 22.757812 C 29.742188 21.84375 29.71875 20.933594 29.5625 20.027344 C 29.484375 19.570312 29.371094 19.109375 29.269531 18.621094 Z M 29.269531 18.621094 " fill-opacity="1" fill-rule="nonzero"/><path fill="#bf5c19" d="M 16.964844 27.152344 C 16.953125 27.675781 17.429688 28.0625 17.875 28.328125 C 19.085938 29.050781 20.714844 29.210938 22.101562 29.1875 C 22.253906 29.191406 22.402344 29.171875 22.546875 29.121094 C 23.101562 28.886719 22.582031 28.382812 22.351562 28.109375 C 21.867188 27.527344 21.1875 26.992188 20.550781 26.582031 C 19.957031 26.203125 19.15625 25.769531 18.429688 25.929688 C 17.859375 26.054688 16.984375 26.46875 16.964844 27.152344 Z M 16.964844 27.152344 " fill-opacity="1" fill-rule="nonzero"/><path fill="#bf5c19" d="M 13.171875 18.382812 C 13.117188 18.699219 13.007812 18.996094 12.84375 19.269531 C 12.699219 19.519531 12.523438 19.746094 12.320312 19.953125 C 12.117188 20.160156 11.894531 20.335938 11.644531 20.484375 C 11.375 20.652344 11.082031 20.761719 10.769531 20.8125 C 10.824219 20.496094 10.933594 20.199219 11.097656 19.925781 C 11.398438 19.417969 11.796875 19.011719 12.300781 18.710938 C 12.570312 18.542969 12.859375 18.433594 13.171875 18.382812 Z M 13.171875 18.382812 " fill-opacity="1" fill-rule="nonzero"/><path fill="#bf5c19" d="M 10.777344 18.378906 C 11.085938 18.433594 11.378906 18.546875 11.648438 18.710938 C 12.148438 19.015625 12.550781 19.421875 12.847656 19.929688 C 13.011719 20.203125 13.121094 20.5 13.171875 20.816406 C 12.859375 20.761719 12.566406 20.652344 12.296875 20.484375 C 12.046875 20.335938 11.824219 20.160156 11.621094 19.953125 C 11.417969 19.746094 11.242188 19.519531 11.097656 19.265625 C 10.933594 18.992188 10.828125 18.695312 10.777344 18.378906 Z M 10.777344 18.378906 " fill-opacity="1" fill-rule="nonzero"/><path fill="#ff7f1f" d="M 27.023438 30.964844 C 26.757812 30.882812 26.488281 30.855469 26.214844 30.882812 C 24.929688 30.996094 23.988281 32.273438 24.082031 33.746094 C 24.082031 33.765625 24.082031 33.789062 24.085938 33.808594 C 24.117188 34.1875 24.21875 34.550781 24.386719 34.890625 C 24.835938 35.808594 25.722656 36.398438 26.679688 36.3125 C 27.96875 36.199219 28.914062 34.90625 28.804688 33.429688 C 28.804688 33.414062 28.804688 33.398438 28.804688 33.386719 C 28.707031 32.207031 27.96875 31.261719 27.023438 30.964844 Z M 26.582031 35.152344 C 26.140625 35.191406 25.722656 34.917969 25.46875 34.480469 C 25.191406 33.988281 25.140625 33.46875 25.320312 32.929688 C 25.460938 32.507812 25.75 32.183594 26.113281 32.074219 C 26.179688 32.054688 26.242188 32.042969 26.3125 32.035156 C 26.984375 31.976562 27.589844 32.625 27.664062 33.484375 C 27.691406 33.789062 27.648438 34.078125 27.539062 34.359375 C 27.359375 34.800781 27.011719 35.113281 26.582031 35.152344 Z M 26.582031 35.152344 " fill-opacity="1" fill-rule="nonzero"/><path fill="#ff7f1f" d="M 20.300781 36.785156 C 20.054688 35.484375 18.667969 34.65625 17.210938 34.9375 C 16.902344 35 16.605469 35.109375 16.328125 35.265625 C 16.007812 35.441406 15.734375 35.671875 15.503906 35.957031 C 15.398438 36.085938 15.304688 36.222656 15.230469 36.371094 C 15.152344 36.515625 15.09375 36.671875 15.050781 36.832031 C 15.011719 36.992188 14.988281 37.15625 14.980469 37.320312 C 14.976562 37.488281 14.988281 37.652344 15.019531 37.816406 C 15.050781 37.980469 15.097656 38.136719 15.164062 38.289062 C 15.230469 38.441406 15.3125 38.585938 15.410156 38.71875 C 15.507812 38.851562 15.617188 38.972656 15.742188 39.082031 C 15.867188 39.191406 16 39.285156 16.144531 39.359375 C 16.660156 39.648438 17.210938 39.765625 17.796875 39.707031 C 17.898438 39.699219 18 39.683594 18.105469 39.664062 C 18.796875 39.535156 19.363281 39.195312 19.8125 38.648438 C 20.265625 38.105469 20.425781 37.484375 20.300781 36.785156 Z M 18.921875 37.914062 C 18.648438 38.242188 18.304688 38.441406 17.890625 38.515625 C 17.691406 38.554688 17.496094 38.5625 17.296875 38.535156 C 17.089844 38.507812 16.894531 38.445312 16.710938 38.34375 C 16.566406 38.273438 16.441406 38.171875 16.34375 38.042969 C 16.242188 37.910156 16.175781 37.765625 16.144531 37.605469 C 16.113281 37.441406 16.117188 37.28125 16.160156 37.121094 C 16.203125 36.964844 16.277344 36.820312 16.382812 36.699219 L 16.394531 36.683594 C 16.664062 36.355469 17.007812 36.152344 17.425781 36.082031 C 17.488281 36.066406 17.554688 36.058594 17.621094 36.054688 C 18.378906 35.984375 19.054688 36.386719 19.167969 37.003906 C 19.226562 37.347656 19.144531 37.648438 18.921875 37.914062 Z M 18.921875 37.914062 " fill-opacity="1" fill-rule="nonzero"/><path fill="#ff7f1f" d="M 24.765625 37.300781 C 23.582031 36.394531 21.980469 36.511719 21.191406 37.570312 C 21.039062 37.773438 20.929688 37.992188 20.855469 38.234375 C 20.558594 39.21875 20.949219 40.398438 21.902344 41.128906 C 22.460938 41.566406 23.089844 41.769531 23.792969 41.738281 C 23.820312 41.738281 23.847656 41.738281 23.875 41.730469 C 24.535156 41.683594 25.070312 41.394531 25.476562 40.863281 C 25.636719 40.644531 25.753906 40.40625 25.824219 40.140625 C 25.898438 39.867188 25.925781 39.59375 25.898438 39.308594 C 25.8125 38.472656 25.433594 37.800781 24.765625 37.300781 Z M 23.726562 40.578125 C 23.304688 40.59375 22.929688 40.46875 22.59375 40.207031 C 22.351562 40.023438 22.167969 39.792969 22.039062 39.515625 C 21.839844 39.082031 21.851562 38.617188 22.105469 38.273438 C 22.308594 38.015625 22.570312 37.875 22.894531 37.859375 C 23.332031 37.832031 23.726562 37.953125 24.074219 38.230469 C 24.75 38.75 24.96875 39.617188 24.5625 40.164062 C 24.503906 40.246094 24.429688 40.320312 24.34375 40.378906 C 24.15625 40.503906 23.953125 40.570312 23.726562 40.578125 Z M 23.726562 40.578125 " fill-opacity="1" fill-rule="nonzero"/><path fill="#ff7f1f" d="M 23.339844 33.621094 C 23.140625 33.066406 22.808594 32.609375 22.34375 32.257812 C 21.160156 31.347656 19.554688 31.46875 18.765625 32.527344 C 18.351562 33.09375 18.226562 33.722656 18.390625 34.410156 C 18.558594 35.101562 18.921875 35.660156 19.480469 36.089844 C 20.058594 36.542969 20.714844 36.742188 21.445312 36.6875 C 22.109375 36.640625 22.644531 36.351562 23.050781 35.820312 C 23.390625 35.359375 23.53125 34.839844 23.472656 34.265625 C 23.457031 34.046875 23.410156 33.832031 23.339844 33.621094 Z M 22.140625 35.117188 C 21.847656 35.511719 21.308594 35.628906 20.773438 35.472656 C 20.554688 35.40625 20.355469 35.304688 20.171875 35.164062 C 19.832031 34.910156 19.613281 34.574219 19.511719 34.15625 C 19.46875 34.003906 19.460938 33.84375 19.488281 33.683594 C 19.515625 33.527344 19.574219 33.378906 19.667969 33.25 C 19.761719 33.117188 19.878906 33.011719 20.019531 32.9375 C 20.160156 32.859375 20.3125 32.820312 20.472656 32.8125 C 20.671875 32.796875 20.871094 32.820312 21.066406 32.878906 C 21.277344 32.945312 21.472656 33.046875 21.648438 33.1875 C 22.15625 33.578125 22.40625 34.160156 22.328125 34.65625 C 22.304688 34.824219 22.242188 34.980469 22.140625 35.117188 Z M 22.140625 35.117188 " fill-opacity="1" fill-rule="nonzero"/><path fill="#3da025" d="M 36.773438 10.65625 C 36.765625 10.8125 36.746094 10.964844 36.722656 11.121094 C 36.492188 12.605469 35.296875 14.28125 33.863281 15.320312 C 33.183594 15.8125 32.449219 16.164062 31.734375 16.285156 C 31.554688 16.316406 31.378906 16.328125 31.199219 16.328125 C 31.167969 16.328125 31.140625 16.328125 31.113281 16.328125 C 31.03125 16.308594 30.960938 16.273438 30.894531 16.230469 C 30.796875 16.164062 30.695312 16.113281 30.585938 16.074219 C 30.578125 16.074219 30.566406 16.074219 30.558594 16.074219 C 30.480469 16.074219 30.410156 16.074219 30.335938 16.074219 C 30.144531 16.066406 29.953125 16.042969 29.765625 16 C 28.5 15.714844 27.585938 14.644531 27.324219 13.238281 C 27.320312 13.210938 27.316406 13.183594 27.308594 13.15625 L 27.300781 13.089844 C 27.285156 13.007812 27.273438 12.925781 27.269531 12.839844 L 27.351562 12.863281 C 27.195312 12.210938 27.269531 11.585938 27.574219 10.992188 C 27.847656 10.457031 28.25 10.019531 28.640625 9.589844 C 28.746094 9.472656 28.863281 9.367188 28.972656 9.265625 C 29.085938 9.164062 29.191406 9.066406 29.292969 8.957031 L 29.363281 8.878906 L 29.4375 8.949219 C 29.894531 9.375 30.226562 9.882812 30.433594 10.472656 C 30.898438 9.527344 31.628906 8.902344 32.628906 8.59375 C 33.882812 8.210938 34.996094 7.992188 35.929688 7.945312 L 36 7.945312 L 36.027344 8.015625 C 36.367188 8.867188 36.617188 9.75 36.773438 10.65625 Z M 36.773438 10.65625 " fill-opacity="1" fill-rule="nonzero"/><path fill="#ff7f1f" d="M 34.085938 9.402344 C 34.265625 9.59375 34.429688 9.800781 34.574219 10.023438 C 34.714844 10.246094 34.835938 10.484375 34.929688 10.730469 C 35.027344 10.976562 35.101562 11.234375 35.144531 11.496094 C 35.191406 11.757812 35.214844 12.023438 35.210938 12.292969 C 35.203125 12.558594 35.175781 12.824219 35.117188 13.085938 C 35.0625 13.347656 34.980469 13.601562 34.875 13.851562 C 34.769531 14.097656 34.640625 14.332031 34.492188 14.550781 C 34.339844 14.773438 34.171875 14.980469 33.980469 15.167969 C 33.789062 15.355469 33.585938 15.523438 33.363281 15.671875 C 33.140625 15.820312 32.90625 15.945312 32.660156 16.042969 C 32.414062 16.144531 32.164062 16.222656 31.902344 16.273438 C 31.644531 16.324219 31.382812 16.347656 31.117188 16.347656 C 30.855469 16.347656 30.59375 16.320312 30.335938 16.265625 C 30.078125 16.210938 29.828125 16.132812 29.585938 16.03125 C 29.34375 15.925781 29.113281 15.800781 28.898438 15.648438 C 28.679688 15.5 28.480469 15.328125 28.296875 15.140625 C 28.113281 14.949219 27.953125 14.742188 27.808594 14.519531 C 27.667969 14.296875 27.546875 14.0625 27.449219 13.8125 C 27.355469 13.566406 27.28125 13.308594 27.234375 13.046875 C 27.1875 12.785156 27.167969 12.519531 27.171875 12.25 C 27.175781 11.984375 27.207031 11.71875 27.265625 11.457031 C 27.320312 11.195312 27.402344 10.941406 27.507812 10.695312 C 27.613281 10.445312 27.738281 10.210938 27.890625 9.992188 C 28.039062 9.769531 28.210938 9.5625 28.402344 9.375 C 28.589844 9.1875 28.796875 9.019531 29.019531 8.871094 C 29.242188 8.722656 29.476562 8.601562 29.71875 8.5 C 29.964844 8.398438 30.21875 8.320312 30.476562 8.269531 C 30.738281 8.21875 31 8.195312 31.265625 8.195312 C 31.527344 8.199219 31.789062 8.226562 32.046875 8.277344 C 32.304688 8.332031 32.554688 8.410156 32.796875 8.515625 C 33.039062 8.617188 33.265625 8.746094 33.484375 8.894531 C 33.699219 9.042969 33.902344 9.214844 34.085938 9.402344 Z M 34.085938 9.402344 " fill-opacity="1" fill-rule="nonzero"/><path fill="#ffc200" d="M 33.714844 9.023438 C 34.039062 9.355469 34.273438 9.75 34.421875 10.203125 C 34.574219 10.65625 34.625 11.136719 34.582031 11.640625 C 34.539062 12.144531 34.398438 12.636719 34.167969 13.117188 C 33.9375 13.59375 33.628906 14.023438 33.246094 14.40625 C 32.863281 14.785156 32.433594 15.085938 31.953125 15.308594 C 31.476562 15.535156 30.988281 15.664062 30.492188 15.695312 C 29.992188 15.730469 29.519531 15.664062 29.078125 15.5 C 28.632812 15.339844 28.25 15.089844 27.929688 14.757812 C 27.609375 14.425781 27.375 14.03125 27.222656 13.578125 C 27.074219 13.125 27.019531 12.644531 27.066406 12.140625 C 27.109375 11.636719 27.246094 11.144531 27.480469 10.664062 C 27.710938 10.1875 28.019531 9.757812 28.402344 9.375 C 28.785156 8.996094 29.214844 8.695312 29.691406 8.46875 C 30.171875 8.246094 30.65625 8.117188 31.15625 8.085938 C 31.65625 8.050781 32.125 8.117188 32.570312 8.277344 C 33.011719 8.441406 33.394531 8.6875 33.714844 9.023438 Z M 33.714844 9.023438 " fill-opacity="1" fill-rule="nonzero"/><path fill="#ffc200" d="M 33.316406 9.417969 C 33.59375 9.707031 33.796875 10.042969 33.925781 10.433594 C 34.054688 10.828125 34.101562 11.238281 34.0625 11.675781 C 34.023438 12.109375 33.90625 12.535156 33.707031 12.945312 C 33.507812 13.359375 33.242188 13.730469 32.910156 14.058594 C 32.582031 14.386719 32.210938 14.644531 31.796875 14.839844 C 31.386719 15.03125 30.964844 15.140625 30.535156 15.171875 C 30.105469 15.199219 29.699219 15.144531 29.320312 15.003906 C 28.9375 14.863281 28.605469 14.648438 28.328125 14.363281 C 28.054688 14.074219 27.851562 13.734375 27.71875 13.34375 C 27.589844 12.953125 27.546875 12.539062 27.582031 12.105469 C 27.621094 11.671875 27.742188 11.246094 27.941406 10.835938 C 28.140625 10.421875 28.40625 10.050781 28.734375 9.722656 C 29.066406 9.394531 29.4375 9.136719 29.847656 8.941406 C 30.261719 8.75 30.679688 8.636719 31.109375 8.609375 C 31.539062 8.582031 31.945312 8.636719 32.328125 8.777344 C 32.710938 8.917969 33.039062 9.128906 33.316406 9.417969 Z M 33.316406 9.417969 " fill-opacity="1" fill-rule="nonzero"/><path fill="#ff7f1f" d="M 29.792969 11.917969 C 29.679688 12.148438 29.28125 12.199219 29.074219 12.261719 L 28.519531 12.441406 C 28.191406 12.546875 27.902344 12.3125 27.945312 11.976562 C 27.96875 11.765625 28.019531 11.558594 28.085938 11.355469 C 28.195312 11.027344 28.578125 10.855469 28.84375 11.003906 L 29.363281 11.296875 C 29.558594 11.40625 29.84375 11.535156 29.820312 11.816406 C 29.816406 11.851562 29.804688 11.886719 29.792969 11.917969 Z M 29.792969 11.917969 " fill-opacity="1" fill-rule="nonzero"/><path fill="#ff7f1f" d="M 30.160156 11.085938 C 29.816406 11.191406 29.335938 10.828125 29.058594 10.671875 C 28.777344 10.515625 28.777344 10.125 29.035156 9.882812 C 29.199219 9.730469 29.375 9.597656 29.5625 9.476562 C 29.863281 9.285156 30.21875 9.414062 30.269531 9.730469 C 30.328125 10.074219 30.636719 10.9375 30.160156 11.085938 Z M 30.160156 11.085938 " fill-opacity="1" fill-rule="nonzero"/><path fill="#ff7f1f" d="M 32.023438 9.726562 C 31.839844 10.007812 31.488281 10.851562 31.074219 10.769531 C 30.675781 10.695312 30.6875 9.925781 30.632812 9.617188 C 30.582031 9.304688 30.859375 8.96875 31.1875 8.957031 C 31.390625 8.953125 31.589844 8.96875 31.789062 9.007812 C 32.097656 9.070312 32.214844 9.429688 32.023438 9.726562 Z M 32.023438 9.726562 " fill-opacity="1" fill-rule="nonzero"/><path fill="#ff7f1f" d="M 29.859375 12.761719 C 29.867188 12.773438 29.871094 12.785156 29.878906 12.796875 C 30.011719 13.117188 29.496094 13.628906 29.328125 13.886719 C 29.136719 14.183594 28.742188 14.257812 28.539062 14.03125 C 28.410156 13.886719 28.300781 13.730469 28.210938 13.558594 C 28.066406 13.285156 28.246094 12.902344 28.574219 12.796875 C 28.902344 12.691406 29.636719 12.320312 29.859375 12.761719 Z M 29.859375 12.761719 " fill-opacity="1" fill-rule="nonzero"/><path fill="#ff7f1f" d="M 30.464844 14.820312 C 30.261719 14.828125 30.0625 14.8125 29.867188 14.773438 C 29.554688 14.714844 29.441406 14.351562 29.632812 14.054688 C 29.796875 13.804688 30.253906 12.738281 30.660156 13.082031 C 30.941406 13.324219 30.960938 13.832031 31.019531 14.164062 C 31.070312 14.480469 30.796875 14.8125 30.464844 14.820312 Z M 30.464844 14.820312 " fill-opacity="1" fill-rule="nonzero"/><path fill="#ff7f1f" d="M 33.0625 10.972656 C 32.765625 11.085938 32.460938 11.160156 32.144531 11.199219 C 31.160156 11.34375 32.140625 10.175781 32.320312 9.898438 C 32.511719 9.601562 32.910156 9.527344 33.113281 9.753906 C 33.242188 9.898438 33.351562 10.054688 33.441406 10.226562 C 33.628906 10.597656 33.394531 10.824219 33.0625 10.972656 Z M 33.0625 10.972656 " fill-opacity="1" fill-rule="nonzero"/><path fill="#ff7f1f" d="M 32.609375 13.898438 C 32.449219 14.050781 32.277344 14.1875 32.089844 14.304688 C 31.789062 14.496094 31.433594 14.371094 31.382812 14.050781 C 31.324219 13.703125 31.042969 13.03125 31.402344 12.800781 C 31.761719 12.574219 32.273438 12.933594 32.589844 13.113281 C 32.855469 13.261719 32.871094 13.652344 32.609375 13.898438 Z M 32.609375 13.898438 " fill-opacity="1" fill-rule="nonzero"/><path fill="#ff7f1f" d="M 32.804688 12.777344 C 32.523438 12.617188 31.742188 12.421875 31.816406 11.980469 C 31.886719 11.542969 32.800781 11.449219 33.128906 11.34375 C 33.457031 11.238281 33.742188 11.472656 33.699219 11.808594 C 33.675781 12.019531 33.628906 12.226562 33.558594 12.425781 C 33.453125 12.753906 33.074219 12.925781 32.804688 12.777344 Z M 32.804688 12.777344 " fill-opacity="1" fill-rule="nonzero"/><path fill="#d81f2b" d="M 13.578125 28.082031 C 13.804688 28.222656 14.015625 28.386719 14.210938 28.566406 C 14.40625 28.75 14.582031 28.949219 14.742188 29.167969 C 14.898438 29.382812 15.03125 29.613281 15.144531 29.855469 C 15.257812 30.097656 15.34375 30.351562 15.40625 30.609375 C 15.46875 30.871094 15.507812 31.132812 15.519531 31.398438 C 15.53125 31.667969 15.519531 31.929688 15.476562 32.195312 C 15.4375 32.457031 15.375 32.714844 15.285156 32.964844 C 15.191406 33.214844 15.078125 33.453125 14.941406 33.679688 C 14.804688 33.90625 14.648438 34.117188 14.46875 34.3125 C 14.289062 34.507812 14.09375 34.679688 13.882812 34.835938 C 13.667969 34.992188 13.441406 35.125 13.203125 35.234375 C 12.964844 35.347656 12.714844 35.433594 12.457031 35.492188 C 12.199219 35.554688 11.941406 35.589844 11.675781 35.597656 C 11.410156 35.605469 11.148438 35.589844 10.886719 35.546875 C 10.625 35.503906 10.371094 35.433594 10.121094 35.339844 C 9.871094 35.246094 9.632812 35.128906 9.40625 34.988281 C 9.179688 34.847656 8.96875 34.683594 8.773438 34.503906 C 8.578125 34.320312 8.402344 34.121094 8.246094 33.90625 C 8.089844 33.6875 7.957031 33.457031 7.84375 33.214844 C 7.730469 32.972656 7.644531 32.71875 7.578125 32.460938 C 7.515625 32.199219 7.480469 31.9375 7.46875 31.671875 C 7.457031 31.402344 7.46875 31.140625 7.507812 30.875 C 7.550781 30.613281 7.613281 30.355469 7.703125 30.105469 C 7.792969 29.855469 7.90625 29.617188 8.042969 29.390625 C 8.179688 29.164062 8.339844 28.953125 8.519531 28.757812 C 8.695312 28.5625 8.890625 28.390625 9.105469 28.234375 C 9.320312 28.078125 9.546875 27.945312 9.785156 27.835938 C 10.023438 27.722656 10.273438 27.640625 10.53125 27.578125 C 10.785156 27.515625 11.046875 27.484375 11.3125 27.472656 C 11.574219 27.464844 11.839844 27.480469 12.101562 27.523438 C 12.363281 27.570312 12.617188 27.636719 12.867188 27.730469 C 13.113281 27.824219 13.351562 27.941406 13.578125 28.082031 Z M 13.578125 28.082031 " fill-opacity="1" fill-rule="nonzero"/><path fill="#ff5f5f" d="M 13.664062 27.898438 C 14.121094 28.179688 14.519531 28.527344 14.851562 28.941406 C 15.183594 29.355469 15.425781 29.800781 15.582031 30.28125 C 15.738281 30.765625 15.792969 31.242188 15.75 31.71875 C 15.703125 32.195312 15.5625 32.632812 15.324219 33.03125 C 15.085938 33.429688 14.769531 33.757812 14.371094 34.019531 C 13.976562 34.28125 13.53125 34.449219 13.039062 34.53125 C 12.546875 34.613281 12.042969 34.601562 11.527344 34.492188 C 11.011719 34.386719 10.527344 34.191406 10.066406 33.90625 C 9.609375 33.625 9.214844 33.277344 8.882812 32.863281 C 8.546875 32.449219 8.304688 32.003906 8.148438 31.523438 C 7.992188 31.039062 7.9375 30.5625 7.984375 30.085938 C 8.027344 29.609375 8.167969 29.171875 8.40625 28.773438 C 8.648438 28.375 8.964844 28.046875 9.359375 27.785156 C 9.753906 27.523438 10.199219 27.355469 10.691406 27.273438 C 11.183594 27.191406 11.6875 27.203125 12.203125 27.3125 C 12.71875 27.417969 13.207031 27.613281 13.664062 27.898438 Z M 13.664062 27.898438 " fill-opacity="1" fill-rule="nonzero"/><path fill="#ff5f5f" d="M 13.417969 28.3125 C 13.8125 28.554688 14.152344 28.855469 14.4375 29.210938 C 14.726562 29.566406 14.9375 29.953125 15.070312 30.367188 C 15.203125 30.785156 15.25 31.195312 15.214844 31.605469 C 15.175781 32.015625 15.050781 32.394531 14.847656 32.738281 C 14.640625 33.082031 14.367188 33.363281 14.027344 33.589844 C 13.683594 33.8125 13.300781 33.960938 12.878906 34.03125 C 12.453125 34.101562 12.019531 34.089844 11.574219 33.996094 C 11.128906 33.902344 10.710938 33.734375 10.316406 33.492188 C 9.921875 33.25 9.578125 32.949219 9.292969 32.59375 C 9.007812 32.238281 8.796875 31.851562 8.664062 31.4375 C 8.527344 31.019531 8.480469 30.609375 8.519531 30.199219 C 8.558594 29.789062 8.679688 29.410156 8.886719 29.066406 C 9.089844 28.722656 9.363281 28.441406 9.707031 28.214844 C 10.046875 27.992188 10.429688 27.84375 10.855469 27.773438 C 11.277344 27.703125 11.714844 27.714844 12.15625 27.808594 C 12.601562 27.902344 13.019531 28.070312 13.417969 28.3125 Z M 13.417969 28.3125 " fill-opacity="1" fill-rule="nonzero"/><path fill="#d81f2b" d="M 12.878906 30.691406 C 13.039062 30.890625 13.433594 30.847656 13.652344 30.863281 L 14.234375 30.910156 C 14.578125 30.9375 14.804688 30.644531 14.691406 30.328125 C 14.617188 30.125 14.523438 29.933594 14.414062 29.753906 C 14.234375 29.457031 13.824219 29.378906 13.597656 29.585938 L 13.15625 29.988281 C 12.992188 30.140625 12.738281 30.332031 12.828125 30.601562 C 12.839844 30.632812 12.855469 30.664062 12.878906 30.691406 Z M 12.878906 30.691406 " fill-opacity="1" fill-rule="nonzero"/><path fill="#d81f2b" d="M 12.335938 29.96875 C 12.691406 29.992188 13.078125 29.527344 13.316406 29.3125 C 13.558594 29.09375 13.46875 28.714844 13.160156 28.539062 C 12.96875 28.429688 12.769531 28.335938 12.558594 28.261719 C 12.222656 28.144531 11.90625 28.351562 11.925781 28.679688 C 11.945312 29.019531 11.832031 29.933594 12.335938 29.96875 Z M 12.335938 29.96875 " fill-opacity="1" fill-rule="nonzero"/><path fill="#d81f2b" d="M 10.214844 29.070312 C 10.460938 29.304688 10.988281 30.042969 11.371094 29.871094 C 11.742188 29.707031 11.5625 28.957031 11.542969 28.644531 C 11.523438 28.335938 11.179688 28.0625 10.855469 28.132812 C 10.660156 28.171875 10.46875 28.234375 10.28125 28.316406 C 9.996094 28.449219 9.964844 28.828125 10.214844 29.070312 Z M 10.214844 29.070312 " fill-opacity="1" fill-rule="nonzero"/><path fill="#d81f2b" d="M 12.996094 31.535156 C 12.996094 31.546875 12.988281 31.558594 12.988281 31.570312 C 12.929688 31.914062 13.546875 32.296875 13.765625 32.507812 C 14.019531 32.753906 14.421875 32.734375 14.566406 32.464844 C 14.660156 32.296875 14.730469 32.117188 14.78125 31.929688 C 14.863281 31.628906 14.597656 31.296875 14.253906 31.269531 C 13.910156 31.246094 13.121094 31.050781 12.996094 31.535156 Z M 12.996094 31.535156 " fill-opacity="1" fill-rule="nonzero"/><path fill="#d81f2b" d="M 12.871094 33.675781 C 13.066406 33.636719 13.257812 33.578125 13.441406 33.492188 C 13.730469 33.363281 13.761719 32.984375 13.511719 32.738281 C 13.296875 32.53125 12.609375 31.597656 12.292969 32.027344 C 12.074219 32.324219 12.164062 32.824219 12.183594 33.164062 C 12.203125 33.488281 12.546875 33.742188 12.871094 33.675781 Z M 12.871094 33.675781 " fill-opacity="1" fill-rule="nonzero"/><path fill="#d81f2b" d="M 9.480469 30.527344 C 9.792969 30.566406 10.109375 30.570312 10.425781 30.535156 C 11.417969 30.453125 10.203125 29.535156 9.964844 29.308594 C 9.710938 29.0625 9.308594 29.082031 9.160156 29.351562 C 9.066406 29.519531 8.996094 29.695312 8.949219 29.882812 C 8.84375 30.289062 9.128906 30.457031 9.480469 30.527344 Z M 9.480469 30.527344 " fill-opacity="1" fill-rule="nonzero"/><path fill="#d81f2b" d="M 10.570312 33.269531 C 10.761719 33.378906 10.960938 33.46875 11.167969 33.542969 C 11.503906 33.660156 11.824219 33.457031 11.804688 33.132812 C 11.78125 32.777344 11.90625 32.0625 11.503906 31.921875 C 11.101562 31.785156 10.683594 32.25 10.417969 32.496094 C 10.191406 32.703125 10.265625 33.089844 10.570312 33.269531 Z M 10.570312 33.269531 " fill-opacity="1" fill-rule="nonzero"/><path fill="#d81f2b" d="M 10.132812 32.222656 C 10.371094 32.003906 11.085938 31.632812 10.917969 31.222656 C 10.75 30.816406 9.84375 30.929688 9.5 30.902344 C 9.152344 30.875 8.925781 31.167969 9.042969 31.484375 C 9.117188 31.683594 9.207031 31.875 9.320312 32.054688 C 9.496094 32.347656 9.90625 32.429688 10.132812 32.222656 Z M 10.132812 32.222656 " fill-opacity="1" fill-rule="nonzero"/><path fill="#ff7f1f" d="M 30.242188 35.070312 C 29.660156 34.675781 29.035156 34.578125 28.367188 34.78125 C 27.691406 34.980469 27.15625 35.375 26.769531 35.96875 C 26.441406 36.449219 26.269531 36.980469 26.253906 37.5625 C 26.25 37.679688 26.257812 37.796875 26.269531 37.910156 C 26.328125 38.617188 26.640625 39.167969 27.214844 39.574219 C 27.648438 39.871094 28.125 39.996094 28.644531 39.941406 C 28.792969 39.929688 28.941406 39.902344 29.089844 39.859375 C 29.410156 39.765625 29.707031 39.621094 29.976562 39.421875 C 30.253906 39.210938 30.488281 38.960938 30.683594 38.671875 C 30.96875 38.253906 31.136719 37.796875 31.1875 37.292969 C 31.207031 37.105469 31.207031 36.917969 31.1875 36.730469 C 31.113281 36.03125 30.777344 35.441406 30.242188 35.070312 Z M 28.78125 38.742188 C 28.453125 38.84375 28.144531 38.804688 27.855469 38.613281 C 27.742188 38.53125 27.648438 38.429688 27.574219 38.308594 C 27.476562 38.148438 27.421875 37.972656 27.40625 37.789062 C 27.375 37.363281 27.480469 36.976562 27.71875 36.625 C 27.953125 36.273438 28.273438 36.03125 28.671875 35.902344 C 28.75 35.882812 28.828125 35.867188 28.910156 35.859375 C 29.15625 35.832031 29.386719 35.890625 29.59375 36.03125 C 29.875 36.234375 30.023438 36.507812 30.046875 36.855469 C 30.082031 37.28125 29.980469 37.667969 29.738281 38.019531 C 29.609375 38.207031 29.457031 38.367188 29.277344 38.5 C 29.125 38.609375 28.960938 38.6875 28.78125 38.742188 Z M 28.78125 38.742188 " fill-opacity="1" fill-rule="nonzero"/><path fill="#ffcb9c" d="M 32.535156 20.171875 C 32.589844 20.261719 32.585938 20.367188 32.527344 20.488281 C 32.464844 20.613281 32.367188 20.71875 32.226562 20.804688 C 32.089844 20.890625 31.953125 20.933594 31.816406 20.933594 C 31.679688 20.933594 31.585938 20.886719 31.53125 20.800781 C 31.476562 20.710938 31.480469 20.605469 31.542969 20.480469 C 31.601562 20.359375 31.699219 20.253906 31.839844 20.164062 C 31.976562 20.078125 32.113281 20.035156 32.25 20.039062 C 32.386719 20.039062 32.480469 20.082031 32.535156 20.171875 Z M 32.535156 20.171875 " fill-opacity="1" fill-rule="nonzero"/><path fill="#ffcb9c" d="M 26.128906 19.273438 C 26.285156 19.320312 26.410156 19.394531 26.5 19.496094 C 26.589844 19.597656 26.625 19.699219 26.597656 19.796875 C 26.566406 19.898438 26.488281 19.964844 26.359375 20.003906 C 26.230469 20.042969 26.085938 20.039062 25.929688 19.996094 C 25.773438 19.953125 25.648438 19.878906 25.558594 19.777344 C 25.46875 19.675781 25.4375 19.574219 25.464844 19.472656 C 25.492188 19.375 25.570312 19.304688 25.699219 19.265625 C 25.832031 19.226562 25.972656 19.230469 26.128906 19.273438 Z M 26.128906 19.273438 " fill-opacity="1" fill-rule="nonzero"/><path fill="#ffcb9c" d="M 27.636719 22.765625 C 27.734375 22.898438 27.789062 23.035156 27.796875 23.171875 C 27.808594 23.308594 27.773438 23.410156 27.691406 23.46875 C 27.609375 23.53125 27.503906 23.539062 27.375 23.488281 C 27.25 23.4375 27.136719 23.347656 27.042969 23.214844 C 26.945312 23.082031 26.890625 22.945312 26.878906 22.808594 C 26.871094 22.671875 26.90625 22.570312 26.988281 22.511719 C 27.070312 22.449219 27.175781 22.441406 27.300781 22.492188 C 27.429688 22.542969 27.539062 22.632812 27.636719 22.765625 Z M 27.636719 22.765625 " fill-opacity="1" fill-rule="nonzero"/><path fill="#ffcb9c" d="M 23.457031 20.796875 C 23.621094 20.8125 23.753906 20.863281 23.863281 20.949219 C 23.96875 21.03125 24.019531 21.125 24.007812 21.230469 C 24 21.332031 23.933594 21.414062 23.8125 21.476562 C 23.691406 21.539062 23.546875 21.5625 23.386719 21.546875 C 23.222656 21.527344 23.089844 21.480469 22.980469 21.394531 C 22.875 21.308594 22.824219 21.214844 22.835938 21.113281 C 22.84375 21.011719 22.910156 20.925781 23.03125 20.867188 C 23.152344 20.804688 23.296875 20.78125 23.457031 20.796875 Z M 23.457031 20.796875 " fill-opacity="1" fill-rule="nonzero"/><path fill="#ffcb9c" d="M 17.992188 18.136719 C 18.03125 18.230469 18.015625 18.335938 17.941406 18.449219 C 17.863281 18.5625 17.753906 18.65625 17.605469 18.722656 C 17.457031 18.789062 17.3125 18.8125 17.179688 18.792969 C 17.042969 18.773438 16.957031 18.71875 16.914062 18.621094 C 16.871094 18.527344 16.890625 18.421875 16.964844 18.308594 C 17.039062 18.195312 17.152344 18.101562 17.300781 18.035156 C 17.449219 17.96875 17.589844 17.945312 17.726562 17.964844 C 17.859375 17.984375 17.949219 18.039062 17.992188 18.136719 Z M 17.992188 18.136719 " fill-opacity="1" fill-rule="nonzero"/><path fill="#ffcb9c" d="M 15.71875 20.730469 C 15.859375 20.808594 15.964844 20.90625 16.035156 21.027344 C 16.101562 21.148438 16.113281 21.253906 16.0625 21.34375 C 16.015625 21.4375 15.925781 21.488281 15.789062 21.496094 C 15.652344 21.507812 15.511719 21.472656 15.371094 21.394531 C 15.226562 21.316406 15.121094 21.21875 15.050781 21.101562 C 14.984375 20.980469 14.976562 20.875 15.023438 20.78125 C 15.070312 20.691406 15.164062 20.640625 15.296875 20.628906 C 15.433594 20.621094 15.574219 20.65625 15.71875 20.730469 Z M 15.71875 20.730469 " fill-opacity="1" fill-rule="nonzero"/><path fill="#ffcb9c" d="M 20 22.734375 C 20.0625 22.816406 20.066406 22.921875 20.015625 23.050781 C 19.96875 23.179688 19.878906 23.292969 19.746094 23.390625 C 19.617188 23.488281 19.484375 23.542969 19.347656 23.554688 C 19.210938 23.5625 19.113281 23.527344 19.054688 23.445312 C 18.992188 23.359375 18.984375 23.253906 19.035156 23.125 C 19.085938 23 19.175781 22.886719 19.304688 22.785156 C 19.4375 22.6875 19.570312 22.632812 19.707031 22.625 C 19.839844 22.613281 19.9375 22.648438 20 22.734375 Z M 20 22.734375 " fill-opacity="1" fill-rule="nonzero"/></svg>