<svg xmlns="http://www.w3.org/2000/svg" xmlns:xlink="http://www.w3.org/1999/xlink" width="64" zoomAndPan="magnify" viewBox="0 0 48 48" height="64" preserveAspectRatio="xMidYMid meet" version="1.0"><defs><clipPath id="cc845d64ab"><path d="M 1.640625 16 L 46.457031 16 L 46.457031 34.679688 L 1.640625 34.679688 Z M 1.640625 16 " clip-rule="nonzero"/></clipPath><clipPath id="9e6033646f"><path d="M 1.640625 16 L 46.457031 16 L 46.457031 34 L 1.640625 34 Z M 1.640625 16 " clip-rule="nonzero"/></clipPath><clipPath id="cf668aa0a9"><path d="M 23.925781 12.886719 L 37.960938 12.886719 L 37.960938 27.078125 L 23.925781 27.078125 Z M 23.925781 12.886719 " clip-rule="nonzero"/></clipPath><clipPath id="f06061cfc6"><path d="M 23.949219 19.972656 C 23.949219 19.035156 24.125 18.136719 24.480469 17.273438 C 24.832031 16.410156 25.335938 15.644531 25.992188 14.984375 C 26.644531 14.324219 27.398438 13.8125 28.253906 13.457031 C 29.105469 13.097656 29.996094 12.917969 30.921875 12.917969 C 31.847656 12.917969 32.734375 13.097656 33.589844 13.457031 C 34.445312 13.8125 35.199219 14.324219 35.851562 14.984375 C 36.503906 15.644531 37.007812 16.410156 37.363281 17.273438 C 37.71875 18.136719 37.894531 19.035156 37.894531 19.972656 C 37.894531 20.90625 37.71875 21.804688 37.363281 22.667969 C 37.007812 23.535156 36.503906 24.296875 35.851562 24.957031 C 35.199219 25.617188 34.445312 26.128906 33.589844 26.484375 C 32.734375 26.84375 31.847656 27.023438 30.921875 27.023438 C 29.996094 27.023438 29.105469 26.84375 28.253906 26.484375 C 27.398438 26.128906 26.644531 25.617188 25.992188 24.957031 C 25.335938 24.296875 24.832031 23.535156 24.480469 22.667969 C 24.125 21.804688 23.949219 20.90625 23.949219 19.972656 Z M 23.949219 19.972656 " clip-rule="nonzero"/></clipPath><clipPath id="9c87a4e711"><path d="M 25 12.886719 L 37.960938 12.886719 L 37.960938 25 L 25 25 Z M 25 12.886719 " clip-rule="nonzero"/></clipPath><clipPath id="6f5db40b88"><path d="M 23.949219 19.972656 C 23.949219 19.035156 24.125 18.136719 24.480469 17.273438 C 24.832031 16.410156 25.335938 15.644531 25.992188 14.984375 C 26.644531 14.324219 27.398438 13.8125 28.253906 13.457031 C 29.105469 13.097656 29.996094 12.917969 30.921875 12.917969 C 31.847656 12.917969 32.734375 13.097656 33.589844 13.457031 C 34.445312 13.8125 35.199219 14.324219 35.851562 14.984375 C 36.503906 15.644531 37.007812 16.410156 37.363281 17.273438 C 37.71875 18.136719 37.894531 19.035156 37.894531 19.972656 C 37.894531 20.90625 37.71875 21.804688 37.363281 22.667969 C 37.007812 23.535156 36.503906 24.296875 35.851562 24.957031 C 35.199219 25.617188 34.445312 26.128906 33.589844 26.484375 C 32.734375 26.84375 31.847656 27.023438 30.921875 27.023438 C 29.996094 27.023438 29.105469 26.84375 28.253906 26.484375 C 27.398438 26.128906 26.644531 25.617188 25.992188 24.957031 C 25.335938 24.296875 24.832031 23.535156 24.480469 22.667969 C 24.125 21.804688 23.949219 20.90625 23.949219 19.972656 Z M 23.949219 19.972656 " clip-rule="nonzero"/></clipPath><clipPath id="db42586405"><path d="M 27 12.886719 L 37.960938 12.886719 L 37.960938 21 L 27 21 Z M 27 12.886719 " clip-rule="nonzero"/></clipPath><clipPath id="42caf96df4"><path d="M 23.949219 19.972656 C 23.949219 19.035156 24.125 18.136719 24.480469 17.273438 C 24.832031 16.410156 25.335938 15.644531 25.992188 14.984375 C 26.644531 14.324219 27.398438 13.8125 28.253906 13.457031 C 29.105469 13.097656 29.996094 12.917969 30.921875 12.917969 C 31.847656 12.917969 32.734375 13.097656 33.589844 13.457031 C 34.445312 13.8125 35.199219 14.324219 35.851562 14.984375 C 36.503906 15.644531 37.007812 16.410156 37.363281 17.273438 C 37.71875 18.136719 37.894531 19.035156 37.894531 19.972656 C 37.894531 20.90625 37.71875 21.804688 37.363281 22.667969 C 37.007812 23.535156 36.503906 24.296875 35.851562 24.957031 C 35.199219 25.617188 34.445312 26.128906 33.589844 26.484375 C 32.734375 26.84375 31.847656 27.023438 30.921875 27.023438 C 29.996094 27.023438 29.105469 26.84375 28.253906 26.484375 C 27.398438 26.128906 26.644531 25.617188 25.992188 24.957031 C 25.335938 24.296875 24.832031 23.535156 24.480469 22.667969 C 24.125 21.804688 23.949219 20.90625 23.949219 19.972656 Z M 23.949219 19.972656 " clip-rule="nonzero"/></clipPath><clipPath id="50838a98e0"><path d="M 10.113281 13.882812 L 25.679688 13.882812 L 25.679688 29.519531 L 10.113281 29.519531 Z M 10.113281 13.882812 " clip-rule="nonzero"/></clipPath><clipPath id="d40c3e5f51"><path d="M 10.191406 21.722656 C 10.191406 20.6875 10.386719 19.695312 10.777344 18.738281 C 11.167969 17.785156 11.726562 16.941406 12.449219 16.210938 C 13.171875 15.480469 14.003906 14.917969 14.949219 14.523438 C 15.890625 14.125 16.875 13.929688 17.898438 13.929688 C 18.917969 13.929688 19.902344 14.125 20.847656 14.523438 C 21.789062 14.917969 22.625 15.480469 23.347656 16.210938 C 24.070312 16.941406 24.625 17.785156 25.019531 18.738281 C 25.410156 19.695312 25.605469 20.6875 25.605469 21.722656 C 25.605469 22.757812 25.410156 23.75 25.019531 24.707031 C 24.625 25.660156 24.070312 26.503906 23.347656 27.234375 C 22.625 27.964844 21.789062 28.527344 20.847656 28.925781 C 19.902344 29.320312 18.917969 29.519531 17.898438 29.519531 C 16.875 29.519531 15.890625 29.320312 14.949219 28.925781 C 14.003906 28.527344 13.171875 27.964844 12.449219 27.234375 C 11.726562 26.503906 11.167969 25.660156 10.777344 24.707031 C 10.386719 23.75 10.191406 22.757812 10.191406 21.722656 Z M 10.191406 21.722656 " clip-rule="nonzero"/></clipPath><clipPath id="ce93bee313"><path d="M 11 13.882812 L 25.679688 13.882812 L 25.679688 28 L 11 28 Z M 11 13.882812 " clip-rule="nonzero"/></clipPath><clipPath id="21d1f6d6d8"><path d="M 10.191406 21.722656 C 10.191406 20.6875 10.386719 19.695312 10.777344 18.738281 C 11.167969 17.785156 11.726562 16.941406 12.449219 16.210938 C 13.171875 15.480469 14.003906 14.917969 14.949219 14.523438 C 15.890625 14.125 16.875 13.929688 17.898438 13.929688 C 18.917969 13.929688 19.902344 14.125 20.847656 14.523438 C 21.789062 14.917969 22.625 15.480469 23.347656 16.210938 C 24.070312 16.941406 24.625 17.785156 25.019531 18.738281 C 25.410156 19.695312 25.605469 20.6875 25.605469 21.722656 C 25.605469 22.757812 25.410156 23.75 25.019531 24.707031 C 24.625 25.660156 24.070312 26.503906 23.347656 27.234375 C 22.625 27.964844 21.789062 28.527344 20.847656 28.925781 C 19.902344 29.320312 18.917969 29.519531 17.898438 29.519531 C 16.875 29.519531 15.890625 29.320312 14.949219 28.925781 C 14.003906 28.527344 13.171875 27.964844 12.449219 27.234375 C 11.726562 26.503906 11.167969 25.660156 10.777344 24.707031 C 10.386719 23.75 10.191406 22.757812 10.191406 21.722656 Z M 10.191406 21.722656 " clip-rule="nonzero"/></clipPath><clipPath id="20c9fa6fe9"><path d="M 14 13.882812 L 25.679688 13.882812 L 25.679688 23 L 14 23 Z M 14 13.882812 " clip-rule="nonzero"/></clipPath><clipPath id="8c59459ba3"><path d="M 10.191406 21.722656 C 10.191406 20.6875 10.386719 19.695312 10.777344 18.738281 C 11.167969 17.785156 11.726562 16.941406 12.449219 16.210938 C 13.171875 15.480469 14.003906 14.917969 14.949219 14.523438 C 15.890625 14.125 16.875 13.929688 17.898438 13.929688 C 18.917969 13.929688 19.902344 14.125 20.847656 14.523438 C 21.789062 14.917969 22.625 15.480469 23.347656 16.210938 C 24.070312 16.941406 24.625 17.785156 25.019531 18.738281 C 25.410156 19.695312 25.605469 20.6875 25.605469 21.722656 C 25.605469 22.757812 25.410156 23.75 25.019531 24.707031 C 24.625 25.660156 24.070312 26.503906 23.347656 27.234375 C 22.625 27.964844 21.789062 28.527344 20.847656 28.925781 C 19.902344 29.320312 18.917969 29.519531 17.898438 29.519531 C 16.875 29.519531 15.890625 29.320312 14.949219 28.925781 C 14.003906 28.527344 13.171875 27.964844 12.449219 27.234375 C 11.726562 26.503906 11.167969 25.660156 10.777344 24.707031 C 10.386719 23.75 10.191406 22.757812 10.191406 21.722656 Z M 10.191406 21.722656 " clip-rule="nonzero"/></clipPath></defs><g clip-path="url(#cc845d64ab)"><path fill="#f2e7dd" d="M 46.457031 25.679688 C 46.457031 25.976562 46.417969 26.269531 46.347656 26.5625 C 46.277344 26.855469 46.167969 27.144531 46.023438 27.433594 C 45.882812 27.722656 45.703125 28.007812 45.492188 28.289062 C 45.277344 28.570312 45.03125 28.847656 44.75 29.117188 C 44.46875 29.390625 44.15625 29.65625 43.808594 29.914062 C 43.464844 30.175781 43.085938 30.425781 42.679688 30.671875 C 42.273438 30.914062 41.835938 31.152344 41.371094 31.378906 C 40.902344 31.605469 40.410156 31.824219 39.894531 32.03125 C 39.375 32.238281 38.832031 32.4375 38.261719 32.625 C 37.695312 32.808594 37.105469 32.984375 36.496094 33.148438 C 35.886719 33.3125 35.257812 33.464844 34.609375 33.601562 C 33.964844 33.742188 33.300781 33.867188 32.621094 33.980469 C 31.945312 34.089844 31.253906 34.191406 30.550781 34.277344 C 29.851562 34.359375 29.140625 34.433594 28.417969 34.488281 C 27.699219 34.546875 26.972656 34.589844 26.242188 34.621094 C 25.515625 34.648438 24.78125 34.664062 24.046875 34.664062 C 23.3125 34.664062 22.582031 34.648438 21.851562 34.621094 C 21.121094 34.589844 20.394531 34.546875 19.675781 34.488281 C 18.957031 34.433594 18.246094 34.359375 17.542969 34.277344 C 16.839844 34.191406 16.152344 34.089844 15.472656 33.980469 C 14.792969 33.867188 14.132812 33.742188 13.484375 33.601562 C 12.835938 33.464844 12.207031 33.3125 11.597656 33.148438 C 10.988281 32.984375 10.398438 32.808594 9.832031 32.625 C 9.265625 32.4375 8.722656 32.238281 8.203125 32.03125 C 7.683594 31.824219 7.191406 31.605469 6.726562 31.378906 C 6.261719 31.152344 5.824219 30.914062 5.414062 30.671875 C 5.007812 30.425781 4.632812 30.175781 4.285156 29.914062 C 3.941406 29.65625 3.625 29.390625 3.34375 29.117188 C 3.0625 28.847656 2.816406 28.570312 2.605469 28.289062 C 2.390625 28.007812 2.214844 27.722656 2.070312 27.433594 C 1.925781 27.144531 1.820312 26.855469 1.746094 26.5625 C 1.675781 26.269531 1.640625 25.976562 1.640625 25.679688 C 1.640625 25.386719 1.675781 25.09375 1.746094 24.800781 C 1.820312 24.507812 1.925781 24.21875 2.070312 23.929688 C 2.214844 23.640625 2.390625 23.355469 2.605469 23.074219 C 2.816406 22.792969 3.0625 22.515625 3.34375 22.246094 C 3.625 21.972656 3.941406 21.707031 4.285156 21.449219 C 4.632812 21.1875 5.007812 20.9375 5.414062 20.691406 C 5.824219 20.445312 6.261719 20.210938 6.726562 19.984375 C 7.191406 19.757812 7.683594 19.539062 8.203125 19.332031 C 8.722656 19.121094 9.265625 18.925781 9.832031 18.738281 C 10.398438 18.550781 10.988281 18.378906 11.597656 18.214844 C 12.207031 18.050781 12.835938 17.898438 13.484375 17.761719 C 14.132812 17.621094 14.792969 17.496094 15.472656 17.382812 C 16.152344 17.269531 16.839844 17.171875 17.542969 17.085938 C 18.246094 17 18.957031 16.929688 19.675781 16.871094 C 20.394531 16.816406 21.121094 16.773438 21.851562 16.742188 C 22.582031 16.714844 23.3125 16.699219 24.046875 16.699219 C 24.78125 16.699219 25.515625 16.714844 26.242188 16.742188 C 26.972656 16.773438 27.699219 16.816406 28.417969 16.871094 C 29.140625 16.929688 29.851562 17 30.550781 17.085938 C 31.253906 17.171875 31.945312 17.269531 32.621094 17.382812 C 33.300781 17.496094 33.964844 17.621094 34.609375 17.761719 C 35.257812 17.898438 35.886719 18.050781 36.496094 18.214844 C 37.105469 18.378906 37.695312 18.550781 38.261719 18.738281 C 38.832031 18.925781 39.375 19.121094 39.894531 19.332031 C 40.410156 19.539062 40.902344 19.757812 41.371094 19.984375 C 41.835938 20.210938 42.273438 20.445312 42.679688 20.691406 C 43.085938 20.9375 43.464844 21.1875 43.808594 21.449219 C 44.15625 21.707031 44.46875 21.972656 44.75 22.246094 C 45.03125 22.515625 45.277344 22.792969 45.492188 23.074219 C 45.703125 23.355469 45.882812 23.640625 46.023438 23.929688 C 46.167969 24.21875 46.277344 24.507812 46.347656 24.800781 C 46.417969 25.09375 46.457031 25.386719 46.457031 25.679688 Z M 46.457031 25.679688 " fill-opacity="1" fill-rule="nonzero"/></g><g clip-path="url(#9e6033646f)"><path fill="#fff5ec" d="M 46.191406 24.972656 C 46.191406 29.539062 36.28125 33.242188 24.046875 33.242188 C 11.8125 33.242188 1.890625 29.539062 1.890625 24.972656 C 1.890625 23.230469 6.933594 16.878906 24.035156 16.878906 C 41.140625 16.878906 46.191406 23.140625 46.191406 24.972656 Z M 46.191406 24.972656 " fill-opacity="1" fill-rule="nonzero"/></g><path fill="#af8233" d="M 43.296875 25.027344 C 43.296875 25.476562 43.175781 25.917969 42.925781 26.359375 C 42.675781 26.796875 42.304688 27.222656 41.816406 27.636719 C 41.328125 28.050781 40.730469 28.441406 40.019531 28.816406 C 39.308594 29.1875 38.503906 29.53125 37.597656 29.847656 C 36.695312 30.164062 35.710938 30.449219 34.648438 30.695312 C 33.589844 30.945312 32.464844 31.15625 31.285156 31.328125 C 30.105469 31.5 28.890625 31.628906 27.636719 31.714844 C 26.382812 31.800781 25.117188 31.847656 23.839844 31.847656 C 22.5625 31.847656 21.296875 31.800781 20.042969 31.714844 C 18.789062 31.628906 17.574219 31.5 16.394531 31.328125 C 15.210938 31.15625 14.089844 30.945312 13.027344 30.695312 C 11.964844 30.449219 10.984375 30.164062 10.078125 29.847656 C 9.175781 29.53125 8.371094 29.1875 7.660156 28.816406 C 6.949219 28.441406 6.351562 28.050781 5.863281 27.636719 C 5.371094 27.222656 5.003906 26.796875 4.753906 26.359375 C 4.503906 25.917969 4.378906 25.476562 4.378906 25.027344 C 4.378906 24.578125 4.503906 24.136719 4.753906 23.695312 C 5.003906 23.257812 5.371094 22.832031 5.863281 22.417969 C 6.351562 22.003906 6.949219 21.609375 7.660156 21.238281 C 8.371094 20.867188 9.175781 20.523438 10.078125 20.207031 C 10.984375 19.890625 11.964844 19.605469 13.027344 19.355469 C 14.089844 19.109375 15.210938 18.898438 16.394531 18.726562 C 17.574219 18.554688 18.789062 18.425781 20.042969 18.339844 C 21.296875 18.25 22.5625 18.207031 23.839844 18.207031 C 25.117188 18.207031 26.382812 18.25 27.636719 18.339844 C 28.890625 18.425781 30.105469 18.554688 31.285156 18.726562 C 32.464844 18.898438 33.589844 19.109375 34.648438 19.355469 C 35.710938 19.605469 36.695312 19.890625 37.597656 20.207031 C 38.503906 20.523438 39.308594 20.867188 40.019531 21.238281 C 40.730469 21.609375 41.328125 22.003906 41.816406 22.417969 C 42.304688 22.832031 42.675781 23.257812 42.925781 23.695312 C 43.175781 24.136719 43.296875 24.578125 43.296875 25.027344 Z M 43.296875 25.027344 " fill-opacity="1" fill-rule="nonzero"/><path fill="#ce931d" d="M 20.386719 22.675781 C 19.136719 21.445312 17.734375 22.054688 14.003906 21.722656 C 11.167969 21.480469 9.808594 20.9375 8.941406 21.832031 C 8.589844 22.1875 8.710938 22.386719 7.996094 23.34375 C 7.253906 24.351562 6.769531 24.605469 6.738281 25.261719 C 6.714844 25.660156 6.859375 26.257812 7.230469 26.414062 C 7.824219 26.667969 8.359375 25.570312 10.09375 24.785156 C 10.96875 24.382812 11.605469 25.382812 12.085938 25.304688 C 13.171875 25.117188 13.710938 24.097656 15.167969 23.929688 C 16.40625 23.785156 16.40625 23.941406 17.097656 23.894531 C 19.421875 23.730469 20.792969 24.605469 21.097656 24.183594 C 21.296875 23.90625 20.902344 23.1875 20.386719 22.675781 Z M 20.386719 22.675781 " fill-opacity="0.57" fill-rule="nonzero"/><path fill="#ce931d" d="M 20.113281 30.25 C 21.867188 31.445312 23.632812 30.539062 28.53125 30.304688 C 32.257812 30.128906 34.078125 30.527344 35.121094 29.363281 C 35.535156 28.898438 35.363281 28.695312 36.195312 27.488281 C 37.070312 26.226562 37.664062 25.847656 37.640625 25.09375 C 37.628906 24.640625 37.390625 23.972656 36.875 23.851562 C 36.074219 23.652344 35.480469 24.992188 33.3125 26.179688 C 32.203125 26.777344 31.28125 25.738281 30.660156 25.914062 C 29.265625 26.300781 28.664062 27.542969 26.789062 27.976562 C 25.199219 28.34375 25.175781 28.152344 24.265625 28.332031 C 21.253906 28.898438 19.378906 28.109375 19.027344 28.640625 C 18.796875 28.984375 19.378906 29.75 20.113281 30.25 Z M 20.113281 30.25 " fill-opacity="0.57" fill-rule="nonzero"/><g clip-path="url(#cf668aa0a9)"><g clip-path="url(#f06061cfc6)"><path fill="#972e09" d="M 37.894531 19.972656 C 37.894531 20.433594 37.847656 20.894531 37.761719 21.347656 C 37.671875 21.800781 37.539062 22.242188 37.363281 22.667969 C 37.1875 23.097656 36.972656 23.503906 36.71875 23.890625 C 36.464844 24.273438 36.175781 24.628906 35.851562 24.957031 C 35.527344 25.285156 35.175781 25.578125 34.796875 25.835938 C 34.414062 26.089844 34.011719 26.308594 33.589844 26.484375 C 33.167969 26.664062 32.730469 26.796875 32.28125 26.886719 C 31.832031 26.976562 31.378906 27.023438 30.921875 27.023438 C 30.464844 27.023438 30.011719 26.976562 29.5625 26.886719 C 29.113281 26.796875 28.675781 26.664062 28.253906 26.484375 C 27.832031 26.308594 27.429688 26.089844 27.046875 25.835938 C 26.667969 25.578125 26.316406 25.285156 25.992188 24.957031 C 25.667969 24.628906 25.378906 24.273438 25.125 23.890625 C 24.871094 23.503906 24.65625 23.097656 24.480469 22.667969 C 24.304688 22.242188 24.171875 21.800781 24.082031 21.347656 C 23.992188 20.894531 23.949219 20.433594 23.949219 19.972656 C 23.949219 19.507812 23.992188 19.050781 24.082031 18.59375 C 24.171875 18.140625 24.304688 17.699219 24.480469 17.273438 C 24.65625 16.84375 24.871094 16.4375 25.125 16.054688 C 25.378906 15.667969 25.667969 15.3125 25.992188 14.984375 C 26.316406 14.65625 26.667969 14.363281 27.046875 14.109375 C 27.429688 13.851562 27.832031 13.632812 28.253906 13.457031 C 28.675781 13.277344 29.113281 13.144531 29.5625 13.054688 C 30.011719 12.964844 30.464844 12.917969 30.921875 12.917969 C 31.378906 12.917969 31.832031 12.964844 32.28125 13.054688 C 32.730469 13.144531 33.167969 13.277344 33.589844 13.457031 C 34.011719 13.632812 34.414062 13.851562 34.796875 14.109375 C 35.175781 14.363281 35.527344 14.65625 35.851562 14.984375 C 36.175781 15.3125 36.464844 15.667969 36.71875 16.054688 C 36.972656 16.4375 37.1875 16.84375 37.363281 17.273438 C 37.539062 17.699219 37.671875 18.140625 37.761719 18.59375 C 37.847656 19.050781 37.894531 19.507812 37.894531 19.972656 Z M 37.894531 19.972656 " fill-opacity="1" fill-rule="nonzero"/></g></g><g clip-path="url(#9c87a4e711)"><g clip-path="url(#6f5db40b88)"><path fill="#a2320c" d="M 39.878906 17.585938 C 39.878906 18.050781 39.832031 18.507812 39.742188 18.964844 C 39.65625 19.417969 39.523438 19.859375 39.347656 20.285156 C 39.171875 20.714844 38.957031 21.121094 38.703125 21.503906 C 38.449219 21.890625 38.160156 22.246094 37.835938 22.574219 C 37.511719 22.902344 37.160156 23.195312 36.78125 23.449219 C 36.398438 23.707031 35.996094 23.925781 35.574219 24.101562 C 35.152344 24.28125 34.714844 24.414062 34.265625 24.503906 C 33.816406 24.59375 33.363281 24.640625 32.90625 24.640625 C 32.449219 24.640625 31.996094 24.59375 31.546875 24.503906 C 31.097656 24.414062 30.660156 24.28125 30.238281 24.101562 C 29.816406 23.925781 29.414062 23.707031 29.03125 23.449219 C 28.652344 23.195312 28.300781 22.902344 27.976562 22.574219 C 27.652344 22.246094 27.363281 21.890625 27.109375 21.503906 C 26.855469 21.121094 26.640625 20.714844 26.464844 20.285156 C 26.289062 19.859375 26.15625 19.417969 26.066406 18.964844 C 25.976562 18.507812 25.933594 18.050781 25.933594 17.585938 C 25.933594 17.125 25.976562 16.664062 26.066406 16.210938 C 26.15625 15.757812 26.289062 15.316406 26.464844 14.886719 C 26.640625 14.460938 26.855469 14.054688 27.109375 13.667969 C 27.363281 13.285156 27.652344 12.929688 27.976562 12.601562 C 28.300781 12.273438 28.652344 11.980469 29.03125 11.722656 C 29.414062 11.464844 29.816406 11.25 30.238281 11.070312 C 30.660156 10.894531 31.097656 10.761719 31.546875 10.671875 C 31.996094 10.582031 32.449219 10.535156 32.90625 10.535156 C 33.363281 10.535156 33.816406 10.582031 34.265625 10.671875 C 34.714844 10.761719 35.152344 10.894531 35.574219 11.070312 C 35.996094 11.25 36.398438 11.464844 36.78125 11.722656 C 37.160156 11.980469 37.511719 12.273438 37.835938 12.601562 C 38.160156 12.929688 38.449219 13.285156 38.703125 13.667969 C 38.957031 14.054688 39.171875 14.460938 39.347656 14.886719 C 39.523438 15.316406 39.65625 15.757812 39.742188 16.210938 C 39.832031 16.664062 39.878906 17.125 39.878906 17.585938 Z M 39.878906 17.585938 " fill-opacity="1" fill-rule="nonzero"/></g></g><g clip-path="url(#db42586405)"><g clip-path="url(#42caf96df4)"><path fill="#ce931d" d="M 27.730469 15.800781 C 27.480469 16.289062 27.378906 16.554688 27.480469 16.800781 C 27.839844 17.6875 30.054688 16.667969 31.753906 17.863281 C 32.90625 18.675781 32.652344 19.683594 33.992188 20.316406 C 34.199219 20.414062 35.132812 20.847656 36.097656 20.503906 C 37.070312 20.160156 37.675781 19.160156 37.828125 18.429688 C 38.410156 15.722656 34.078125 11.179688 30.941406 12.152344 C 29.398438 12.652344 28.476562 14.40625 27.730469 15.800781 Z M 27.730469 15.800781 " fill-opacity="0.22" fill-rule="nonzero"/></g></g><path fill="#e2db6e" d="M 31.699219 13.519531 C 31.886719 13.539062 32.0625 13.582031 32.226562 13.648438 C 32.390625 13.714844 32.535156 13.796875 32.65625 13.894531 C 32.777344 13.992188 32.867188 14.101562 32.925781 14.21875 C 32.984375 14.335938 33.007812 14.453125 32.992188 14.574219 C 32.980469 14.691406 32.929688 14.800781 32.847656 14.902344 C 32.765625 15.003906 32.652344 15.085938 32.511719 15.15625 C 32.371094 15.226562 32.214844 15.273438 32.039062 15.296875 C 31.863281 15.324219 31.683594 15.324219 31.496094 15.304688 C 31.3125 15.28125 31.136719 15.238281 30.972656 15.171875 C 30.804688 15.109375 30.664062 15.027344 30.542969 14.925781 C 30.421875 14.828125 30.332031 14.71875 30.273438 14.601562 C 30.214844 14.484375 30.191406 14.367188 30.203125 14.25 C 30.21875 14.128906 30.265625 14.019531 30.351562 13.917969 C 30.433594 13.820312 30.542969 13.734375 30.683594 13.664062 C 30.824219 13.597656 30.984375 13.550781 31.160156 13.523438 C 31.335938 13.5 31.515625 13.496094 31.699219 13.519531 Z M 31.699219 13.519531 " fill-opacity="1" fill-rule="nonzero"/><path fill="#fbf398" d="M 30.613281 13.378906 C 30.683594 13.472656 30.722656 13.585938 30.730469 13.71875 C 30.738281 13.851562 30.710938 13.988281 30.65625 14.136719 C 30.597656 14.28125 30.515625 14.425781 30.402344 14.566406 C 30.289062 14.703125 30.160156 14.832031 30.007812 14.941406 C 29.859375 15.054688 29.703125 15.140625 29.535156 15.207031 C 29.371094 15.273438 29.210938 15.3125 29.054688 15.324219 C 28.902344 15.335938 28.761719 15.316406 28.640625 15.273438 C 28.519531 15.226562 28.421875 15.15625 28.351562 15.058594 C 28.285156 14.960938 28.246094 14.847656 28.238281 14.71875 C 28.230469 14.585938 28.253906 14.449219 28.3125 14.300781 C 28.371094 14.152344 28.453125 14.011719 28.566406 13.871094 C 28.675781 13.730469 28.808594 13.605469 28.957031 13.496094 C 29.109375 13.382812 29.265625 13.292969 29.429688 13.226562 C 29.597656 13.160156 29.757812 13.125 29.910156 13.113281 C 30.066406 13.101562 30.207031 13.117188 30.328125 13.164062 C 30.449219 13.210938 30.546875 13.28125 30.613281 13.378906 Z M 30.613281 13.378906 " fill-opacity="1" fill-rule="nonzero"/><g clip-path="url(#50838a98e0)"><g clip-path="url(#d40c3e5f51)"><path fill="#972e09" d="M 25.605469 21.722656 C 25.605469 22.234375 25.554688 22.742188 25.457031 23.242188 C 25.359375 23.746094 25.210938 24.234375 25.019531 24.707031 C 24.824219 25.179688 24.585938 25.628906 24.304688 26.054688 C 24.023438 26.480469 23.703125 26.871094 23.347656 27.234375 C 22.988281 27.597656 22.601562 27.917969 22.179688 28.203125 C 21.757812 28.488281 21.3125 28.726562 20.847656 28.925781 C 20.378906 29.121094 19.898438 29.269531 19.402344 29.367188 C 18.90625 29.46875 18.402344 29.519531 17.898438 29.519531 C 17.390625 29.519531 16.890625 29.46875 16.394531 29.367188 C 15.898438 29.269531 15.414062 29.121094 14.949219 28.925781 C 14.480469 28.726562 14.035156 28.488281 13.617188 28.203125 C 13.195312 27.917969 12.804688 27.597656 12.449219 27.234375 C 12.089844 26.871094 11.769531 26.480469 11.488281 26.054688 C 11.207031 25.628906 10.972656 25.179688 10.777344 24.707031 C 10.582031 24.234375 10.4375 23.746094 10.339844 23.242188 C 10.238281 22.742188 10.191406 22.234375 10.191406 21.722656 C 10.191406 21.210938 10.238281 20.703125 10.339844 20.203125 C 10.4375 19.699219 10.582031 19.214844 10.777344 18.738281 C 10.972656 18.265625 11.207031 17.816406 11.488281 17.390625 C 11.769531 16.96875 12.089844 16.574219 12.449219 16.210938 C 12.804688 15.847656 13.195312 15.527344 13.617188 15.242188 C 14.035156 14.957031 14.480469 14.71875 14.949219 14.523438 C 15.414062 14.324219 15.898438 14.179688 16.394531 14.078125 C 16.890625 13.976562 17.390625 13.929688 17.898438 13.929688 C 18.402344 13.929688 18.90625 13.976562 19.402344 14.078125 C 19.898438 14.179688 20.378906 14.324219 20.847656 14.523438 C 21.3125 14.71875 21.757812 14.957031 22.179688 15.242188 C 22.601562 15.527344 22.988281 15.847656 23.347656 16.210938 C 23.703125 16.574219 24.023438 16.96875 24.304688 17.390625 C 24.585938 17.816406 24.824219 18.265625 25.019531 18.738281 C 25.210938 19.214844 25.359375 19.699219 25.457031 20.203125 C 25.554688 20.703125 25.605469 21.210938 25.605469 21.722656 Z M 25.605469 21.722656 " fill-opacity="1" fill-rule="nonzero"/></g></g><g clip-path="url(#ce93bee313)"><g clip-path="url(#21d1f6d6d8)"><path fill="#a2320c" d="M 26.492188 19.371094 C 26.492188 19.882812 26.441406 20.390625 26.34375 20.894531 C 26.246094 21.394531 26.097656 21.882812 25.90625 22.355469 C 25.710938 22.828125 25.476562 23.277344 25.195312 23.703125 C 24.914062 24.128906 24.59375 24.523438 24.234375 24.882812 C 23.878906 25.246094 23.488281 25.570312 23.066406 25.851562 C 22.644531 26.136719 22.203125 26.378906 21.734375 26.574219 C 21.265625 26.769531 20.785156 26.917969 20.289062 27.015625 C 19.792969 27.117188 19.292969 27.167969 18.785156 27.167969 C 18.28125 27.167969 17.777344 27.117188 17.28125 27.015625 C 16.785156 26.917969 16.304688 26.769531 15.835938 26.574219 C 15.367188 26.378906 14.925781 26.136719 14.503906 25.851562 C 14.082031 25.570312 13.695312 25.246094 13.335938 24.882812 C 12.976562 24.523438 12.660156 24.128906 12.378906 23.703125 C 12.097656 23.277344 11.859375 22.828125 11.664062 22.355469 C 11.472656 21.882812 11.324219 21.394531 11.226562 20.894531 C 11.128906 20.390625 11.078125 19.882812 11.078125 19.371094 C 11.078125 18.859375 11.128906 18.355469 11.226562 17.851562 C 11.324219 17.351562 11.472656 16.863281 11.664062 16.390625 C 11.859375 15.917969 12.097656 15.46875 12.378906 15.042969 C 12.660156 14.617188 12.976562 14.222656 13.335938 13.859375 C 13.695312 13.5 14.082031 13.175781 14.503906 12.890625 C 14.925781 12.605469 15.367188 12.367188 15.835938 12.171875 C 16.304688 11.976562 16.785156 11.828125 17.28125 11.726562 C 17.777344 11.628906 18.28125 11.578125 18.785156 11.578125 C 19.292969 11.578125 19.792969 11.628906 20.289062 11.726562 C 20.785156 11.828125 21.265625 11.976562 21.734375 12.171875 C 22.203125 12.367188 22.644531 12.605469 23.066406 12.890625 C 23.488281 13.175781 23.878906 13.5 24.234375 13.859375 C 24.59375 14.222656 24.914062 14.617188 25.195312 15.042969 C 25.476562 15.46875 25.710938 15.917969 25.90625 16.390625 C 26.097656 16.863281 26.246094 17.351562 26.34375 17.851562 C 26.441406 18.355469 26.492188 18.859375 26.492188 19.371094 Z M 26.492188 19.371094 " fill-opacity="1" fill-rule="nonzero"/></g></g><g clip-path="url(#20c9fa6fe9)"><g clip-path="url(#8c59459ba3)"><path fill="#ce931d" d="M 14.367188 17.121094 C 14.082031 17.652344 13.984375 17.953125 14.09375 18.230469 C 14.5 19.207031 16.945312 18.085938 18.820312 19.40625 C 20.089844 20.304688 19.804688 21.414062 21.285156 22.109375 C 21.515625 22.222656 22.546875 22.699219 23.621094 22.320312 C 24.695312 21.933594 25.363281 20.847656 25.539062 20.039062 C 26.183594 17.054688 21.394531 12.019531 17.929688 13.109375 C 16.21875 13.640625 15.191406 15.570312 14.367188 17.121094 Z M 14.367188 17.121094 " fill-opacity="0.22" fill-rule="nonzero"/></g></g><path fill="#e2db6e" d="M 18.769531 14.585938 C 18.976562 14.609375 19.167969 14.660156 19.351562 14.730469 C 19.53125 14.804688 19.691406 14.894531 19.824219 15.003906 C 19.957031 15.113281 20.054688 15.234375 20.121094 15.363281 C 20.183594 15.496094 20.210938 15.625 20.195312 15.757812 C 20.179688 15.890625 20.125 16.011719 20.035156 16.125 C 19.941406 16.234375 19.820312 16.328125 19.664062 16.40625 C 19.511719 16.480469 19.335938 16.535156 19.140625 16.5625 C 18.949219 16.589844 18.75 16.59375 18.546875 16.570312 C 18.34375 16.546875 18.148438 16.5 17.964844 16.425781 C 17.785156 16.355469 17.625 16.261719 17.492188 16.152344 C 17.359375 16.042969 17.261719 15.925781 17.195312 15.792969 C 17.132812 15.664062 17.109375 15.53125 17.121094 15.398438 C 17.136719 15.269531 17.191406 15.148438 17.28125 15.035156 C 17.375 14.921875 17.496094 14.828125 17.652344 14.75 C 17.808594 14.675781 17.980469 14.625 18.175781 14.59375 C 18.367188 14.566406 18.566406 14.5625 18.769531 14.585938 Z M 18.769531 14.585938 " fill-opacity="1" fill-rule="nonzero"/><path fill="#fbf398" d="M 17.566406 14.441406 C 17.644531 14.546875 17.6875 14.675781 17.695312 14.820312 C 17.703125 14.964844 17.675781 15.121094 17.613281 15.28125 C 17.550781 15.445312 17.460938 15.601562 17.335938 15.757812 C 17.214844 15.910156 17.070312 16.050781 16.902344 16.171875 C 16.738281 16.292969 16.566406 16.390625 16.382812 16.464844 C 16.199219 16.539062 16.023438 16.578125 15.851562 16.589844 C 15.679688 16.601562 15.527344 16.582031 15.390625 16.53125 C 15.257812 16.480469 15.152344 16.398438 15.074219 16.292969 C 14.996094 16.1875 14.953125 16.0625 14.945312 15.914062 C 14.9375 15.769531 14.964844 15.617188 15.027344 15.453125 C 15.085938 15.292969 15.179688 15.132812 15.304688 14.980469 C 15.425781 14.824219 15.570312 14.6875 15.734375 14.5625 C 15.902344 14.441406 16.074219 14.34375 16.257812 14.269531 C 16.4375 14.199219 16.617188 14.15625 16.789062 14.144531 C 16.960938 14.132812 17.113281 14.152344 17.246094 14.203125 C 17.382812 14.257812 17.488281 14.335938 17.566406 14.441406 Z M 17.566406 14.441406 " fill-opacity="1" fill-rule="nonzero"/></svg>